<?xml version="1.0" encoding="UTF-8"?>
<!-- Generator: Adobe Illustrator 19.1.0, SVG Export Plug-In . SVG Version: 6.00 Build 0)  -->
<svg version="1.1" xmlns="http://www.w3.org/2000/svg" xmlns:xlink="http://www.w3.org/1999/xlink" x="0px" y="0px" viewBox="0 0 499.083 123.543" enable-background="new 0 0 499.083 123.543" xml:space="preserve">
<g id="Logo">
	<path fill-rule="evenodd" clip-rule="evenodd" fill="#CC3333" d="M94.208,65.7c0.271,0.197,0.357,0.399,0.309,0.729   c-0.655,4.619-1.203,18.456-1.256,20.664c-0.064,2.294-2.299,2.294-3.204,0.761c-3.491-5.902-7.887-15.47-10.335-20.739   c-0.979-2.107-0.734-3.081,1-3.305c4.912-0.633,9.121-0.585,11.027-0.575c0.335,0.005,0.522,0.117,0.676,0.415   C92.803,64.386,93.553,65.227,94.208,65.7z M71.106,61.571c-4.098,1.123-14.129,3.587-20.494,6.503   c-0.325,0.144-0.655-0.186-0.511-0.506c1.788-3.986,8.706-19.584,11.995-29.839c0.208-0.756,0.926-0.91,1.368-0.447   c0.096,0.106,0.181,0.239,0.245,0.41c0,0,7.003,18.083,8.02,20.728c0.271,0.702,0.404,1.288,0.404,1.756   C72.133,60.927,71.792,61.384,71.106,61.571z M97.566,93.102c-0.974-3.353,0.048-21.787,0.596-26.146   c0.043-0.357,0.192-0.532,0.532-0.639c3.56-1.118,4.816-5.513,2.384-8.35c-2.432-2.831-6.966-2.256-8.616,1.096   c-0.149,0.303-0.335,0.42-0.676,0.426c-4.268,0.106-8.515,0.378-12.762,0.825c-0.878,0.09-1.618-0.277-2.209-0.851   c-0.527-0.516-0.931-1.203-1.203-1.873c-2.895-7.073-5.7-14.182-8.488-21.303c-0.511-1.314-0.261-2.805,0.649-3.874   c3.693-4.348,0.841-11.048-4.853-11.399c-5.694-0.346-9.345,5.95-6.21,10.718c0.676,1.027,0.814,2.32,0.378,3.475   C52.506,47.175,41.183,75.036,31.31,90.883c-1.807,2.901-3.954,6.918-10.308,8.978c-0.003,1.254-0.002,1.582,0,2.682   c5.625,0,11.25,0,16.87,0c0.001-1.21,0-1.673,0-2.682c-2.895-1.096-1.112-6.077-0.303-7.86c2.097-4.63,7.69-14.635,9.584-18.147   c0.085-0.149,0.186-0.25,0.346-0.325c8.951-4.263,15.752-6.264,24.704-8.366c2.405-0.564,3.212,1.624,3.736,2.709   c5.974,12.38,8.229,16.563,10.902,22.187c1.689,3.554,4.553,8.674,1.291,9.802c0.005,0.926-0.005,1.756,0,2.682   c5.62,0,11.25,0,16.87,0c0-0.931,0-1.751,0-2.682C101.381,99.408,98.417,96.646,97.566,93.102z M58.302,27.937   c-0.011-2.331,1.873-4.231,4.204-4.241c2.331-0.016,4.231,1.868,4.241,4.199c0.016,2.331-1.868,4.231-4.199,4.247   C60.218,32.152,58.318,30.268,58.302,27.937z M94.613,61.331c-0.006-1.395,1.121-2.533,2.517-2.539   c1.395-0.01,2.533,1.118,2.539,2.513c0.01,1.395-1.118,2.533-2.513,2.542C95.76,63.854,94.623,62.727,94.613,61.331z"/>
</g>
<g id="StylizedName">
	<g>
		<g>
			<path d="M146.564,51.369l0.031,22.312l-2.83,0.004l-0.005-3.835c-1.201,1.464-2.55,2.567-4.046,3.307     c-1.496,0.741-3.133,1.112-4.91,1.114c-3.158,0.004-5.856-1.137-8.095-3.424c-2.239-2.287-3.36-5.071-3.365-8.352     c-0.004-3.213,1.12-5.963,3.373-8.249c2.252-2.286,4.965-3.432,8.137-3.436c1.832-0.002,3.49,0.385,4.975,1.162     c1.485,0.777,2.789,1.944,3.912,3.501l-0.005-4.102L146.564,51.369z M135.093,53.579c-1.598,0.002-3.072,0.397-4.423,1.184     c-1.352,0.788-2.425,1.892-3.222,3.313c-0.797,1.421-1.194,2.924-1.192,4.508c0.002,1.571,0.407,3.072,1.215,4.505     c0.808,1.433,1.891,2.548,3.251,3.345s2.818,1.194,4.375,1.192c1.57-0.002,3.059-0.4,4.464-1.194     c1.405-0.794,2.486-1.868,3.242-3.221s1.133-2.876,1.131-4.57c-0.004-2.581-0.857-4.737-2.56-6.469     C139.672,54.439,137.579,53.575,135.093,53.579z"/>
			<path d="M153.275,51.359l2.871-0.004l0.005,4.102c1.132-1.56,2.435-2.731,3.908-3.512c1.474-0.781,3.119-1.173,4.936-1.176     c3.168-0.004,5.881,1.133,8.138,3.414c2.256,2.28,3.387,5.026,3.392,8.239c0.004,3.281-1.108,6.068-3.338,8.362     c-2.23,2.293-4.923,3.442-8.078,3.446c-1.776,0.002-3.409-0.365-4.898-1.101c-1.489-0.736-2.836-1.835-4.04-3.296l0.017,11.997     l-2.871,0.004L153.275,51.359z M164.763,53.538c-2.483,0.004-4.572,0.874-6.268,2.61c-1.696,1.737-2.542,3.896-2.538,6.477     c0.002,1.693,0.383,3.216,1.142,4.566c0.759,1.351,1.845,2.421,3.258,3.212c1.413,0.79,2.903,1.184,4.472,1.182     c1.542-0.002,2.99-0.403,4.346-1.204c1.356-0.801,2.436-1.919,3.239-3.354c0.803-1.435,1.203-2.937,1.201-4.508     c-0.002-1.584-0.403-3.085-1.203-4.505c-0.8-1.419-1.876-2.521-3.227-3.304C167.833,53.927,166.358,53.536,164.763,53.538z"/>
			<path d="M182.135,51.319l2.871-0.004l0.005,4.102c1.132-1.56,2.435-2.731,3.908-3.512c1.474-0.781,3.119-1.173,4.936-1.176     c3.168-0.004,5.881,1.134,8.138,3.414c2.256,2.28,3.387,5.027,3.392,8.24c0.004,3.281-1.108,6.068-3.338,8.361     c-2.23,2.293-4.923,3.442-8.078,3.446c-1.776,0.002-3.409-0.364-4.898-1.101c-1.489-0.736-2.836-1.835-4.04-3.296l0.017,11.997     l-2.871,0.004L182.135,51.319z M193.622,53.498c-2.483,0.003-4.572,0.874-6.268,2.61c-1.696,1.736-2.542,3.896-2.538,6.477     c0.002,1.693,0.383,3.216,1.142,4.566c0.759,1.351,1.845,2.421,3.258,3.211c1.413,0.79,2.903,1.184,4.472,1.182     c1.542-0.002,2.99-0.404,4.346-1.204c1.356-0.801,2.436-1.919,3.239-3.354c0.803-1.435,1.203-2.937,1.201-4.508     c-0.002-1.584-0.403-3.085-1.203-4.505c-0.8-1.418-1.876-2.52-3.227-3.304C196.692,53.887,195.218,53.496,193.622,53.498z"/>
			<path d="M210.51,42.667l2.871-0.004l0.043,30.926l-2.871,0.004L210.51,42.667z"/>
			<path d="M220.553,42.079c0.653-0.001,1.211,0.23,1.675,0.695c0.463,0.464,0.696,1.024,0.696,1.681     c0.001,0.643-0.229,1.197-0.692,1.662s-1.02,0.699-1.673,0.7c-0.64,0.001-1.192-0.231-1.655-0.695     c-0.463-0.464-0.695-1.018-0.696-1.66c0-0.656,0.23-1.217,0.692-1.683C219.362,42.313,219.913,42.08,220.553,42.079z      M219.141,51.269l2.871-0.004l0.031,22.312l-2.871,0.004L219.141,51.269z"/>
			<path d="M246.995,66.139l2.421,1.268c-0.792,1.56-1.707,2.819-2.745,3.777s-2.208,1.688-3.507,2.189     c-1.299,0.501-2.771,0.752-4.412,0.754c-3.64,0.005-6.488-1.184-8.544-3.566c-2.056-2.383-3.086-5.079-3.09-8.086     c-0.004-2.83,0.861-5.354,2.597-7.571c2.199-2.819,5.146-4.232,8.841-4.237c3.804-0.005,6.844,1.433,9.119,4.314     c1.618,2.035,2.442,4.577,2.474,7.625l-20.077,0.028c0.058,2.592,0.889,4.715,2.493,6.37c1.604,1.655,3.583,2.481,5.938,2.478     c1.136-0.001,2.241-0.2,3.315-0.597c1.074-0.396,1.987-0.922,2.739-1.577C245.308,68.654,246.121,67.598,246.995,66.139z      M246.987,60.13c-0.386-1.531-0.945-2.753-1.679-3.668c-0.733-0.915-1.703-1.652-2.908-2.211     c-1.205-0.559-2.472-0.837-3.799-0.835c-2.19,0.003-4.072,0.709-5.644,2.12c-1.149,1.027-2.016,2.566-2.602,4.618L246.987,60.13z     "/>
			<path d="M277.955,42.574l0.043,30.926l-2.83,0.004l-0.006-3.835c-1.2,1.464-2.549,2.567-4.045,3.307s-3.133,1.112-4.91,1.114     c-3.158,0.004-5.856-1.137-8.095-3.424c-2.239-2.287-3.36-5.071-3.365-8.353c-0.004-3.213,1.12-5.962,3.373-8.249     c2.252-2.287,4.965-3.432,8.137-3.436c1.832-0.003,3.49,0.385,4.975,1.162c1.485,0.777,2.789,1.944,3.912,3.501l-0.018-12.715     L277.955,42.574z M266.496,53.397c-1.598,0.002-3.072,0.397-4.423,1.184c-1.352,0.788-2.425,1.892-3.222,3.313     s-1.194,2.924-1.192,4.508c0.002,1.571,0.407,3.072,1.215,4.505s1.891,2.548,3.251,3.345c1.36,0.797,2.818,1.194,4.375,1.192     c1.57-0.002,3.059-0.4,4.464-1.194c1.405-0.794,2.486-1.868,3.243-3.221c0.756-1.353,1.133-2.876,1.13-4.569     c-0.003-2.581-0.856-4.738-2.559-6.47S268.981,53.394,266.496,53.397z"/>
			<path d="M297.497,41.973c0.654-0.001,1.213,0.231,1.676,0.695c0.464,0.464,0.696,1.024,0.697,1.681     c0.001,0.643-0.23,1.196-0.692,1.662c-0.462,0.465-1.02,0.698-1.674,0.699c-0.64,0.001-1.19-0.23-1.654-0.695     s-0.695-1.018-0.696-1.66c-0.001-0.656,0.229-1.217,0.691-1.683C296.307,42.207,296.857,41.974,297.497,41.973z M296.084,51.162     l2.871-0.004l0.031,22.312l-2.871,0.004L296.084,51.162z"/>
			<path d="M305.133,51.15l2.871-0.004l0.006,3.999c1.146-1.533,2.416-2.68,3.81-3.44s2.911-1.142,4.552-1.145     c1.668-0.002,3.148,0.419,4.44,1.265c1.295,0.846,2.249,1.986,2.866,3.421c0.617,1.435,0.928,3.67,0.933,6.705l0.016,11.484     l-2.871,0.004l-0.015-10.644c-0.004-2.57-0.112-4.286-0.326-5.147c-0.336-1.476-0.975-2.586-1.919-3.33     c-0.944-0.744-2.177-1.115-3.694-1.112c-1.736,0.002-3.291,0.579-4.663,1.729c-1.373,1.15-2.277,2.573-2.712,4.269     c-0.272,1.108-0.406,3.132-0.402,6.071l0.012,8.183l-2.871,0.004L305.133,51.15z"/>
			<path d="M328.845,51.117l3.056-0.004l7.512,16.254l7.377-16.275l3.076-0.004l-10.182,22.327l-0.533,0.001L328.845,51.117z"/>
			<path d="M373.25,65.965l2.422,1.268c-0.792,1.56-1.707,2.819-2.745,3.777c-1.039,0.958-2.208,1.688-3.507,2.189     c-1.3,0.501-2.771,0.752-4.412,0.755c-3.641,0.005-6.488-1.184-8.544-3.567c-2.057-2.383-3.087-5.079-3.091-8.086     c-0.004-2.83,0.862-5.354,2.596-7.571c2.2-2.819,5.147-4.231,8.843-4.237c3.804-0.005,6.844,1.433,9.119,4.314     c1.617,2.035,2.441,4.577,2.473,7.625l-20.077,0.028c0.059,2.592,0.89,4.715,2.493,6.37c1.604,1.655,3.583,2.481,5.938,2.478     c1.136-0.001,2.24-0.2,3.314-0.597s1.987-0.922,2.739-1.577S372.375,67.424,373.25,65.965z M373.242,59.956     c-0.385-1.531-0.945-2.753-1.679-3.668c-0.734-0.915-1.703-1.652-2.908-2.211c-1.206-0.559-2.473-0.837-3.8-0.835     c-2.191,0.003-4.072,0.71-5.645,2.12c-1.147,1.027-2.016,2.566-2.601,4.618L373.242,59.956z"/>
			<path d="M381.95,51.044l2.871-0.004l0.006,3.999c1.146-1.533,2.416-2.68,3.81-3.44s2.911-1.142,4.552-1.145     c1.668-0.002,3.148,0.419,4.44,1.265c1.295,0.846,2.249,1.986,2.866,3.421c0.617,1.435,0.928,3.67,0.933,6.705l0.016,11.484     l-2.871,0.004l-0.015-10.644c-0.004-2.57-0.112-4.286-0.326-5.147c-0.336-1.476-0.975-2.586-1.919-3.33s-2.177-1.115-3.694-1.112     c-1.736,0.002-3.291,0.579-4.663,1.729c-1.373,1.15-2.277,2.573-2.712,4.269c-0.272,1.108-0.406,3.132-0.402,6.071l0.012,8.183     l-2.871,0.004L381.95,51.044z"/>
			<path d="M410.266,42.72l2.871-0.004L413.148,51l4.553-0.006l0.004,2.481l-4.553,0.006l0.027,19.831l-2.871,0.004l-0.027-19.831     l-3.917,0.005l-0.004-2.481l3.917-0.005L410.266,42.72z"/>
			<path d="M423.199,41.799c0.654-0.001,1.213,0.231,1.676,0.695c0.464,0.464,0.696,1.024,0.697,1.681     c0.001,0.643-0.23,1.197-0.692,1.662c-0.462,0.466-1.02,0.699-1.674,0.7c-0.64,0.001-1.19-0.231-1.654-0.695     c-0.464-0.464-0.695-1.018-0.696-1.66c-0.001-0.656,0.229-1.217,0.691-1.683C422.009,42.033,422.559,41.8,423.199,41.799z      M421.787,50.989l2.871-0.004l0.031,22.312l-2.871,0.004L421.787,50.989z"/>
			<path d="M441.397,50.388c3.438-0.005,6.287,1.235,8.551,3.721c2.058,2.267,3.089,4.952,3.093,8.055     c0.005,3.117-1.078,5.843-3.244,8.177c-2.168,2.334-4.957,3.503-8.367,3.508c-3.424,0.004-6.224-1.157-8.397-3.485     c-2.175-2.328-3.263-5.05-3.268-8.167c-0.004-3.09,1.02-5.771,3.071-8.043C435.091,51.647,437.946,50.392,441.397,50.388z      M441.389,53.197c-2.387,0.003-4.437,0.888-6.149,2.654c-1.712,1.766-2.566,3.9-2.563,6.402c0.003,1.613,0.396,3.117,1.18,4.51     s1.842,2.469,3.174,3.226c1.331,0.757,2.794,1.134,4.385,1.132c1.592-0.002,3.052-0.384,4.382-1.145     c1.33-0.76,2.386-1.838,3.166-3.234c0.779-1.396,1.169-2.9,1.166-4.513c-0.003-2.502-0.867-4.634-2.592-6.395     C445.813,54.073,443.763,53.194,441.389,53.197z"/>
			<path d="M458.546,50.938l2.871-0.004l0.006,3.999c1.146-1.533,2.416-2.68,3.81-3.44s2.911-1.142,4.552-1.145     c1.668-0.002,3.148,0.42,4.44,1.266c1.295,0.846,2.249,1.986,2.866,3.421s0.928,3.669,0.933,6.705l0.016,11.484l-2.871,0.004     l-0.015-10.644c-0.004-2.57-0.112-4.286-0.326-5.147c-0.336-1.476-0.975-2.586-1.919-3.33c-0.944-0.744-2.177-1.115-3.694-1.113     c-1.736,0.002-3.291,0.579-4.663,1.729c-1.373,1.15-2.277,2.574-2.712,4.27c-0.272,1.108-0.406,3.131-0.402,6.071l0.012,8.183     l-2.871,0.004L458.546,50.938z"/>
		</g>
	</g>
</g>
</svg>