<?xml version="1.0" encoding="UTF-8" standalone="no"?>
<!DOCTYPE svg PUBLIC "-//W3C//DTD SVG 1.1//EN" "http://www.w3.org/Graphics/SVG/1.1/DTD/svg11.dtd">
<svg width="100%" height="100%" viewBox="0 0 100 19" version="1.1" xmlns="http://www.w3.org/2000/svg" xmlns:xlink="http://www.w3.org/1999/xlink" xml:space="preserve" xmlns:serif="http://www.serif.com/" style="fill-rule:evenodd;clip-rule:evenodd;stroke-linejoin:round;stroke-miterlimit:1.41421;">
    <g transform="matrix(0.173611,0,0,0.174731,0,-40.6452)">
        <rect x="4.393" y="241.626" width="25.81" height="25.815" style="fill:rgb(79,120,186);fill-rule:nonzero;"/>
        <rect x="37.694" y="241.626" width="25.821" height="25.815" style="fill:rgb(79,120,186);fill-rule:nonzero;"/>
        <rect x="71.003" y="241.626" width="25.821" height="25.815" style="fill:rgb(79,120,186);fill-rule:nonzero;"/>
        <rect x="4.393" y="275.013" width="25.81" height="25.816" style="fill:rgb(79,120,186);fill-rule:nonzero;"/>
        <rect x="37.694" y="275.013" width="25.821" height="25.816" style="fill:rgb(79,120,186);fill-rule:nonzero;"/>
        <rect x="71.003" y="275.013" width="25.821" height="25.816" style="fill:rgb(79,120,186);fill-rule:nonzero;"/>
        <rect x="4.393" y="308.402" width="25.81" height="25.817" style="fill:rgb(79,120,186);fill-rule:nonzero;"/>
        <rect x="37.694" y="308.402" width="25.821" height="25.817" style="fill:rgb(79,120,186);fill-rule:nonzero;"/>
        <rect x="71.003" y="308.402" width="25.821" height="25.817" style="fill:rgb(79,120,186);fill-opacity:0.5;fill-rule:nonzero;"/>
        <path d="M149.646,325.774C155.128,328.548 160.478,329.671 165.234,329.671C177.387,329.671 188.682,322.538 188.682,304.77C188.616,289.116 179.897,280.133 168.734,280.133C161.139,280.133 154.27,284.295 149.646,289.38L149.646,325.774ZM149.646,281.586C154.6,277.227 161.469,274.057 169.329,274.057C182.539,274.057 195.287,283.04 195.287,304.704C195.287,327.095 180.954,335.549 165.63,335.549C156.978,335.549 148.986,332.841 143.041,329.407L143.041,241.692L149.646,241.692L149.646,281.586Z" style="fill:rgb(79,120,186);fill-rule:nonzero;"/>
        <rect x="206.846" y="241.626" width="6.341" height="92.866" style="fill:rgb(79,120,186);fill-rule:nonzero;"/>
        <path d="M235.181,311.309C235.181,325.444 242.116,329.275 249.052,329.275C256.845,329.275 263.979,324.387 269.527,316.263L269.527,275.047L276.132,275.047L276.132,334.493L269.527,334.493L269.527,323C264.309,330.397 255.987,335.417 246.938,335.417C237.559,335.417 228.576,330.067 228.576,311.969L228.576,275.047L235.181,275.047L235.181,311.309Z" style="fill:rgb(79,120,186);fill-rule:nonzero;"/>
        <path d="M336.568,300.807C336.832,290.437 329.633,280.596 317.347,280.199C305.458,279.803 296.079,288.654 295.287,300.807L336.568,300.807ZM339.276,330.53C334.124,333.304 326.727,335.946 318.074,335.615C298.127,334.955 287.889,319.301 288.55,302.59C289.276,283.898 303.147,273.726 317.942,274.255C333.926,274.651 344.824,287.465 342.711,306.223L295.022,306.223C294.956,317.254 302.75,329.01 318.404,329.539C325.339,329.803 331.746,327.755 336.964,324.981L339.276,330.53Z" style="fill:rgb(79,120,186);fill-rule:nonzero;"/>
        <path d="M364.243,286.672C369.131,279.274 376.991,274.122 386.04,274.122C397.929,274.122 404.93,283.105 404.93,296.381L404.93,334.492L398.391,334.492L398.391,297.768C398.391,284.889 391.786,280.331 384.652,280.265C376,280.199 368.272,286.936 364.243,293.673L364.243,334.492L357.638,334.492L357.638,241.692L364.243,241.692L364.243,286.672Z" style="fill:rgb(79,120,186);fill-rule:nonzero;"/>
        <path d="M422.367,304.704C422.367,317.848 430.029,329.275 444.296,329.275C458.1,329.275 466.29,317.782 466.29,304.704C466.29,291.494 458.166,280.265 444.296,280.265C430.095,280.265 422.367,291.494 422.367,304.704ZM472.895,304.704C472.895,324.387 459.553,335.417 444.296,335.417C427.189,335.417 415.696,321.679 415.696,304.704C415.696,286.672 428.378,274.123 444.296,274.123C459.619,274.123 472.895,285.483 472.895,304.704Z" style="fill:rgb(79,120,186);fill-rule:nonzero;"/>
        <path d="M487.955,324.255C492.909,327.558 498.457,329.275 503.807,329.275C510.016,329.275 517.744,326.699 517.678,320.424C517.678,315.074 511.997,310.913 502.882,307.346C492.777,303.317 483.926,299.618 483.926,290.107C483.926,280.596 492.843,274.255 504.534,274.255C510.676,274.255 516.29,276.038 521.046,278.548L518.536,283.766C514.771,281.785 510.082,280.266 504.732,280.266C494.89,280.266 490.465,285.087 490.465,290.107C490.465,296.514 497.73,298.892 506.911,302.657C521.244,308.271 524.283,314.678 524.283,320.16C524.283,329.473 515.564,335.351 504.005,335.351C497.466,335.351 491.059,333.436 485.115,329.935L487.955,324.255Z" style="fill:rgb(79,120,186);fill-rule:nonzero;"/>
        <path d="M567.611,275.048L567.611,280.662L547.928,280.662L547.928,313.159C547.928,322.736 552.023,328.945 560.676,329.275C564.375,329.473 568.338,328.549 571.838,326.963L573.754,332.776C569.791,334.295 565.233,335.484 560.544,335.418C549.843,335.418 541.323,328.879 541.323,313.621L541.323,280.662L530.689,280.662L530.689,275.048L541.323,275.048L541.323,255.101L547.928,255.101L547.928,275.048L567.611,275.048Z" style="fill:rgb(79,120,186);fill-rule:nonzero;"/>
    </g>
</svg>