<svg id="Layer_1" data-name="Layer 1" xmlns="http://www.w3.org/2000/svg" viewBox="0 0 710.02 93.94"><defs><style>.cls-1,.cls-2{fill:#046241;}.cls-2{stroke:#046241;stroke-miterlimit:10;stroke-width:4px;}</style></defs><title>LDSBC horizontal logo all green</title><path class="cls-1" d="M404.87,87c-2.9,0-4.35-.12-6.78-.12s-5.4.12-8.36.12c-.2,0-.2-.57.07-.64,2.63-.25,4.08-.44,4.87-.89s1.38-1.92,1.38-14.54V61.59c0-12.62-.53-14.09-1.38-14.54s-2.24-.64-4.87-.9c-.27-.06-.27-.64-.07-.64,3,0,5.92.13,8.36.13s3.82-.13,6.78-.13c8.75,0,12.5,5.12,12.5,9.1s-2.83,7.17-7,9.22c7.1,1.53,10.92,5.51,10.92,10.89C421.32,81,416.45,87,404.87,87Zm-.13-40.22c-2.11,0-4,.26-4.22.52s-.39,2.88-.39,10.56c0,3.78.07,5.64.2,5.77s1.91.38,4.47.38c5.27,0,7.9-3.27,7.9-8.13C412.7,49.61,408.42,46.79,404.74,46.79Zm-.66,18.45a16.84,16.84,0,0,0-3.75.19c-.13.06-.2,1.54-.2,9.09,0,6.41.33,9.48.79,10s3,1.15,5.85,1.15c5.4,0,9.75-3.4,9.75-9.35C416.52,69.46,411.12,65.24,404.08,65.24Z" transform="translate(-4.77 -42.44)"/><path class="cls-1" d="M470.11,47.24c-.49.45-1,1.8-1,14.35V72.35c0,7.68-5.5,15.05-15.1,15.05s-15.33-6.6-15.33-14.92V61.59c0-12.62-.55-14.09-1.29-14.54s-1.77-.64-4.21-.9c-.25-.06-.25-.64-.06-.64h15.15c.18,0,.25.58-.06.64-2.38.26-3.67.45-4.4.9s-1.28,1.92-1.28,14.54v9.73c0,7.94,4.82,13.58,12.89,13.58,7.52,0,11.55-5.77,11.55-12.87V61.59c0-12.55-.55-13.9-1-14.35-.67-.64-2.14-.83-4.52-1.09-.31-.06-.18-.64,0-.64h13c.18,0,.24.58,0,.64C471.94,46.41,470.78,46.6,470.11,47.24Z" transform="translate(-4.77 -42.44)"/><path class="cls-1" d="M497,87.33c-6.93,0-10.5-3.52-10.63-3.71a51.43,51.43,0,0,1,0-8.9c-.07-.32.75-.32.75.06a13.37,13.37,0,0,0,2.06,6.34,10,10,0,0,0,8.71,4.55c5.35,0,8.64-3.52,8.64-8.26,0-9.55-18.17-11.15-18.17-21.72,0-6.59,5.48-10.69,11.79-10.69,5.21,0,6.11,1.73,8.57,1.15.28-.06.41.07.41.2,0,2.24.14,5.24,0,8.64-.06.26-.75.26-.82-.06A9.78,9.78,0,0,0,506,49a8.88,8.88,0,0,0-6.24-2.5c-4.32,0-7.61,3-7.61,7,0,8,18.93,11.33,18.93,21.77C511.05,83.3,503.84,87.33,497,87.33Z" transform="translate(-4.77 -42.44)"/><path class="cls-1" d="M525.63,86.92c-.17,0-.17-.58.12-.64,2.23-.26,3.67-.45,4.36-.9s1.2-1.92,1.2-14.54V61.49c0-12.61-.46-14.09-1.2-14.54s-2.13-.64-4.36-.89c-.29-.07-.29-.64-.12-.64h14.92c.17,0,.17.57-.06.64-2.23.25-3.73.44-4.42.89s-1.2,1.93-1.2,14.54v9.35c0,12.62.52,14.09,1.2,14.54s2.19.64,4.42.9c.23.06.23.64.06.64Z" transform="translate(-4.77 -42.44)"/><path class="cls-1" d="M595.81,47.56c-.51.51-1.2,1.41-1.13,14l.06,9.35c.06,5.38,0,11.08.31,16.07.06.32-.75.45-1.07.13L562.79,53.26,563,70.94c.13,11.66,1,13.45,1.76,14.15a12.2,12.2,0,0,0,4.59,1.09c.26,0,.19.83,0,.83H554.93c-.19,0-.25-.76,0-.83,2.52-.25,4-.64,4.65-1.21.51-.52,1.2-1.41,1.07-14l-.12-9.35c-.07-5.38-.07-11.08-.38-16.08,0-.32.94-.45,1.13-.13l31.26,34.08-.25-17.87c-.07-12.62-1-13.58-1.7-14.16s-2.33-.89-5-1.08c-.25-.07-.19-.84,0-.84h14.59c.19,0,.25.77,0,.84C597.69,46.6,596.5,47,595.81,47.56Z" transform="translate(-4.77 -42.44)"/><path class="cls-1" d="M639.6,86.57c-.37.38-2.54.76-5.58.76-4.35,0-6.59-.19-12.68-.19-4.64,0-7,.06-12.1.13-.22,0-.22-.58.07-.64,2.83-.26,4.49-.45,5.36-.9s1.53-1.92,1.53-14.54V61.84c0-12.61-.58-14.09-1.53-14.54s-2.53-.64-5.36-.89c-.29-.07-.29-.64-.07-.64,5.65.06,14,.12,18.69.12a97,97,0,0,0,10.65-.31c.29,0,.44.12.44.25-.22,2.24-.37,4.74-.8,8.2-.07.26-.87.19-.87-.19,0-1.67-.14-3.27-1.23-4.23-1.16-1.15-3.41-2-8.55-2-2.82,0-5.87,0-6.59.13a51.65,51.65,0,0,0-.29,7.75v9.48h6.37c6.89,0,7.83-.9,8.26-3.2,0-.26.8-.2.8,0-.07,1.79-.36,7.49-.36,9.28,0,.19-.8.19-.8-.06a4.09,4.09,0,0,0-1.09-3.08c-.65-.57-1.81-1.21-6.88-1.21h-6.3v4.54c0,8.2.43,12.81,1.16,13.45.58.58,3.26.84,7.46.84,4.56,0,7-1.16,8.33-2.38A9.51,9.51,0,0,0,640,78.56c.07-.39.8-.13.8.19A71.36,71.36,0,0,1,639.6,86.57Z" transform="translate(-4.77 -42.44)"/><path class="cls-1" d="M664.22,87.33c-6.79,0-10.28-3.52-10.42-3.71a53.66,53.66,0,0,1,0-8.9c-.06-.32.74-.32.74.06a13.6,13.6,0,0,0,2,6.34,9.71,9.71,0,0,0,8.53,4.55c5.24,0,8.46-3.52,8.46-8.26,0-9.55-17.8-11.15-17.8-21.72,0-6.59,5.38-10.69,11.56-10.69,5.1,0,6,1.73,8.39,1.15.27-.06.41.07.41.2,0,2.24.13,5.24,0,8.64-.07.26-.74.26-.81-.06A9.86,9.86,0,0,0,673,49a8.63,8.63,0,0,0-6.12-2.5c-4.23,0-7.45,3-7.45,7,0,8,18.54,11.33,18.54,21.77C678,83.3,670.93,87.33,664.22,87.33Z" transform="translate(-4.77 -42.44)"/><path class="cls-1" d="M701.49,87.33c-6.55,0-9.92-3.52-10-3.71a54.84,54.84,0,0,1,0-8.9c-.06-.32.71-.32.71.06a13.85,13.85,0,0,0,2,6.34,9.29,9.29,0,0,0,8.24,4.55c5.06,0,8.17-3.52,8.17-8.26,0-9.55-17.19-11.15-17.19-21.72,0-6.59,5.19-10.69,11.16-10.69,4.93,0,5.77,1.73,8.1,1.15.26-.06.39.07.39.2,0,2.24.13,5.24,0,8.64-.06.26-.71.26-.78-.06A10,10,0,0,0,710,49a8.16,8.16,0,0,0-5.9-2.5,7,7,0,0,0-7.2,7c0,8,17.9,11.33,17.9,21.77C714.79,83.3,708,87.33,701.49,87.33Z" transform="translate(-4.77 -42.44)"/><path class="cls-1" d="M425,131.87c-.86,1.07-4.62,2.66-12,2.66-13.63,0-21.66-8-21.66-18.27,0-9.7,7.78-19.18,21.54-19.18,7,0,10.24,2.16,12.46,1.76.25,0,.37.06.37.17.06,2,.25,5.11.19,8.17-.06.29-.87.23-.87-.05a7.89,7.89,0,0,0-2.4-4.6,16.37,16.37,0,0,0-10.43-3.63c-11.17,0-15.73,7.66-15.73,15.72,0,9.25,6.78,17.87,16.66,17.87,4.5,0,7.83-1.08,9.93-3.4a13.38,13.38,0,0,0,2.59-4.94c.06-.28.87-.06.87.17C426.25,127.33,425.51,131.07,425,131.87Z" transform="translate(-4.77 -42.44)"/><path class="cls-1" d="M463.14,134.53c-11.72,0-20.12-8-20.12-18.27,0-9.76,8.4-19.18,21-19.18,11.79,0,20.12,8,20.12,18.27C484.12,125.11,475.79,134.53,463.14,134.53Zm-.31-35.35c-11,0-14.69,8.12-14.69,15.44,0,9.25,6.36,17.81,16.23,17.81,11,0,14.63-8.11,14.63-15.43C479,107.75,472.7,99.18,462.83,99.18Z" transform="translate(-4.77 -42.44)"/><path class="cls-1" d="M527,133.23c-.37.62-1.11,1-2.65,1-3.77,0-7.59-.17-12.78-.17-4,0-6.41.06-10.79.11-.19,0-.19-.68.06-.73a10.62,10.62,0,0,0,4.19-1c.81-.4,1.3-1.36,1.3-12.54v-8.28c0-11.18-.49-12.2-1.3-12.54a10.62,10.62,0,0,0-4.19-1c-.25-.06-.25-.74-.06-.74h15.67c.19,0,.19.68-.06.74a11.09,11.09,0,0,0-4.26,1c-.74.34-1.3,1.36-1.3,12.54V120c0,7.26.56,10.38,1.36,11.12s2,1.08,5.68,1.08c3.88,0,6.29-.8,7.4-1.87a12.24,12.24,0,0,0,2.47-4.83c.06-.34.87,0,.8.18C528.3,128.63,527.56,132.43,527,133.23Z" transform="translate(-4.77 -42.44)"/><path class="cls-1" d="M570.07,133.23c-.37.62-1.11,1-2.65,1-3.76,0-7.59-.17-12.77-.17-4,0-6.42.06-10.81.11-.18,0-.18-.68.07-.73a10.67,10.67,0,0,0,4.19-1c.81-.4,1.3-1.36,1.3-12.54v-8.28c0-11.18-.49-12.2-1.3-12.54a10.67,10.67,0,0,0-4.19-1c-.25-.06-.25-.74-.07-.74h15.68c.19,0,.19.68-.06.74a11.09,11.09,0,0,0-4.26,1c-.74.34-1.29,1.36-1.29,12.54V120c0,7.26.55,10.38,1.35,11.12s2,1.08,5.68,1.08c3.89,0,6.29-.8,7.41-1.87a12.36,12.36,0,0,0,2.46-4.83c.07-.34.87,0,.81.18C571.37,128.63,570.63,132.43,570.07,133.23Z" transform="translate(-4.77 -42.44)"/><path class="cls-1" d="M612.65,133.23c-.43.62-1.18,1-2.72,1-3.76,0-7.59-.17-12.77-.17-3.95,0-5.92.06-10.3.11-.19,0-.19-.68.06-.73a10.7,10.7,0,0,0,4.25-1c.75-.4,1.3-1.36,1.3-12.54v-8.28c0-11.18-.55-12.2-1.3-12.54a10.7,10.7,0,0,0-4.25-1c-.25-.06-.25-.74-.06-.74,4.81.06,11.9.12,15.92.12a80,80,0,0,0,9.25-.29c.25,0,.37.12.37.23-.18,2-.31,4.2-.74,7.26,0,.23-.8.17-.8-.17a4.78,4.78,0,0,0-1.05-3.57c-1-1-3-1.53-7.34-1.53-2.41,0-4.69,0-5.31.11A59,59,0,0,0,597,106v8.23h5c5.87,0,6.67-.63,7-2.67.06-.23.86-.17.86,0-.12,3.12-.31,5-.31,8.23,0,.17-.86.17-.86-.06a3.71,3.71,0,0,0-.93-2.72c-.55-.51-1.54-.91-5.86-.91h-5V120c0,7.26.55,10.38,1.35,11.12s2,1.08,5.68,1.08c3.82,0,6-.68,7.09-1.76a9,9,0,0,0,2-3.92c.06-.33.86-.11.8.18C613.63,129.65,613.14,132.43,612.65,133.23Z" transform="translate(-4.77 -42.44)"/><path class="cls-1" d="M671.07,117.51c-2.4.23-3.21.45-4,1-.49.29-.8,1.14-.74,12.38l.06.5a29.84,29.84,0,0,1-13.63,3.18c-12.28,0-21.72-8.23-21.72-18.27,0-9.7,7.71-19.18,21.47-19.18,6.48,0,10.3,2,12.46,1.59.25,0,.37.06.37.17.13,2,.37,5.11.31,8.17,0,.29-.8.29-.86-.06a7.73,7.73,0,0,0-2.41-4.53,17.1,17.1,0,0,0-10.49-3.52c-11.17,0-15.73,7.66-15.73,15.72,0,9.47,7,17.81,18.69,17.81a19.35,19.35,0,0,0,7-1.3c-.13-11.92-.43-12.37-1-12.66a14.66,14.66,0,0,0-4.69-1c-.25,0-.25-.74-.06-.74h15C671.32,116.77,671.32,117.51,671.07,117.51Z" transform="translate(-4.77 -42.44)"/><path class="cls-1" d="M712,133.23c-.43.62-1.17,1-2.71,1-3.77,0-7.59-.17-12.77-.17-3.95,0-5.93.06-10.31.11-.18,0-.18-.68.06-.73a10.77,10.77,0,0,0,4.26-1c.74-.4,1.3-1.36,1.3-12.54v-8.28c0-11.18-.56-12.2-1.3-12.54a10.77,10.77,0,0,0-4.26-1c-.24-.06-.24-.74-.06-.74,4.81.06,11.91.12,15.92.12a80.29,80.29,0,0,0,9.26-.29c.24,0,.37.12.37.23-.19,2-.31,4.2-.75,7.26,0,.23-.8.17-.8-.17a4.74,4.74,0,0,0-1-3.57c-1-1-3-1.53-7.34-1.53-2.41,0-4.69,0-5.3.11a55,55,0,0,0-.19,6.41v8.23h5.06c5.86,0,6.66-.63,7-2.67.07-.23.87-.17.87,0-.13,3.12-.31,5-.31,8.23,0,.17-.86.17-.86-.06a3.71,3.71,0,0,0-.93-2.72c-.56-.51-1.54-.91-5.86-.91h-5V120c0,7.26.56,10.38,1.36,11.12s2,1.08,5.68,1.08c3.82,0,6-.68,7.09-1.76a9.05,9.05,0,0,0,2-3.92c.07-.33.87-.11.81.18C713,129.65,712.54,132.43,712,133.23Z" transform="translate(-4.77 -42.44)"/><path class="cls-1" d="M96.74,135.85h-92v-2.1c2.23-.24,3.61-.62,4.14-1.15a2.7,2.7,0,0,0,.79-2V48.76a2.74,2.74,0,0,0-.79-2Q8.12,46,4.77,45.6V43.5H41.06v2.1q-3.35.36-4.14,1.14a2.78,2.78,0,0,0-.79,2v65.67H96.74a2.44,2.44,0,0,0,2.11-1,9.42,9.42,0,0,0,1.06-4H102v26.34" transform="translate(-4.77 -42.44)"/><path class="cls-1" d="M127.22,48.76a2.75,2.75,0,0,0-.8-2c-.52-.52-1.91-.9-4.14-1.14V43.5h58.5A58,58,0,0,1,201.92,47a39.62,39.62,0,0,1,14.8,9.74,40.63,40.63,0,0,1,8.72,14.66,55.62,55.62,0,0,1,2.91,18.26,49.42,49.42,0,0,1-3.09,17.3,41.53,41.53,0,0,1-9.33,14.75A46.18,46.18,0,0,1,200.42,132a55.58,55.58,0,0,1-21.58,3.86H122.28v-2.1c2.23-.24,3.62-.62,4.14-1.15a2.7,2.7,0,0,0,.8-2ZM176,115.13q13.92,0,20.09-7.11t6.16-18.35q0-11.23-6.16-18.34T176,64.21H153.65v50.92Z" transform="translate(-4.77 -42.44)"/><path class="cls-1" d="M257.24,100.21a13,13,0,0,0-.35,3.69c0,1.17,1.08,2.48,3.26,3.95A40.35,40.35,0,0,0,268.6,112a76.89,76.89,0,0,0,11.9,3.25,69.88,69.88,0,0,0,13.56,1.32q13.21,0,19.38-3.07t6.17-8.87q0-3.16-5.38-4.48A98,98,0,0,0,300.76,98q-8.11-.78-17.45-1.75a88,88,0,0,1-17.44-3.51,36.1,36.1,0,0,1-13.48-7.38Q247,80.54,247,72.12A24.22,24.22,0,0,1,250.1,60a28.41,28.41,0,0,1,8.64-9.31,44,44,0,0,1,13.47-6,65.73,65.73,0,0,1,17.62-2.2,115.31,115.31,0,0,1,16.74,1.14c5.17.77,9.75,1.61,13.74,2.55s7.34,1.79,10.05,2.55a24.77,24.77,0,0,0,5.81,1.14A4.67,4.67,0,0,0,339,49a12.08,12.08,0,0,0,1.94-1.85l1.93.7L330.71,72.29l-2.12-1.05V69.31q0-1.59-3.43-3.25a45.7,45.7,0,0,0-8.72-3,113,113,0,0,0-11.81-2.19A94.12,94.12,0,0,0,292,60q-11.46,0-16,2.63t-4.58,5.62c0,2,1.06,3.49,3.17,4.48a28.67,28.67,0,0,0,8.29,2.19q5.1.7,11.62,1.15t13.39,1.31a124.69,124.69,0,0,1,13.39,2.46,41.43,41.43,0,0,1,11.63,4.65,24.71,24.71,0,0,1,8.28,8.08q3.18,5,3.17,12.55a29.15,29.15,0,0,1-2.37,11.42,25.52,25.52,0,0,1-8.11,10.09q-5.73,4.49-15.33,7.12t-23.87,2.63a149.87,149.87,0,0,1-19.12-1,111.12,111.12,0,0,1-13.65-2.55q-5.64-1.49-8.9-2.72a15.53,15.53,0,0,0-4.84-1.23,2.73,2.73,0,0,0-1.85.7c-.53.47-1.09,1-1.68,1.58l-2.11-.53,13-31.25Z" transform="translate(-4.77 -42.44)"/><line class="cls-2" x1="361.23" y1="3.56" x2="361.23" y2="93.56"/></svg>