<?xml version="1.0" encoding="UTF-8"?>
<!-- Generator: Adobe Illustrator 16.0.0, SVG Export Plug-In . SVG Version: 6.00 Build 0)  -->
<!DOCTYPE svg PUBLIC "-//W3C//DTD SVG 1.1//EN" "http://www.w3.org/Graphics/SVG/1.1/DTD/svg11.dtd">
<svg version="1.1" id="svg2816" xmlns:dc="http://purl.org/dc/elements/1.1/" xmlns:cc="http://creativecommons.org/ns#" xmlns:rdf="http://www.w3.org/1999/02/22-rdf-syntax-ns#" xmlns:svg="http://www.w3.org/2000/svg" xmlns:sodipodi="http://sodipodi.sourceforge.net/DTD/sodipodi-0.dtd" xmlns:inkscape="http://www.inkscape.org/namespaces/inkscape" sodipodi:docname="FleurDeLis_4K.ai" inkscape:version="0.47 r22583" xmlns="http://www.w3.org/2000/svg" xmlns:xlink="http://www.w3.org/1999/xlink" x="0px" y="0px" width="280px" height="322.295px" viewBox="-339.5 441.647 280 322.295" enable-background="new -339.5 441.647 280 322.295" xml:space="preserve">
<defs>
	
	
		<inkscape:perspective inkscape:vp_z="1 : 0.5 : 1" inkscape:vp_x="0 : 0.5 : 1" sodipodi:type="inkscape:persp3d" inkscape:vp_y="0 : 1000 : 0" id="perspective2824" inkscape:persp3d-origin="0.5 : 0.33333333 : 1">
		</inkscape:perspective>
</defs>
<sodipodi:namedview inkscape:cy="192.72832" inkscape:cx="181.98143" inkscape:zoom="0.95353535" showgrid="false" guidetolerance="10" gridtolerance="10" objecttolerance="10" borderopacity="1" bordercolor="#666666" pagecolor="#ffffff" id="namedview2818" inkscape:current-layer="g2826" inkscape:window-maximized="0" inkscape:window-y="0" inkscape:window-x="0" inkscape:window-height="667" inkscape:window-width="793" inkscape:pageshadow="2" inkscape:pageopacity="0">
	</sodipodi:namedview>
<g id="g2826" transform="matrix(1.25,0,0,-1.25,-200.51857,624.56673)" inkscape:label="FleurDeLis_4K" inkscape:groupmode="layer">
	<g id="g3025" transform="matrix(0.73310732,0,0,0.73310732,42.813551,64.539278)">
		<path id="path2836" fill="#FFFFFF" d="M-107.516-10.781c0,0,37.211,106.831,49.614,106.431    C-44.043,95.203-8.285-9.181-8.285-9.181s63.61,25.519,89.223-6.242c45.509-56.436-31.208-107.793-26.806-98.587    c5.889,12.317-29.61,40.409-38.816,31.608c-2.083-1.995-38.809-22.006-38.809-22.006l9.604-36.811c0,0,0.161,1.12,5.281-2.642    c5.122-3.76,20.324-22.966,39.53,11.443c0,0,12.405-70.02-55.217-60.816c-7.788,1.058-33.609-40.812-33.609-40.812l-28.808,43.213    c0,0-56.817-17.607-60.817,51.211c0,0,26.333-24.657,42.171-3.999c1.841,2.402,1.041,4.802,1.041,4.802l12.404,35.614    l-45.613,25.207l-1.921-4.403c0,0-11.514,5.448-28.089-30.811c-6.401-14.002-53.126,55.633-35.61,84.826    c2.4,3.999,6.802,15.204,13.204,16.004c13.522,1.69,37.611,28.008,78.424,3.201L-107.516-10.781L-107.516-10.781z"/>
		<path id="path2838" fill="#CE1126" d="M-13.888,27.069c3.84-10.082,8.163-19.926,9.603-30.967    c8.642,2.881,17.767,7.202,27.608,7.921c22.327,3.602,42.972-3.36,57.615-19.445l-13.203-0.24    C49.25-1.738,18.281-1.498-0.924-13.742l-10.323-6.961c-1.441,42.251-28.809,74.18-45.613,110.431l-0.721-0.24    c-16.806-35.77-43.453-67.46-44.894-109.473c-18.725,15.124-48.494,20.886-71.301,9.363l-8.402-4.801    c-4.321,0-8.643-0.24-12.963,0.24c17.044,19.446,45.853,24.967,70.58,17.045l14.884-5.523    c7.443,42.495,38.411,75.384,52.336,115.235C-46.299,82.527-26.612,56.119-13.888,27.069"/>
		<path id="path2840" fill="#CE1126" d="M-63.102-10.621c2.159,31.69,3.84,60.978,6.242,92.908l6.241-92.667L-63.102-10.621    L-63.102-10.621z"/>
		<path id="path2842" fill="#CE1126" d="M-197.061-33.907c-8.164-18.486-3.363-42.254,9.121-57.617    c4.802-5.763,10.564-11.526,17.046-14.643c2.88,12.004,9.603,24.726,21.847,30.247l9.602-6.481    c-9.843-2.883-19.206-12.724-21.367-23.05c-1.68-5.517-0.72-12.241,0.24-17.763c-23.047,8.884-43.932,32.172-48.255,56.417    c-2.639,13.684-1.199,28.57,5.763,39.853L-197.061-33.907L-197.061-33.907z"/>
		<path id="path2844" fill="#CE1126" d="M89.341-27.666c10.322-19.685,6.964-46.573-5.041-64.339    c-8.881-14.163-23.287-25.928-37.931-31.451c2.641,12.725,0.241,26.648-10.324,35.052c-3.359,2.161-6.48,4.562-10.322,5.281    c2.161,2.402,6.002,4.082,8.883,6.484c12.484-4.803,19.445-17.768,21.845-29.771c9.363,3.601,17.048,13.924,22.568,22.326    c8.642,14.647,10.322,34.09,3.841,49.936C84.78-31.747,86.703-28.868,89.341-27.666"/>
		<path id="path2846" fill="#CE1126" d="M-173.537-66.558c4.082-1.201,8.403-0.719,12.964-0.719c-2.16-2.883-6.48-4.802-9.602-7.441    c0.24-4.322,1.921-8.404,3.36-12.485c-3.36,1.682-6.962,4.32-10.323,6.962c-3.841-1.679-7.201-4.8-11.043-6.723l3.601,12.247    l-9.603,6.72c3.842,1.2,7.923,0.239,12.004,0.961c2.16,3.84,3.121,7.921,4.802,11.762L-173.537-66.558L-173.537-66.558z"/>
		<path id="path2848" fill="#CE1126" d="M71.817-67.518c2.641-0.242,5.761,0.24,8.161-0.481l-9.603-7.683l3.601-11.522    l-10.562,6.721l-10.804-7.202l3.841,12.003l-10.323,7.683l12.724,0.72l4.32,11.764C66.054-59.116,64.614-68.718,71.817-67.518"/>
		<path id="path2850" fill="#CE1126" d="M-83.269-95.365v-16.806c-2.641,5.761-4.323,12.964-4.082,19.444    C-85.67-92.726-81.828-92.005-83.269-95.365"/>
		<path id="path2852" fill="#CE1126" d="M-73.426-129.216l-5.043,6.001c0.481,11.284-0.72,20.887,0.721,30.489l4.322-0.239V-129.216    z"/>
		<path id="path2854" fill="#CE1126" d="M-63.584-92.965c0.239-14.887,0.239-30.25,0-45.133c-1.681,0.239-5.281,2.159-5.281,4.8    c0.48,14.405-0.481,27.607,0.48,40.572L-63.584-92.965L-63.584-92.965z"/>
		<path id="path2856" fill="#CE1126" d="M-54.222-140.739c-1.44-1.44-3.12-2.161-4.8-0.723c-0.482,16.089-0.721,32.893,0.239,48.735    h4.322L-54.222-140.739L-54.222-140.739z"/>
		<path id="path2858" fill="#CE1126" d="M-44.379-133.537c-1.2-1.44-2.882-3.84-4.802-4.082c0.482,13.683-1.198,32.166,0.245,44.892    l4.319-0.239L-44.379-133.537z"/>
		<path id="path2860" fill="#CE1126" d="M-35.257-122.013c-0.476-2.644-2.639-4.803-4.32-6.961l-0.48,0.958v35.051    c1.443,0.48,3.122,0.239,4.561,0.239L-35.257-122.013L-35.257-122.013z"/>
		<path id="path2862" fill="#CE1126" d="M-25.653-94.407c-0.959-6.001-1.439-12.246-4.079-17.524    c-0.241,6.722-0.961,12.965,0.239,19.204C-28.053-92.965-24.932-91.767-25.653-94.407"/>
		<path id="path2864" fill="#CE1126" d="M-129.603-146.742c7.923-3.84,17.526-2.4,24.247,3.12c2.402-0.958,4.562-2.88,6.724-4.559    c-6.002-7.203-15.126-10.564-24.969-10.087c-6.962,0.724-13.204,3.602-18.485,9.125c-0.721-9.844,2.881-19.207,8.162-27.131    c8.403-10.804,20.647-17.043,34.57-14.643c5.523,1.924,11.043,3.84,15.605,8.883c6.962-15.845,14.404-32.167,26.889-46.094    c12.482,13.443,20.166,29.29,26.406,45.614c7.202-6.002,15.365-10.563,25.45-8.879c10.802,1.199,20.644,7.441,26.646,17.281    c4.562,7.204,6.72,15.367,7.202,24.007h-1.441c-7.442-7.202-17.523-10.563-28.087-7.679c-5.281,1.68-10.323,4.559-14.642,8.642    c1.439,2.4,4.319,3.601,6.72,5.28c6.484-5.28,16.085-7.202,23.767-3.602c10.563,5.044,15.605,15.845,15.605,26.889    c10.324-16.326,9.601-41.052-0.481-57.376c-9.123-14.885-24.728-24.246-42.491-23.046c-4.802,0.716-9.363,1.918-13.684,4.078    c-4.322-6.241-7.922-13.923-12.243-20.883c-5.283-7.686-11.046-15.605-18.725-22.328c-13.444,12.242-22.807,27.846-30.49,43.451    c-14.404-7.442-34.089-4.079-46.093,6.243c-16.085,13.685-20.167,33.611-17.766,54.017c1.441,5.521,2.88,11.283,6.242,16.087    C-145.209-131.375-139.206-141.46-129.603-146.742"/>
		<path id="path2866" fill="#003F87" d="M-25.653-68.959l0.241-19.445c-19.686-0.48-41.532-0.239-62.179-0.239    c0,5.76-0.96,12.482-0.239,19.207c13.925,1.677,27.367,10.321,41.771,5.04C-39.096-65.835-32.374-67.518-25.653-68.959"/>
		<path id="path2868" fill="#003F87" d="M-40.057-16.142l-3.361-5.763c0.96-9.603,2.159-19.204,5.283-27.848    c0.959-1.681,3.36-1.441,4.802-0.481c14.882,12.964,28.808,30.49,49.452,30.731l72.261-0.241    c-0.719-2.881-3.119-5.522-5.761-6.722c-10.802-2.402-22.804-2.161-34.328-3.361l0.959-0.96l31.45-0.24    c-6.002-11.282-21.366-6.002-31.931-8.882l0.723-0.721l22.326-0.478c-6.722-12.966-23.769-6.482-35.53-9.844l0.959-0.481    l23.527-0.241c-7.441-12.963-24.246-6.721-36.25-9.841c7.441-1.2,15.604-0.24,23.287-0.961C39.889-72.8,25.243-68.478,14.2-71.598    l19.447-0.962c-7.686-9.361-20.41-7.442-31.45-9.841l14.162-0.482c-7.442-7.201-18.005-8.64-28.566-9.843l10.084-0.48    c-5.281-3.842-12.485-6.72-18.006-11.045l0.237-1.68l21.127-21.127c-4.083-6.961-11.521-13.443-18.486-17.284l-11.042,25.685    c7.685,15.128,6.723,33.614,6.723,51.858l-1.683,1.201l-32.889,7.202l-35.289-7.439c-0.481-17.767-2.163-37.214,5.761-51.859    l-11.043-26.168c-6.723,4.322-14.645,10.084-18.246,17.526c6.962,6.722,15.604,14.642,21.365,21.844l-0.96,1.683l-17.524,9.603    c3.121,1.201,6.242,0,9.843,0.72c-4.801,1.918-10.803,1.442-15.845,2.641c-4.322,1.92-8.402,4.322-12.484,6.961    c4.802,0.72,8.643-0.239,13.685,0.962c-10.804,1.919-23.047,0.719-30.969,9.603c5.761,0.48,13.684,0.72,20.406,0.958    c-11.043,3.123-25.929-1.44-34.571,8.883l0.961,0.721l21.366,0.24v0.48c-11.763,3.122-27.367-3.121-35.291,9.362l0.96,0.481    c8.164,0.241,15.845-0.481,23.528,0.482l-26.888,2.64c-3.603,1.201-6.243,4.562-8.643,6.963    c7.683,1.678,16.565,0.239,24.968,1.439c-11.284,2.881-26.89-2.16-34.09,8.883l33.609,0.719l-0.96,0.721l-31.209,2.401    c-3.601,0.72-7.683,3.361-9.123,7.202l0.96,0.48h73.942c20.646-0.96,32.651-18.965,48.734-31.448    c7.443-0.482,8.883,9.122,11.524,14.404c-2.882,1.439-6.723,2.401-7.924,5.761c4.803-0.48,12.005,0.961,14.405-4.56    c-0.959-5.523-3.121-10.804-4.8-16.086c7.201-0.718,13.683-1.2,21.126-0.481c-2.159,8.403-3.121,18.245-4.078,26.889    c-3.604,4.561-10.326,2.641-15.127,1.919l-0.481-0.718c1.199-0.72,2.641-1.92,4.321-1.201c0.48-1.681-1.92-2.642-3.122-3.36    c-4.801-0.961-9.841,0.96-13.922-1.682c0-1.441,0.24-2.641,0.959-3.602c-2.4-0.718-2.881,2.642-3.841,4.083    c-0.479,2.401,0.24,4.08,1.2,6.001c3.36,2.161,7.203,1.201,11.045,0.96c1.679,3.602,4.801,6.482,8.882,7.203    C-52.3-14.222-46.06-16.863-40.057-16.142"/>
		<path id="path2870" fill="#003F87" d="M-70.547-138.098l-7.201-18.485c-2.642-1.2-5.28,0.959-7.922,1.441l-3.361-4.563    c2.401-3.601,8.882,0.961,10.323-3.841c0.96-2.4,0-5.041-1.441-6.963c-0.72,0-0.959-1.2-1.919-0.719c0,1.2,0.96,2.642,0.239,3.844    l-1.921,0.958l-25.207-0.241c-2.161-1.202-0.479-3.602-0.241-5.28c-1.92,0-3.84,2.64-4.321,4.563    c-0.48,2.639,0.481,5.277,2.642,6.241c8.162-0.963,15.605,0.239,19.446,7.679c-0.241,2.161-3.602,1.441-3.602,4.085l11.283,27.126    C-79.427-127.057-76.548-133.537-70.547-138.098"/>
		<path id="path2872" fill="#003F87" d="M-18.69-149.622c-0.239-2.159-2.641-2.402-3.841-3.602    c3.12-8.643,12.722-8.402,20.885-8.883c1.68-1.677,1.68-4.8,0.721-6.963l-3.361-3.359c0,1.443,1.681,5.281-1.44,5.762l-25.45-0.24    c-2.158-0.962-0.718-3.362-0.48-4.802c-1.678-0.48-2.64,2.161-3.602,3.361c-0.476,2.402-0.476,6.002,2.643,6.722    c2.641,0.482,5.761-0.72,7.922,0.959c-0.482,1.922-2.4,3.123-3.361,4.8l-7.204-1.676c-3.357,5.762-5.759,12.241-7.922,18.724    c4.802,4.802,9.122,10.563,12.965,16.084L-18.69-149.622L-18.69-149.622z"/>
		<path id="path2874" fill="#003F87" d="M-56.382-146.742c3.602,0.961,6.721,3.362,10.082,5.28l5.041-13.443    c-9.841-2.878-21.126-1.919-30.967,0.24c0.72,4.323,2.64,9.602,5.041,13.686C-63.823-143.379-60.464-145.78-56.382-146.742"/>
		<path id="path2878" fill="#FFFFFF" d="M-82.084-70.181l1.109-2.257l2.482-0.362l-1.796-1.757l0.423-2.473l-2.218,1.17l-2.233-1.17    l0.425,2.473l-1.795,1.757l2.481,0.362L-82.084-70.181z"/>
		<path id="path2880" fill="none" stroke="#FFFFFF" stroke-width="0.638" d="M-82.084-70.181l1.109-2.257l2.482-0.362l-1.796-1.757    l0.423-2.473l-2.218,1.17l-2.233-1.17l0.425,2.473l-1.795,1.757l2.481,0.362L-82.084-70.181z"/>
		<path id="path2882" fill="#FFFFFF" d="M-73.146-68.467l1.11-2.249l2.493-0.364l-1.795-1.763l0.424-2.473l-2.232,1.178    l-2.218-1.178l0.423,2.473l-1.795,1.758l2.48,0.369L-73.146-68.467z"/>
		<path id="path2884" fill="none" stroke="#FFFFFF" stroke-width="0.638" d="M-73.146-68.467l1.11-2.249l2.493-0.364l-1.795-1.763    l0.424-2.473l-2.232,1.178l-2.218-1.178l0.423,2.473l-1.795,1.758l2.48,0.369L-73.146-68.467z"/>
		<path id="path2886" fill="#FFFFFF" d="M-64.707-66.864l1.11-2.251l2.48-0.361l-1.795-1.758l0.424-2.473l-2.219,1.17l-2.232-1.17    l0.423,2.473l-1.805,1.758l2.493,0.361L-64.707-66.864L-64.707-66.864z"/>
		<path id="path2888" fill="none" stroke="#FFFFFF" stroke-width="0.638" d="M-64.707-66.864l1.11-2.251l2.48-0.361l-1.795-1.758    l0.424-2.473l-2.219,1.17l-2.232-1.17l0.423,2.473l-1.805,1.758l2.493,0.361L-64.707-66.864L-64.707-66.864z"/>
		<path id="path2890" fill="#FFFFFF" d="M-56.804-65.364l1.123-2.251l2.48-0.367l-1.795-1.752l0.425-2.481l-2.234,1.172    l-2.218-1.172l0.424,2.481l-1.807,1.752l2.493,0.367L-56.804-65.364z"/>
		<path id="path2892" fill="none" stroke="#FFFFFF" stroke-width="0.638" d="M-56.804-65.364l1.123-2.251l2.48-0.367l-1.795-1.752    l0.425-2.481l-2.234,1.172l-2.218-1.172l0.424,2.481l-1.807,1.752l2.493,0.367L-56.804-65.364z"/>
		<path id="path2894" fill="#FFFFFF" d="M-48.364-66.566l1.108-2.257l2.482-0.36l-1.795-1.752l0.424-2.481l-2.22,1.166l-2.233-1.166    l0.424,2.481l-1.795,1.752l2.481,0.36L-48.364-66.566z"/>
		<path id="path2896" fill="none" stroke="#FFFFFF" stroke-width="0.638" d="M-48.364-66.566l1.108-2.257l2.482-0.36l-1.795-1.752    l0.424-2.481l-2.22,1.166l-2.233-1.166l0.424,2.481l-1.795,1.752l2.481,0.36L-48.364-66.566z"/>
		<path id="path2898" fill="#FFFFFF" d="M-39.538-68.98l1.109-2.255l2.494-0.355l-1.807-1.758l0.435-2.481l-2.23,1.171l-2.22-1.171    l0.425,2.481l-1.808,1.758l2.494,0.355L-39.538-68.98L-39.538-68.98z"/>
		<path id="path2900" fill="none" stroke="#FFFFFF" stroke-width="0.638" d="M-39.538-68.98l1.109-2.255l2.494-0.355l-1.807-1.758    l0.435-2.481l-2.23,1.171l-2.22-1.171l0.425,2.481l-1.808,1.758l2.494,0.355L-39.538-68.98L-39.538-68.98z"/>
		<path id="path2902" fill="#FFFFFF" d="M-31.399-70.872l1.123-2.257l2.481-0.361l-1.797-1.756l0.425-2.477l-2.233,1.172    l-2.217-1.172l0.422,2.477l-1.807,1.756l2.493,0.361L-31.399-70.872z"/>
		<path id="path2904" fill="none" stroke="#FFFFFF" stroke-width="0.638" d="M-31.399-70.872l1.123-2.257l2.481-0.361l-1.797-1.756    l0.425-2.477l-2.233,1.172l-2.217-1.172l0.422,2.477l-1.807,1.756l2.493,0.361L-31.399-70.872z"/>
		<path id="path2906" fill="#FFFFFF" d="M-81.972-79.705l1.109-2.256l2.493-0.362l-1.807-1.756l0.424-2.476l-2.219,1.172    l-2.232-1.172l0.425,2.476l-1.795,1.756l2.479,0.362L-81.972-79.705z"/>
		<path id="path2908" fill="none" stroke="#FFFFFF" stroke-width="0.638" d="M-81.972-79.705l1.109-2.256l2.493-0.362l-1.807-1.756    l0.424-2.476l-2.219,1.172l-2.232-1.172l0.425,2.476l-1.795,1.756l2.479,0.362L-81.972-79.705z"/>
		<path id="path2910" fill="#FFFFFF" d="M-72.061-79.818l1.123-2.25l2.492-0.369l-1.807-1.75l0.423-2.481l-2.231,1.179l-2.219-1.179    l0.424,2.481l-1.795,1.75l2.48,0.369L-72.061-79.818z"/>
		<path id="path2912" fill="none" stroke="#FFFFFF" stroke-width="0.638" d="M-72.061-79.818l1.123-2.25l2.492-0.369l-1.807-1.75    l0.423-2.481l-2.231,1.179l-2.219-1.179l0.424,2.481l-1.795,1.75l2.48,0.369L-72.061-79.818z"/>
		<path id="path2914" fill="#FFFFFF" d="M-61.703-79.599l1.109-2.255l2.481-0.363l-1.794-1.757l0.424-2.474l-2.22,1.172    l-2.231-1.178l0.422,2.48l-1.794,1.757l2.481,0.363L-61.703-79.599z"/>
		<path id="path2916" fill="none" stroke="#FFFFFF" stroke-width="0.638" d="M-61.703-79.599l1.109-2.255l2.481-0.363l-1.794-1.757    l0.424-2.474l-2.22,1.172l-2.231-1.178l0.422,2.48l-1.794,1.757l2.481,0.363L-61.703-79.599z"/>
		<path id="path2918" fill="#FFFFFF" d="M-51.979-79.818l1.11-2.25l2.494-0.369l-1.808-1.75l0.422-2.481l-2.218,1.179l-2.232-1.179    l0.424,2.481l-1.795,1.75l2.481,0.369L-51.979-79.818L-51.979-79.818z"/>
		<path id="path2920" fill="none" stroke="#FFFFFF" stroke-width="0.638" d="M-51.979-79.818l1.11-2.25l2.494-0.369l-1.808-1.75    l0.422-2.481l-2.218,1.179l-2.232-1.179l0.424,2.481l-1.795,1.75l2.481,0.369L-51.979-79.818L-51.979-79.818z"/>
		<path id="path2922" fill="#FFFFFF" d="M-42.045-79.998l1.123-2.261l2.481-0.362l-1.797-1.752l0.424-2.487l-2.232,1.179    l-2.219-1.179l0.424,2.487l-1.805,1.752l2.493,0.362L-42.045-79.998L-42.045-79.998z"/>
		<path id="path2924" fill="none" stroke="#FFFFFF" stroke-width="0.638" d="M-42.045-79.998l1.123-2.261l2.481-0.362l-1.797-1.752    l0.424-2.487l-2.232,1.179l-2.219-1.179l0.424,2.487l-1.805,1.752l2.493,0.362L-42.045-79.998L-42.045-79.998z"/>
		<path id="path2926" fill="#FFFFFF" d="M-31.51-80.215l1.108-2.257l2.494-0.362l-1.796-1.75l0.425-2.488L-31.51-85.9l-2.219-1.172    l0.423,2.488l-1.806,1.75l2.493,0.362L-31.51-80.215L-31.51-80.215z"/>
		<path id="path2928" fill="none" stroke="#FFFFFF" stroke-width="0.638" d="M-31.51-80.215l1.108-2.257l2.494-0.362l-1.796-1.75    l0.425-2.488L-31.51-85.9l-2.219-1.172l0.423,2.488l-1.806,1.75l2.493,0.362L-31.51-80.215L-31.51-80.215z"/>
	</g>
</g>
</svg>