<?xml version="1.0" encoding="utf-8"?>
<!-- Generator: Adobe Illustrator 15.1.0, SVG Export Plug-In . SVG Version: 6.00 Build 0)  -->
<!DOCTYPE svg PUBLIC "-//W3C//DTD SVG 1.1//EN" "http://www.w3.org/Graphics/SVG/1.1/DTD/svg11.dtd">
<svg version="1.1" id="LOGOS" xmlns="http://www.w3.org/2000/svg" xmlns:xlink="http://www.w3.org/1999/xlink" x="0px" y="0px"
	 width="432px" height="279.706px" viewBox="0 0 432 279.706" enable-background="new 0 0 432 279.706" xml:space="preserve">
<g>
	<path fill="#FFFFFF" d="M266.046,60.807c5.171,0.68,22.936,4.136,28.906,6.493l-59.706,72.185l-67.7-78.825
		c5.391-1.393,20.807-2.958,27.762-3.351c-0.564-5.712-3.657-34.475-3.657-34.475c-37.22,1.271-98.857,17.31-136.277,50.23
		c2.658,3.187,16.231,20.71,20.833,26.153c5.764-5.54,18.721-14.324,23.004-16.289l83.554,94.757c0,0-0.145,40.574-0.073,42.576
		c-6.413-0.563-24.361-3.182-28.771-4.563c-0.837,5.135-5.673,28.635-6.512,32.707c50.911,12.187,106.298,8.433,141.92-1.102
		c-3.604-15.809-6.94-25.655-8.143-32.011c-6.973,1.559-26.421,4.605-30.227,4.888l0.053-42.46l79.326-96.662
		c0,0,16.601,8.897,25.362,17.699c4.13-5.155,13.011-17.858,19.446-26.126C345.49,48.739,308.663,33.47,270.069,27.007
		C269.513,35.481,266.727,54.965,266.046,60.807z"/>
	<g>
		<path fill="#002255" d="M216,0.432C97.079,0.432,0.669,62.855,0.669,139.853c0,77,96.41,139.42,215.331,139.42
			c118.929,0,215.336-62.42,215.336-139.42C431.336,62.855,334.929,0.432,216,0.432z M355.7,98.76
			c-8.762-8.802-25.362-17.699-25.362-17.699l-79.326,96.662l-0.053,42.46c3.806-0.282,23.254-3.329,30.227-4.888
			c1.202,6.355,4.539,16.202,8.143,32.011c-35.622,9.534-91.009,13.288-141.92,1.102c0.839-4.072,5.675-27.572,6.512-32.707
			c4.41,1.381,22.358,3.999,28.771,4.563c-0.072-2.002,0.073-42.576,0.073-42.576L99.21,82.93
			c-4.283,1.965-17.24,10.749-23.004,16.289c-4.602-5.443-18.175-22.966-20.833-26.153c37.42-32.921,99.058-48.959,136.277-50.23
			c0,0,3.092,28.763,3.657,34.475c-6.955,0.393-22.371,1.958-27.762,3.351l67.7,78.825L294.952,67.3
			c-5.971-2.357-23.735-5.813-28.906-6.493c0.681-5.842,3.467-25.326,4.023-33.8c38.594,6.462,75.421,21.732,105.077,45.626
			C368.711,80.902,359.83,93.605,355.7,98.76z"/>
	</g>
</g>
</svg>