<?xml version="1.0" encoding="UTF-8"?>
<!-- Generator: Adobe Illustrator 12.0.1, SVG Export Plug-In . SVG Version: 6.00 Build 51448)  -->
<!DOCTYPE svg PUBLIC "-//W3C//DTD SVG 1.1//EN" "http://www.w3.org/Graphics/SVG/1.1/DTD/svg11.dtd" [
	<!ENTITY ns_svg "http://www.w3.org/2000/svg">
	<!ENTITY ns_xlink "http://www.w3.org/1999/xlink">
]>
<svg version="1.1" id="Layer_1" xmlns="http://www.w3.org/2000/svg" xmlns:xlink="http://www.w3.org/1999/xlink" width="167.257" height="167.262" viewBox="0 0 167.257 167.262" overflow="visible" enable-background="new 0 0 167.257 167.262" xml:space="preserve">
<path fill="#FFFFFF" stroke="#C5AF7D" stroke-linecap="round" stroke-linejoin="round" d="M83.63,0.5  C37.72,0.5,0.5,37.72,0.5,83.631c0,45.906,37.22,83.131,83.13,83.131s83.126-37.225,83.126-83.131  C166.757,37.72,129.541,0.5,83.63,0.5z"/>
<path fill="#002255" d="M87.085,4.47C43.383,2.563,6.399,36.443,4.492,80.153c-1.903,43.702,31.978,80.683,75.681,82.583  c43.705,1.912,80.685-31.973,82.592-75.674C164.672,43.357,130.791,6.378,87.085,4.47z"/>
<path fill="#FFFFFF" d="M83.63,29.57c-29.838,0-54.034,24.188-54.034,54.037c0,29.84,24.195,54.029,54.034,54.029  c29.845,0,54.034-24.189,54.034-54.029C137.664,53.759,113.476,29.57,83.63,29.57z"/>
<path fill="none" stroke="#C5AF7D" stroke-linecap="round" stroke-linejoin="round" d="M83.63,33.14  c-27.861,0-50.451,22.59-50.451,50.45c0,27.865,22.59,50.455,50.451,50.455s50.45-22.59,50.45-50.455  C134.08,55.729,111.491,33.14,83.63,33.14z"/>
<g>
	<path fill="#002255" d="M73.912,121.996c-0.504,0-1.308,0-1.668,0.048c-0.072,0.024-0.036-0.228,0-0.228   c0.744-0.084,1.068-0.108,1.068-1.104v-3.023c0-0.996-0.324-1.032-1.068-1.116c-0.036,0-0.072-0.24,0-0.216   c0.36,0.048,1.164,0.048,1.668,0.048c0.36,0,1.152-0.013,1.404-0.048c0.072-0.024,0.06,0.216,0.024,0.216   c-0.78,0.072-1.056,0.18-1.056,1.116v3.023c0,0.937,0.276,1.032,1.056,1.104c0.036,0,0.048,0.252-0.024,0.228   C75.064,122.008,74.272,121.996,73.912,121.996z"/>
	<path fill="#002255" d="M77.644,120.196c0-0.889,0.684-1.656,1.836-2.136c-0.768-0.492-1.416-1.032-1.416-1.933   c0-1.26,1.02-2.136,2.316-2.136c1.08,0,1.968,0.768,1.968,1.752c0,0.84-0.504,1.404-1.488,1.932   c0.852,0.528,1.656,1.128,1.656,2.185c0,1.296-1.044,2.315-2.544,2.315C78.724,122.176,77.644,121.36,77.644,120.196z    M78.568,120.196c0,1.08,0.816,1.607,1.548,1.607c0.996,0,1.572-0.624,1.572-1.428c0-1.032-0.924-1.548-1.824-2.088   C79.012,118.708,78.568,119.272,78.568,120.196z M78.928,115.6c0,0.876,0.756,1.368,1.572,1.86c0.636-0.396,0.996-0.96,0.996-1.656   c0-0.852-0.564-1.452-1.332-1.452C79.42,114.352,78.928,114.856,78.928,115.6z"/>
	<path fill="#002255" d="M85.504,123.82c1.416-2.364,2.76-4.813,3.684-6.492h-2.46c-1.14,0-1.332,0.192-1.38,0.924   c0,0.024-0.216,0.024-0.216-0.012c-0.024-0.288,0.071-1.5,0.12-1.681c0.035-0.132,0.084-0.191,0.228-0.191   c0.384,0,1.164,0.036,1.932,0.036c1.044,0,1.645-0.013,2.4-0.061c0.048,0,0.192,0.252,0.156,0.313   c-1.092,1.992-2.76,5.16-3.912,7.392C85.995,124.156,85.432,123.928,85.504,123.82z"/>
	<path fill="#002255" d="M93.159,117.064c-0.348,0-0.612,0.432-0.612,0.852c0,0.372,0.12,0.576,1.585,1.272   c1.067,0.504,1.535,1.235,1.535,2.052c0,1.296-1.199,2.388-3.491,2.832c-0.072,0.012-0.097-0.216-0.072-0.216   c1.271-0.324,2.592-1.08,2.592-2.305c0-0.672-0.288-1.115-1.344-1.596c-0.876-0.396-1.332-0.744-1.332-1.416   c0-0.3,0.144-0.852,0.264-1.152c0.372-0.888,0.72-1.235,1.176-1.235c0.385,0,0.912,0.323,1.536,0.323   c0.288,0,0.396-0.168,0.504-0.647c0-0.024,0.217-0.036,0.217,0.023c-0.024,1.177-0.36,1.572-0.912,1.572   C94.18,117.424,93.724,117.064,93.159,117.064z"/>
</g>
<g>
	<path fill="#FFFFFF" d="M27.807,115.788l-0.845,3.154l-3.154-0.846l0.845-3.154L27.807,115.788z"/>
	<path fill="#FFFFFF" d="M25.073,103.987c0.251,0.777,0.537,1.664,0.79,2.201c0.076,0.175-0.32,0.183-0.338,0.129   c-0.512-1.153-0.787-1.264-2.505-0.71l-4.087,1.319c-1.718,0.554-1.876,0.805-1.636,2.045c0.018,0.055-0.333,0.268-0.355,0.075   c-0.085-0.572-0.295-1.223-0.552-2.019c-0.105-0.326-0.445-1.194-0.591-1.646c-0.496-1.537-0.228-3.181,1.128-3.618   c0.76-0.245,1.825,0.21,2.465,1.142c-0.411-1.585,0.148-2.884,1.324-3.263c1.519-0.49,3.191,0.548,3.856,2.609   C24.719,102.704,24.962,103.644,25.073,103.987z M19.862,104.67c-0.531-1.646-1.226-1.881-2.202-1.565   c-1.338,0.432-1.599,1.295-1.226,2.452c0.058,0.181,0.101,0.187,0.165,0.386c0.445-0.044,0.867-0.16,1.861-0.48l4.141-1.336   c1.465-0.473,1.784-0.536,1.457-1.549c-0.484-1.501-1.261-1.989-2.526-1.581c-1.32,0.427-2.071,1.688-1.254,3.54   C20.296,104.59,19.88,104.725,19.862,104.67z"/>
	<path fill="#FFFFFF" d="M18.451,94.073c0.042,0.282,0.056,0.376,0.063,0.548l1.579-0.234c1.691-0.252,2.01-0.434,1.933-1.729   c-0.008-0.056,0.38-0.152,0.36-0.034c0.008,0.44,0.131,1.402,0.221,2.004c0.123,0.827,0.26,1.748,0.425,2.338   c0.054,0.107-0.349,0.109-0.357,0.053c-0.313-1.202-0.572-1.394-2.357-1.128l-4.248,0.631c-1.635,0.243-1.948,0.598-1.85,1.255   c0.022,0.15,0.066,0.316,0.135,0.518c0.049,0.07-0.294,0.217-0.33,0.107c-0.277-0.574-0.601-2.235-0.83-3.776   c-0.377-2.537,0.229-4.011,1.733-4.234c0.939-0.14,1.961,0.4,2.596,1.439c1.806-1.037,4.134-3.208,3.891-4.844   c-0.008-0.057,0.34-0.166,0.357-0.053c0.458,3.082-1.462,5.154-3.587,6.104C18.289,93.368,18.409,93.792,18.451,94.073z    M13.873,95.196c0.274,0.036,0.825-0.008,1.84-0.158l2.255-0.336c-0.025-0.169-0.023-0.284-0.059-0.528   c-0.277-1.861-1.1-2.488-2.378-2.298c-1.579,0.234-2.009,1.221-1.766,2.855C13.796,94.938,13.824,94.992,13.873,95.196z"/>
	<path fill="#FFFFFF" d="M21.654,83.769c0.005,0.854,0.01,1.767,0.089,2.374c0.039,0.152-0.361,0.06-0.361,0.021   c-0.14-1.254-0.388-1.442-2.174-1.433l-4.294,0.024c-1.805,0.01-2.051,0.201-2.177,1.456c0,0.038-0.379,0.116-0.361-0.035   c0.092-0.59,0.086-1.502,0.082-2.357c-0.003-0.57-0.046-1.558-0.106-1.994c-0.02-0.152,0.361-0.078,0.361-0.04   c0.103,1.311,0.502,1.441,2.193,1.432l4.294-0.024c1.691-0.01,2.052-0.145,2.158-1.456c0-0.038,0.379-0.116,0.361,0.036   C21.665,82.21,21.651,83.198,21.654,83.769z"/>
	<path fill="#FFFFFF" d="M22.083,70.515c0.485,1.334,0.726,2.5,0.528,3.911c-0.454,3.256-2.916,4.946-5.362,4.604   c-2.578-0.36-4.731-2.943-4.279-6.18c0.186-1.336,1.031-2.715,1.291-2.928c0.11-0.1,1.333-0.063,2.207,0.135   c0.094,0.013,0.006,0.365-0.031,0.36c-1.121-0.08-2.663,0.933-2.933,2.872c-0.294,2.108,0.899,3.732,3.439,4.087   c3.068,0.428,4.807-1.171,5.09-3.204c0.205-1.468-0.122-1.744-0.318-1.848c-0.143-0.078-0.57-0.176-0.89-0.22   c-1.807-0.252-1.89-0.206-2.213,1.284c-0.008,0.056-0.392,0.06-0.357-0.05c0.14-0.595,0.325-1.643,0.44-2.471   c0.082-0.583,0.181-1.433,0.185-1.874c-0.022-0.118,0.349-0.028,0.341,0.028c-0.066,1.295,0.104,1.319,1.892,1.569   C21.527,70.649,21.85,70.675,22.083,70.515z"/>
	<path fill="#FFFFFF" d="M25.584,61.97c-0.013,0.096-0.359-0.065-0.341-0.119c0.237-1.084,0.055-1.369-1.614-1.951l-1.83-0.638   l-1.677,4.809l1.83,0.638c1.579,0.551,2.006,0.539,2.471-0.507c0.019-0.054,0.408,0.042,0.334,0.137   c-0.204,0.412-0.497,1.195-0.697,1.769c-0.269,0.771-0.62,1.776-0.748,2.375c-0.001,0.12-0.359-0.065-0.341-0.119   c0.314-1.42,0.179-1.608-1.526-2.203l-4.055-1.414c-1.705-0.594-1.963-0.544-2.583,0.77c-0.019,0.054-0.408-0.042-0.334-0.137   c0.284-0.525,0.634-1.529,0.903-2.301c0.2-0.574,0.439-1.376,0.536-1.826c0.002-0.12,0.366,0.047,0.347,0.101   c-0.286,1.107,0.042,1.382,1.638,1.939l1.705,0.594l1.676-4.809l-1.705-0.594c-1.687-0.588-2.024-0.484-2.495,0.519   c-0.019,0.054-0.408-0.042-0.359-0.125c0.284-0.525,0.57-1.291,0.839-2.062c0.207-0.592,0.534-1.645,0.624-2.077   c0.001-0.12,0.378,0.011,0.347,0.101c-0.38,1.437-0.064,1.627,1.55,2.19l4.055,1.414c1.615,0.563,1.945,0.598,2.558-0.758   c0.031-0.089,0.408,0.042,0.335,0.137c-0.198,0.394-0.579,1.429-0.785,2.021C25.975,60.617,25.712,61.371,25.584,61.97z"/>
	<path fill="#FFFFFF" d="M30.544,51.677c-0.024,0.118-0.341-0.132-0.312-0.182c0.259-0.597,0.542-0.894,0.213-1.085   c-0.377-0.22-1.044-0.321-1.792-0.471l-1.042-0.211l-1.548,2.661l0.651,0.884c0.542,0.732,0.913,1.19,1.241,1.381   c0.279,0.163,0.461-0.149,0.815-0.646c0.048-0.082,0.393,0.118,0.303,0.198c-0.269,0.349-0.582,0.849-0.887,1.375   c-0.411,0.706-0.478,0.821-0.727,1.401c-0.041,0.108-0.341-0.132-0.312-0.181c0.412-0.86,0.217-1.544-0.8-2.971l-4.377-6.194   c-0.063-0.081,0.016-0.254,0.134-0.23l7.338,1.102c1.459,0.211,2.201,0.335,2.987-0.79c0.029-0.049,0.393,0.118,0.303,0.198   c-0.279,0.366-0.706,1.063-1.021,1.604C31.3,50.226,30.784,51.113,30.544,51.677z M25.685,51.906l1.328-2.283l-3.352-0.586   L25.685,51.906z"/>
	<path fill="#FFFFFF" d="M38.747,40.856c-0.047,0.111-0.32-0.183-0.282-0.226c0.647-0.899,0.575-1.218-0.772-2.391l-3.784-3.265   l3.445,7.39c0.046,0.091-0.107,0.235-0.189,0.213l-7.841-2.221l3.569,3.278c1.137,1.037,1.596,1.293,2.541,0.403   c0.038-0.042,0.361,0.194,0.257,0.254c-0.333,0.289-0.688,0.659-1.092,1.113c-0.543,0.61-0.948,1.065-1.295,1.57   c-0.047,0.11-0.308-0.198-0.27-0.24c0.734-1.025,0.563-1.433-0.633-2.547l-3.67-3.393c-0.484-0.456-1.438-0.441-2.244,0.292   c-0.038,0.042-0.36-0.167-0.256-0.227c0.564-0.491,1.221-1.229,2.117-2.237l7.605,2.087l-2.111-4.345   c-0.458-0.942-0.835-1.862-1.277-2.51c0.674-0.672,1.619-1.79,2.002-2.364c0.047-0.11,0.306,0.17,0.281,0.199   c-0.898,1.209-0.706,1.508,0.597,2.616l3.259,2.798c1.303,1.108,1.646,1.237,2.705,0.219c0.038-0.042,0.361,0.194,0.257,0.254   c-0.346,0.303-1.08,1.099-1.484,1.554C39.612,39.77,39.095,40.352,38.747,40.856z"/>
	<path fill="#FFFFFF" d="M48.525,26.894l1.178,1.84c1.085,1.697,1.234,1.647,2.384,1.046c0.048-0.03,0.295,0.285,0.179,0.314   c-0.415,0.198-1.226,0.694-1.738,1.021c-0.72,0.461-1.489,0.953-1.96,1.344c-0.075,0.093-0.242-0.273-0.194-0.304   c0.958-0.793,1.169-0.816,0.033-2.593l-1.055-1.648l-2.137-0.979c-2.273-1.05-2.725-1.122-3.795-0.572   c-0.048,0.031-0.311-0.275-0.194-0.304c0.553-0.264,1.177-0.663,1.881-1.114c0.512-0.328,1.287-0.845,1.624-1.129   c0.075-0.093,0.258,0.263,0.21,0.294c-0.989,0.746-0.597,0.9,1.609,1.88l1.391,0.622l0.1-1.958c0.124-2.38-0.003-2.367-1.051-1.854   c-0.048,0.031-0.327-0.264-0.179-0.314c0.537-0.253,1.049-0.582,1.753-1.032c0.512-0.328,0.822-0.549,1.16-0.832   c0.076-0.094,0.259,0.263,0.21,0.294c-0.989,0.746-1.134,1.154-1.261,3.423L48.525,26.894z"/>
	<path fill="#FFFFFF" d="M53.817,23.908c-0.98-2.412,0.235-5.531,3.122-6.704c2.711-1.102,5.622,0.157,6.559,2.463   c0.973,2.394-0.224,5.506-3.129,6.686C57.676,27.447,54.754,26.214,53.817,23.908z M55.067,22.744   c1.173,2.887,3.629,3.632,5.39,2.917c1.884-0.765,2.785-2.485,1.826-4.844c-1.173-2.887-3.661-3.661-5.421-2.945   C54.978,18.637,54.102,20.367,55.067,22.744z"/>
	<path fill="#FFFFFF" d="M75.242,18.625c0.37,1.902-0.754,3.786-3.254,4.271c-2.164,0.421-4.275-0.582-4.71-2.82l-0.639-3.283   c-0.345-1.772-0.597-1.975-1.838-1.888c-0.056,0.011-0.166-0.354-0.046-0.339c0.596-0.019,1.488-0.212,2.327-0.375   c0.597-0.116,1.526-0.316,1.963-0.459c0.104-0.059,0.177,0.314,0.084,0.332c-1.247,0.358-1.286,0.753-0.96,2.432l0.577,2.966   c0.424,2.182,2.03,2.876,3.467,2.597c1.884-0.367,2.676-1.566,2.303-3.487l-0.646-3.32c-0.312-1.604-0.572-1.844-1.813-1.757   c-0.097,0-0.166-0.355-0.047-0.339c0.597-0.02,1.022-0.122,1.843-0.281c0.578-0.112,1.19-0.25,1.608-0.39   c0.146-0.047,0.14,0.321,0.103,0.329c-1.265,0.362-1.297,0.794-1.003,2.305L75.242,18.625z"/>
	<path fill="#FFFFFF" d="M88.498,19.084c-0.005,0.703,0.004,1.995,0.075,2.604c0,0.057-0.229,0.131-0.342,0.016l-7.033-7.255   l-0.035,4.579c-0.011,1.52,0.118,2.053,1.428,2.177c0.038,0,0.073,0.399-0.041,0.361c-0.437-0.061-0.95-0.083-1.539-0.088   c-0.836-0.006-1.444-0.011-2.053,0.061c-0.095,0.018-0.054-0.362,0.002-0.361c1.255-0.124,1.448-0.54,1.461-2.155l0.037-4.883   c0.005-0.646-1.186-1.529-1.831-1.61c-0.057,0-0.092-0.399,0.021-0.361c0.588,0.1,1.69,0.127,2.507,0.133l6.58,6.91l0.033-4.427   c0.013-1.634-0.175-2.054-1.408-2.196c-0.095-0.02-0.092-0.399,0.021-0.361c0.569,0.1,1.044,0.103,1.881,0.109   c0.607,0.005,1.254-0.028,1.672-0.082c0.19-0.018,0.093,0.361,0.055,0.361c-1.331,0.085-1.449,0.654-1.461,2.174L88.498,19.084z"/>
	<path fill="#FFFFFF" d="M100.254,22.764c-1.359,0.409-2.536,0.583-3.935,0.306c-3.225-0.639-4.771-3.192-4.292-5.615   c0.506-2.553,3.207-4.556,6.413-3.921c1.323,0.262,2.651,1.184,2.85,1.456c0.094,0.115-0.012,1.334-0.26,2.195   c-0.019,0.093-0.365-0.014-0.358-0.052c0.144-1.114-0.78-2.711-2.7-3.091c-2.088-0.414-3.777,0.686-4.275,3.202   c-0.602,3.039,0.896,4.865,2.909,5.264c1.454,0.288,1.748-0.022,1.863-0.212c0.085-0.138,0.207-0.56,0.271-0.876   c0.354-1.79,0.313-1.875-1.156-2.282c-0.056-0.011-0.038-0.395,0.07-0.354c0.585,0.174,1.621,0.418,2.441,0.581   c0.578,0.114,1.421,0.262,1.86,0.291c0.119-0.015,0.008,0.351-0.048,0.339c-1.289-0.139-1.322,0.029-1.674,1.799   C100.152,22.202,100.108,22.522,100.254,22.764z"/>
	<path fill="#FFFFFF" d="M116.384,26.795c-0.86,1.737-2.896,2.553-5.178,1.423c-1.976-0.978-3.047-3.055-2.035-5.099l1.483-2.997   c0.801-1.618,0.723-1.932-0.317-2.616c-0.051-0.025,0.084-0.382,0.169-0.298c0.486,0.346,1.312,0.734,2.078,1.113   c0.545,0.27,1.405,0.674,1.839,0.825c0.119,0.016-0.05,0.357-0.135,0.315c-1.208-0.471-1.479-0.181-2.237,1.352l-1.341,2.708   c-0.985,1.993-0.13,3.519,1.182,4.167c1.721,0.851,3.078,0.378,3.946-1.376l1.5-3.031c0.725-1.465,0.664-1.813-0.376-2.497   c-0.076-0.06,0.084-0.383,0.169-0.298c0.485,0.346,0.886,0.523,1.635,0.894c0.528,0.261,1.099,0.522,1.516,0.665   c0.145,0.05-0.083,0.34-0.117,0.323c-1.226-0.479-1.514-0.155-2.196,1.225L116.384,26.795z"/>
	<path fill="#FFFFFF" d="M126.646,35.207c-0.432,0.555-1.209,1.588-1.521,2.115c-0.035,0.045-0.262-0.035-0.282-0.195l-1.183-10.035   l-2.808,3.618c-0.933,1.201-1.153,1.703-0.188,2.596c0.029,0.023-0.185,0.362-0.252,0.262c-0.31-0.313-0.704-0.643-1.169-1.004   c-0.66-0.513-1.141-0.885-1.668-1.198c-0.087-0.043,0.177-0.32,0.222-0.285c1.072,0.664,1.479,0.45,2.469-0.826l2.994-3.858   c0.396-0.51-0.013-1.935-0.477-2.391c-0.045-0.035,0.169-0.374,0.236-0.274c0.407,0.437,1.266,1.127,1.911,1.628l1.032,9.485   l2.715-3.498c1.002-1.291,1.108-1.738,0.214-2.6c-0.063-0.073,0.17-0.374,0.236-0.273c0.393,0.425,0.768,0.716,1.429,1.229   c0.479,0.373,1.014,0.739,1.379,0.95c0.161,0.102-0.146,0.344-0.177,0.32c-1.108-0.741-1.549-0.36-2.48,0.841L126.646,35.207z"/>
	<path fill="#FFFFFF" d="M129.184,41.31c-0.584-0.625-1.207-1.291-1.678-1.683c-0.132-0.085,0.225-0.288,0.251-0.261   c0.954,0.825,1.264,0.795,2.568-0.425l3.137-2.933c1.318-1.233,1.369-1.541,0.609-2.547c-0.025-0.027,0.2-0.343,0.29-0.219   c0.333,0.495,0.956,1.162,1.54,1.786c0.389,0.416,1.092,1.112,1.432,1.392c0.118,0.098-0.212,0.302-0.237,0.274   c-0.965-0.893-1.348-0.717-2.583,0.438l-3.136,2.933c-1.235,1.155-1.408,1.499-0.596,2.534c0.025,0.028-0.2,0.343-0.29,0.219   C130.234,42.461,129.573,41.727,129.184,41.31z"/>
	<path fill="#FFFFFF" d="M134.759,48.537c-0.058,0.017-0.219-0.148-0.158-0.261l3.929-6.395c0.889-1.452,1.091-2.125,0.518-3.115   c-0.033-0.047,0.262-0.322,0.296-0.207c0.214,0.407,0.671,1.13,1.008,1.614c0.478,0.686,1.075,1.543,1.479,1.957   c0.097,0.072-0.216,0.289-0.285,0.222c-0.421-0.471-0.658-0.746-0.97-0.529c-0.219,0.152-0.581,0.497-1.102,1.346l-2.668,4.381   l5.024-0.998c1.134-0.233,1.385-0.339,1.666-0.534c0.265-0.185,0.185-0.5-0.127-1.046c-0.032-0.047,0.263-0.322,0.296-0.207   c0.203,0.391,0.509,0.896,0.856,1.396c0.488,0.702,0.564,0.811,0.979,1.24c0.097,0.072-0.252,0.269-0.285,0.222   c-0.588-0.679-1.24-0.85-3.036-0.502L134.759,48.537z"/>
	<path fill="#FFFFFF" d="M140.979,59.56c-0.23-0.479-0.549-1.317-1.01-2.276c-0.625-1.302-1.374-2.86-1.903-3.787   c-0.05-0.103,0.301-0.208,0.325-0.156c0.779,1.228,1.009,1.265,2.636,0.483l3.871-1.859c1.627-0.782,1.774-1,1.286-2.368   c-0.024-0.052,0.311-0.276,0.343-0.165c0.375,1,1.082,2.516,1.707,3.817c0.444,0.925,0.907,1.799,1.354,2.554   c-0.314,0.046-0.675,0.219-0.932,0.342c-0.137,0.066-0.521,0.23-0.6,0.288c-0.034,0.017-0.207-0.301-0.173-0.317   c0.516-0.374,0.691-0.711-0.107-2.373l-0.534-1.113c-0.316,0.088-0.804,0.302-1.609,0.688l-1.575,0.757l0.411,0.856   c0.691,1.438,0.774,1.525,1.389,1.399c0.034-0.017,0.208,0.301,0.114,0.325c-0.214,0.039-0.753,0.277-1.044,0.417   c-0.154,0.074-0.616,0.296-0.736,0.354c-0.001,0.042-0.19-0.309-0.174-0.317c0.61-0.441,0.612-0.568-0.046-1.938l-0.411-0.856   l-1.695,0.814c-1.645,0.79-1.758,0.95-1.478,1.532l0.32,0.668c0.946,1.97,1.245,1.89,2.175,1.675   c0.018-0.008,0.182,0.334,0.131,0.359c-0.351,0.105-1.256,0.371-1.554,0.409C141.179,59.844,141.086,59.783,140.979,59.56z"/>
	<path fill="#FFFFFF" d="M146.917,64.123c-0.081-0.273-0.108-0.364-0.139-0.534l-1.53,0.453c-1.64,0.485-1.931,0.709-1.673,1.981   c0.016,0.055-0.355,0.204-0.352,0.084c-0.069-0.435-0.326-1.37-0.499-1.953c-0.236-0.802-0.501-1.695-0.746-2.256   c-0.068-0.099,0.33-0.157,0.347-0.103c0.478,1.147,0.761,1.301,2.492,0.789l4.117-1.218c1.586-0.469,1.846-0.863,1.657-1.5   c-0.043-0.146-0.11-0.305-0.206-0.494c-0.058-0.062,0.262-0.256,0.313-0.152c0.354,0.529,0.907,2.129,1.349,3.624   c0.728,2.46,0.332,4.003-1.126,4.435c-0.911,0.27-1.998-0.123-2.771-1.063c-1.643,1.278-3.646,3.753-3.177,5.338   c0.017,0.055-0.313,0.211-0.346,0.102c-0.884-2.988,0.729-5.308,2.701-6.545C147.176,64.799,146.997,64.396,146.917,64.123z    M151.293,62.373c-0.276,0.002-0.815,0.123-1.8,0.414l-2.187,0.646c0.049,0.164,0.063,0.279,0.133,0.516   c0.534,1.804,1.437,2.31,2.676,1.943c1.53-0.453,1.818-1.489,1.35-3.074C151.405,62.617,151.371,62.568,151.293,62.373z"/>
	<path fill="#FFFFFF" d="M145.578,72.143c0.046-0.083,1.107-0.173,2.113-0.255c0.094-0.013,0.104,0.331,0.065,0.336   c-1.414,0.312-2.438,1.222-2.234,2.69c0.142,1.016,0.841,1.629,1.744,1.503c2.353-0.327,1.776-4.468,4.354-4.826   c1.299-0.181,2.797,0.8,3.038,2.531c0.115,0.828-0.057,1.389-0.271,1.918c-0.06,0.124-0.811,0.381-1.77,0.515   c-0.057,0.008-0.109-0.368-0.053-0.376c1.012-0.313,1.633-1.091,1.491-2.107c-0.123-0.885-0.647-1.483-1.514-1.363   c-2.259,0.314-1.636,4.372-4.347,4.749c-1.543,0.214-3.047-0.804-3.296-2.592C144.758,73.831,145.06,72.964,145.578,72.143z"/>
	<path fill="#FFFFFF" d="M145.786,82.658c-0.015-0.855-0.029-1.767-0.116-2.374c-0.04-0.151,0.36-0.063,0.361-0.025   c0.153,1.252,0.404,1.438,2.189,1.407l4.294-0.073c1.805-0.03,2.049-0.225,2.16-1.481c0-0.038,0.379-0.12,0.362,0.032   c-0.085,0.59-0.069,1.502-0.056,2.357c0.01,0.57,0.064,1.557,0.129,1.993c0.021,0.152-0.359,0.083-0.36,0.045   c-0.117-1.31-0.519-1.436-2.209-1.407l-4.294,0.073c-1.69,0.028-2.05,0.167-2.142,1.481c0.001,0.037-0.378,0.12-0.361-0.032   C145.794,84.216,145.796,83.228,145.786,82.658z"/>
	<path fill="#FFFFFF" d="M152.095,96.834c-0.057-0.007,0.004-0.344,0.042-0.34c0.639-0.055,1.133-0.491,1.32-1.999l0.154-1.245   l-5.978-0.742c-1.678-0.208-2.051-0.139-2.327,1.167c-0.007,0.057-0.389,0.047-0.352-0.102c0.11-0.427,0.249-1.386,0.323-1.989   c0.101-0.811,0.216-1.734,0.213-2.328c-0.019-0.156,0.367-0.031,0.36,0.025c-0.022,1.261,0.199,1.479,1.972,1.699l5.978,0.742   l0.164-1.32c0.181-1.451-0.164-2.068-0.801-2.339c-0.01-0.078,0.025-0.361,0.08-0.335c0.294,0.094,1.006,0.221,1.402,0.27   c0.15,0.019,0.434,0.054,0.745,0.016c0.059-0.012,0.035,0.33-0.023,0.342c-0.467,0.058-0.49,0.093-0.743,2.129l-0.508,4.092   c-0.25,2.019-0.262,2.112,0.195,2.284c0.055,0.025-0.009,0.382-0.08,0.335c-0.292-0.113-0.777-0.212-1.249-0.271   C152.757,96.896,152.285,96.839,152.095,96.834z"/>
	<path fill="#FFFFFF" d="M147.3,103.84l-2.091-0.637c-1.927-0.587-2.007-0.452-2.492,0.75c-0.017,0.055-0.41-0.025-0.34-0.123   c0.187-0.42,0.481-1.323,0.659-1.904c0.249-0.818,0.515-1.69,0.619-2.295c-0.003-0.12,0.361,0.051,0.345,0.105   c-0.214,1.226-0.36,1.38,1.657,1.994l1.873,0.57l2.261-0.643c2.411-0.676,2.801-0.915,3.259-2.027   c0.017-0.054,0.415,0.008,0.346,0.105c-0.25,0.56-0.466,1.269-0.709,2.068c-0.178,0.582-0.431,1.478-0.503,1.913   c0.003,0.12-0.368-0.033-0.352-0.087c0.27-1.21-0.13-1.073-2.444-0.387l-1.461,0.429l1.194,1.556   c1.45,1.892,1.538,1.799,2.003,0.729c0.017-0.055,0.421-0.011,0.34,0.123c-0.244,0.542-0.421,1.123-0.665,1.923   c-0.177,0.582-0.27,0.951-0.342,1.386c0.003,0.12-0.368-0.032-0.352-0.087c0.27-1.209,0.114-1.614-1.262-3.423L147.3,103.84z"/>
	<path fill="#FFFFFF" d="M139.517,116.007l3.157-0.833l0.833,3.157l-3.157,0.833L139.517,116.007z"/>
</g>
<g>
	<path fill="#FFFFFF" d="M33.628,129.117c-0.039-0.042,0.214-0.272,0.253-0.23c0.025,0.028,0.064,0.07,0.115,0.127   c0.883,0.969,1.995,1.061,3.119,0.037c1.067-0.973,1.061-1.995,0.178-2.964c-0.089-0.099-0.335-0.312-0.477-0.439   c-0.373,0.211-0.682,0.493-1.469,1.209l-3.174,2.893c-1.264,1.151-1.44,1.467-0.654,2.498c0.039,0.042-0.231,0.339-0.279,0.229   c-0.252-0.361-0.891-1.091-1.3-1.54c-0.563-0.618-1.178-1.292-1.643-1.69c-0.131-0.087,0.229-0.285,0.267-0.243   c0.943,0.838,1.24,0.824,2.574-0.392l3.174-2.892c1.32-1.203,1.375-1.51,0.643-2.539c-0.038-0.043,0.179-0.369,0.253-0.23   c0.354,0.5,0.814,1.006,1.364,1.609c0.23,0.253,0.938,0.945,1.284,1.324c1.292,1.419,1.615,3.155,0.506,4.166   c-1.236,1.126-3.106,0.852-4.604-0.792C33.705,129.201,33.654,129.146,33.628,129.117z"/>
	<path fill="#FFFFFF" d="M41.249,136.211c-0.224-0.178-0.298-0.236-0.42-0.357l-0.99,1.252c-1.061,1.341-1.169,1.691-0.227,2.583   c0.045,0.035-0.173,0.372-0.239,0.271c-0.307-0.316-1.055-0.933-1.532-1.31c-0.656-0.519-1.386-1.097-1.91-1.414   c-0.113-0.041,0.179-0.318,0.224-0.283c1.051,0.662,1.371,0.625,2.491-0.791l2.664-3.367c1.026-1.297,1.011-1.769,0.49-2.181   c-0.119-0.095-0.265-0.186-0.453-0.286c-0.083-0.017,0.066-0.359,0.168-0.303c0.594,0.228,1.968,1.218,3.189,2.185   c2.012,1.591,2.578,3.081,1.635,4.272c-0.59,0.745-1.704,1.051-2.877,0.728c-0.606,1.992-0.818,5.168,0.479,6.193   c0.044,0.036-0.135,0.354-0.224,0.283c-2.444-1.933-2.462-4.758-1.563-6.905C41.851,136.613,41.473,136.388,41.249,136.211z    M43.818,132.259c-0.225,0.161-0.596,0.57-1.233,1.375l-1.415,1.788c0.134,0.105,0.212,0.191,0.406,0.345   c1.475,1.167,2.504,1.061,3.306,0.048c0.99-1.252,0.629-2.265-0.667-3.291C44.05,132.395,43.994,132.374,43.818,132.259z"/>
	<path fill="#FFFFFF" d="M48.265,140.929c1.193-2.313,4.351-3.421,7.121-1.992c2.601,1.341,3.54,4.369,2.399,6.582   c-1.185,2.296-4.326,3.412-7.112,1.976C48.089,146.161,47.124,143.141,48.265,140.929z M49.962,141.12   c-1.429,2.77-0.396,5.119,1.293,5.99c1.807,0.932,3.699,0.497,4.866-1.766c1.429-2.77,0.396-5.162-1.292-6.033   C53.022,138.38,51.138,138.841,49.962,141.12z"/>
	<path fill="#FFFFFF" d="M63.737,152.587c-0.034,0.05-0.264,0.021-0.286-0.104l-0.937-7.445c-0.216-1.688-0.479-2.34-1.546-2.753   c-0.055-0.017,0.003-0.415,0.102-0.347c0.421,0.184,1.23,0.462,1.796,0.628c0.802,0.236,1.804,0.531,2.378,0.602   c0.12-0.005,0.013,0.36-0.084,0.352c-0.623-0.104-0.98-0.17-1.087,0.194c-0.075,0.256-0.142,0.751-0.017,1.738l0.661,5.087   l3.294-3.922c0.738-0.893,0.868-1.131,0.964-1.459c0.091-0.311-0.168-0.506-0.753-0.737c-0.055-0.016,0.003-0.415,0.102-0.347   c0.403,0.179,0.958,0.382,1.541,0.553c0.82,0.242,0.948,0.279,1.54,0.354c0.12-0.004-0.029,0.368-0.084,0.352   c-0.883-0.161-1.499,0.113-2.682,1.508L63.737,152.587z"/>
	<path fill="#FFFFFF" d="M71.963,149.971c0.249-2.591,2.77-4.792,5.872-4.494c2.913,0.28,4.909,2.744,4.671,5.222   c-0.247,2.572-2.75,4.774-5.87,4.475C73.742,154.895,71.725,152.448,71.963,149.971z M73.61,149.519   c-0.298,3.102,1.533,4.9,3.424,5.082c2.024,0.194,3.619-0.912,3.863-3.446c0.298-3.102-1.549-4.94-3.44-5.122   C75.433,145.838,73.855,146.965,73.61,149.519z"/>
	<path fill="#FFFFFF" d="M83.926,157.048c1.216-0.021,1.511-0.559,1.502-1.033c-0.006-0.323-0.218-0.51-0.678-0.729   c-0.364-0.164-0.538-0.313-0.544-0.637c-0.006-0.36,0.293-0.632,0.692-0.639c0.607-0.012,1.263,0.49,1.279,1.421   c0.02,1.102-0.916,1.955-2.227,1.979C83.837,157.411,83.888,157.049,83.926,157.048z"/>
	<path fill="#FFFFFF" d="M103.849,149.071c0.455,1.884-0.584,3.815-3.059,4.414c-2.143,0.518-4.297-0.39-4.832-2.605l-0.785-3.251   c-0.424-1.755-0.685-1.945-1.921-1.804c-0.056,0.014-0.182-0.347-0.063-0.336c0.596-0.047,1.478-0.279,2.309-0.479   c0.591-0.144,1.51-0.385,1.939-0.547c0.103-0.063,0.191,0.306,0.099,0.328c-1.229,0.414-1.25,0.81-0.849,2.473l0.709,2.937   c0.522,2.16,2.158,2.782,3.58,2.438c1.865-0.451,2.604-1.685,2.144-3.587l-0.794-3.287c-0.384-1.589-0.653-1.816-1.89-1.675   c-0.097,0.004-0.182-0.347-0.063-0.337c0.596-0.046,1.016-0.167,1.828-0.363c0.572-0.138,1.178-0.304,1.589-0.462   c0.144-0.054,0.154,0.314,0.117,0.323c-1.247,0.419-1.26,0.853-0.898,2.349L103.849,149.071z"/>
	<path fill="#FFFFFF" d="M114.763,140.038c0.023,0.052-0.295,0.178-0.311,0.143c-0.383-0.514-1.015-0.704-2.396-0.069l-1.14,0.523   l2.517,5.473c0.706,1.536,0.961,1.816,2.217,1.364c0.052-0.023,0.245,0.306,0.1,0.353c-0.421,0.131-1.31,0.518-1.862,0.772   c-0.742,0.341-1.588,0.729-2.092,1.045c-0.122,0.099-0.22-0.296-0.168-0.32c1.084-0.645,1.153-0.948,0.407-2.571l-2.517-5.472   l-1.208,0.556c-1.329,0.611-1.673,1.229-1.567,1.912c-0.061,0.05-0.32,0.169-0.326,0.108c-0.075-0.3-0.343-0.972-0.51-1.334   c-0.063-0.138-0.183-0.397-0.378-0.642c-0.041-0.044,0.262-0.204,0.303-0.16c0.294,0.367,0.336,0.368,2.201-0.489l3.745-1.723   c1.848-0.85,1.934-0.889,1.839-1.368c-0.007-0.06,0.329-0.193,0.327-0.108c0.058,0.308,0.229,0.772,0.428,1.204   C114.468,139.441,114.666,139.873,114.763,140.038z"/>
	<path fill="#FFFFFF" d="M124.599,142.54c-0.072,0.096-0.249-0.268-0.202-0.299c0.493-0.425,0.877-0.57,0.664-0.885   c-0.245-0.362-0.801-0.743-1.41-1.203l-0.848-0.643l-2.55,1.725l0.202,1.079c0.17,0.895,0.306,1.469,0.519,1.783   c0.181,0.268,0.479,0.065,1.016-0.229c0.078-0.053,0.302,0.277,0.186,0.31c-0.394,0.198-0.892,0.513-1.396,0.853   c-0.677,0.458-0.787,0.532-1.264,0.946c-0.084,0.08-0.25-0.267-0.202-0.299c0.744-0.595,0.866-1.297,0.57-3.023l-1.252-7.479   c-0.021-0.101,0.125-0.223,0.221-0.149l6.13,4.181c1.224,0.824,1.837,1.258,3.034,0.586c0.048-0.032,0.303,0.277,0.187,0.31   c-0.409,0.208-1.097,0.65-1.616,1.001C125.91,141.562,125.061,142.137,124.599,142.54z M120.123,140.636l2.188-1.479l-2.764-1.984   L120.123,140.636z"/>
	<path fill="#FFFFFF" d="M135.487,133.254c-0.054,0.081-0.296-0.214-0.256-0.255c0.683-0.875,0.642-1.211-0.612-2.456l-1.375-1.366   l-3.589,3.611l1.375,1.366c1.186,1.179,1.576,1.353,2.446,0.61c0.041-0.04,0.351,0.214,0.243,0.269   c-0.362,0.283-0.965,0.862-1.394,1.294c-0.575,0.579-1.326,1.334-1.7,1.819c-0.054,0.107-0.297-0.215-0.256-0.255   c0.896-1.145,0.855-1.373-0.425-2.646l-3.046-3.026c-1.28-1.272-1.536-1.339-2.662-0.422c-0.04,0.04-0.35-0.214-0.242-0.268   c0.482-0.352,1.232-1.106,1.809-1.686c0.429-0.432,0.99-1.051,1.271-1.415c0.054-0.107,0.31,0.201,0.27,0.241   c-0.736,0.876-0.561,1.265,0.64,2.457l1.28,1.272l3.589-3.612l-1.28-1.272c-1.267-1.259-1.616-1.312-2.474-0.61   c-0.04,0.041-0.351-0.214-0.27-0.268c0.482-0.351,1.071-0.917,1.647-1.496c0.442-0.445,1.192-1.254,1.46-1.604   c0.053-0.108,0.336,0.173,0.269,0.24c-0.963,1.132-0.761,1.44,0.452,2.646l3.046,3.027c1.213,1.205,1.495,1.379,2.635,0.422   c0.066-0.067,0.35,0.214,0.242,0.268c-0.349,0.27-1.139,1.038-1.58,1.482C136.425,132.203,135.862,132.77,135.487,133.254z"/>
</g>
<line fill="none" stroke="#C5AF7D" stroke-linecap="round" stroke-linejoin="round" x1="52.292" y1="107.754" x2="115.859" y2="107.754"/>
<line fill="none" stroke="#C5AF7D" stroke-linecap="round" stroke-linejoin="round" x1="52.292" y1="62.751" x2="115.859" y2="62.751"/>
<g>
	<path fill="#002255" d="M61.659,50.77h-0.888c-0.036,0.204-0.048,0.54-0.048,1.104v1.14h0.528c0.984,0,1.08-0.132,1.188-0.552   c0.012-0.024,0.24-0.024,0.228,0.024c-0.048,0.156-0.06,0.564-0.06,0.816c0,0.12-0.012,0.492,0.012,0.576   c0.024,0.072-0.216,0.096-0.228,0.024c-0.072-0.36-0.168-0.528-1.14-0.528h-0.528v1.26c0,1.14,0.084,1.296,0.936,1.368   c0.06,0,0.084,0.24-0.012,0.228c-0.276-0.036-0.936-0.048-1.32-0.048c-0.516,0-1.02,0-1.404,0.048   c-0.072,0.024-0.036-0.228,0-0.228c0.696-0.084,0.828-0.252,0.828-1.368v-2.712c0-1.14-0.096-1.284-1.008-1.38   c-0.024,0-0.06-0.252,0.012-0.24c0.672,0.06,1.764,0.072,2.676,0.072c0.648,0,1.236-0.036,1.572-0.036   c0.156,0,0.228,0.024,0.252,0.192c0.036,0.204,0.048,0.756,0.084,0.996c0,0.036-0.204,0.048-0.216,0.012   C63.002,50.95,63.026,50.77,61.659,50.77z"/>
	<path fill="#002255" d="M64.431,53.374c0-1.644,1.452-3.18,3.42-3.18c1.848,0,3.252,1.428,3.252,3c0,1.632-1.44,3.168-3.42,3.168   C65.847,56.362,64.431,54.946,64.431,53.374z M65.438,52.99c0,1.968,1.26,2.988,2.46,2.988c1.284,0,2.22-0.792,2.22-2.4   c0-1.968-1.272-3.012-2.472-3.012C66.362,50.566,65.438,51.37,65.438,52.99z"/>
	<path fill="#002255" d="M78.04,54.106c0,1.224-0.924,2.256-2.532,2.256c-1.392,0-2.58-0.876-2.58-2.316v-2.112   c0-1.14-0.132-1.296-0.912-1.392c-0.036,0-0.06-0.24,0.012-0.216c0.372,0.06,0.948,0.048,1.488,0.048   c0.384,0,0.984-0.012,1.272-0.048c0.072-0.024,0.072,0.216,0.012,0.216c-0.816,0.072-0.888,0.312-0.888,1.392v1.908   c0,1.404,0.912,2.028,1.836,2.028c1.212,0,1.848-0.648,1.848-1.884V51.85c0-1.032-0.132-1.212-0.912-1.308   c-0.06-0.012-0.06-0.24,0.012-0.216c0.372,0.06,0.648,0.048,1.176,0.048c0.372,0,0.768-0.012,1.044-0.048   c0.096-0.012,0.048,0.216,0.024,0.216c-0.828,0.072-0.9,0.336-0.9,1.308V54.106z"/>
	<path fill="#002255" d="M86.14,54.634c0,0.444,0.012,1.26,0.06,1.644c0,0.036-0.144,0.084-0.216,0.012l-4.476-4.548v2.892   c0,0.96,0.084,1.296,0.912,1.368c0.024,0,0.048,0.252-0.024,0.228c-0.276-0.036-0.6-0.048-0.972-0.048   c-0.528,0-0.912,0-1.296,0.048c-0.06,0.012-0.036-0.228,0-0.228c0.792-0.084,0.912-0.348,0.912-1.368V51.55   c0-0.408-0.756-0.96-1.164-1.008c-0.036,0-0.06-0.252,0.012-0.228c0.372,0.06,1.068,0.072,1.584,0.072l4.188,4.332v-2.796   c0-1.032-0.12-1.296-0.9-1.38c-0.061-0.012-0.061-0.252,0.012-0.228c0.36,0.06,0.66,0.06,1.188,0.06   c0.384,0,0.792-0.024,1.056-0.06c0.12-0.012,0.061,0.228,0.036,0.228c-0.84,0.06-0.912,0.42-0.912,1.38V54.634z"/>
	<path fill="#002255" d="M89.836,56.182c-0.528,0-1.248,0-1.62,0.048c-0.12,0.012-0.049-0.228-0.013-0.228   c0.792-0.084,0.912-0.24,0.912-1.368v-2.712c0-1.14-0.12-1.296-0.912-1.38c-0.036,0-0.096-0.252,0.024-0.228   c0.36,0.06,1.152,0.06,1.692,0.06c0.216,0,1.056-0.036,1.38-0.036c2.16,0,3.336,1.248,3.336,2.856c0,1.644-1.428,3.024-3.456,3.024   C90.867,56.218,90.052,56.182,89.836,56.182z M90.159,50.758c-0.06,0.288-0.071,0.48-0.071,1.164v3.036   c0,0.66,0.06,0.876,1.344,0.876c1.067,0,2.22-0.732,2.22-2.28c0-1.884-0.96-2.844-2.628-2.844   C90.424,50.71,90.304,50.734,90.159,50.758z"/>
	<path fill="#002255" d="M99.723,56.23c-0.336,0-0.899-0.048-1.571-0.048c-0.912,0-2.004,0-2.677,0.048   c-0.071,0-0.035-0.228,0-0.228c0.912-0.108,0.996-0.228,0.996-1.368v-2.712c0-1.14-0.084-1.284-0.996-1.38   c-0.035,0-0.071-0.252,0-0.24c0.673,0.06,1.729,0.072,2.641,0.072c0.647,0,1.271-0.024,1.824-0.072   c-0.061,0.192-0.061,0.444-0.061,0.624c0,0.096-0.012,0.36,0,0.42c0,0.024-0.228,0.036-0.228,0.012   c-0.072-0.396-0.217-0.588-1.38-0.588h-0.78c-0.036,0.204-0.048,0.54-0.048,1.104v1.104h0.6c1.008,0,1.08-0.024,1.176-0.408   c0-0.024,0.229-0.036,0.216,0.024c-0.035,0.132-0.048,0.504-0.048,0.708c0,0.108,0,0.432,0,0.516   c0.024,0.012-0.228,0.024-0.228,0.012c-0.084-0.468-0.156-0.504-1.116-0.504h-0.6v1.188c0,1.152,0.06,1.26,0.468,1.26h0.468   c1.38,0,1.416-0.192,1.548-0.78c0-0.012,0.24-0.012,0.24,0.024c-0.036,0.228-0.132,0.816-0.192,0.996   C99.939,56.194,99.879,56.23,99.723,56.23z"/>
	<path fill="#002255" d="M103.047,56.182c-0.528,0-1.248,0-1.62,0.048c-0.12,0.012-0.048-0.228-0.012-0.228   c0.792-0.084,0.912-0.24,0.912-1.368v-2.712c0-1.14-0.12-1.296-0.912-1.38c-0.036,0-0.096-0.252,0.023-0.228   c0.36,0.06,1.152,0.06,1.692,0.06c0.216,0,1.056-0.036,1.38-0.036c2.16,0,3.336,1.248,3.336,2.856c0,1.644-1.428,3.024-3.456,3.024   C104.079,56.218,103.263,56.182,103.047,56.182z M103.371,50.758c-0.061,0.288-0.072,0.48-0.072,1.164v3.036   c0,0.66,0.061,0.876,1.344,0.876c1.068,0,2.221-0.732,2.221-2.28c0-1.884-0.96-2.844-2.628-2.844   C103.635,50.71,103.515,50.734,103.371,50.758z"/>
</g>
<path fill="#002255" d="M51.546,82.655c0-0.225,0-2.964,0-4.131c0-0.319-0.046-0.567-0.046-0.567s0.288,0.046,0.568,0.046  s3.115,0,3.115,0c2.371,0,3.763,0.367,3.763,2.522c0,1.4-0.863,2.649-3.666,2.649c0,0-2.931,0-3.212,0  c-0.28,0-0.558,0.036-0.558,0.036S51.546,82.941,51.546,82.655z M51.546,92.139c0-0.066,0-3.457,0-4.78  c0-0.321-0.038-0.56-0.038-0.56s0.279,0.039,0.559,0.039s2.635,0,2.635,0c2.102,0,4.673,0,4.673,2.91  c0,2.154-1.841,2.908-4.319,2.908c0,0-2.914,0-2.988,0c-0.282,0-0.552,0.043-0.552,0.043S51.546,92.412,51.546,92.139z   M43.993,75.434L43.99,95.33c0,0.646,0.038,0.877-0.419,1.16c-0.447,0.277-0.905,0.323-1.643,0.448c0,0-0.008,0.001-0.014,0.003  c-0.073,0.019-0.061,0.296,0.014,0.296c0.049,0,16.097,0,16.097,0c6.789,0,9.645-2.694,9.645-6.896c0-3.106-1.447-5.007-4.312-5.72  c-0.048-0.014-0.051-0.078,0-0.092c1.825-0.57,3.503-1.891,3.503-5.126c0-4.386-2.963-5.872-9.429-5.872l-15.498,0  c-0.074,0-0.09,0.278-0.016,0.296c0.006,0.001,0.014,0.003,0.014,0.003c0.737,0.125,1.195,0.171,1.643,0.448  C44.032,74.562,43.993,74.789,43.993,75.434z"/>
<path fill="#002255" d="M125.098,75.435c0-0.646-0.038-0.873,0.419-1.156c0.447-0.277,0.906-0.323,1.643-0.448  c0,0,0.008-0.001,0.014-0.003c0.073-0.019,0.061-0.296-0.014-0.296l-11.872,0c-0.074,0-0.089,0.277-0.016,0.296  c0.007,0.001,0.015,0.003,0.015,0.003c0.75,0.093,1.098,0.171,1.545,0.448c0.457,0.284,0.418,0.512,0.418,1.157l0.001,11.958  c0,2.727-1.563,4.822-4.662,4.822c-3.102,0-4.664-2.096-4.664-4.822l0.001-11.955c0-0.645-0.038-0.875,0.419-1.159  c0.447-0.278,0.821-0.347,1.545-0.449c0,0,0.008-0.001,0.014-0.003c0.074-0.019,0.061-0.295-0.015-0.295H98.684  c-0.083,0-0.066,0.279,0.004,0.294c0.006,0.001,0.013,0.003,0.013,0.003c0.41,0.025,0.691,0.048,0.943,0.264  c0.374,0.317,0.434,0.696,0.434,1.342v11.755c0,5.666,3.1,10.479,12.511,10.479c9.408,0,12.51-4.813,12.51-10.479V75.435z"/>
<path fill="#002255" d="M89.119,97.238c0.074,0,0.089-0.278,0.016-0.297c-0.006-0.001-0.014-0.002-0.014-0.002  c-0.737-0.126-1.195-0.172-1.643-0.449c-0.457-0.283-0.419-0.513-0.419-1.158v-7.551l8.21-12.191  c0.45-0.669,0.737-1.018,1.106-1.329c0.063-0.053,0.214-0.153,0.307-0.211c0.338-0.17,0.468-0.209,0.886-0.221  c0,0,0.008-0.002,0.014-0.003c0.075-0.01,0.099-0.294,0.013-0.294l-11.073-0.001c-0.091,0-0.072,0.29,0.005,0.297  c0.006,0.001,0.014,0.004,0.014,0.004c0.538,0,1.199,0.004,1.091,0.775c-0.061,0.749-3.253,5.364-4.389,7.116  c-0.163,0.251-0.29,0.511-0.345,0.826c-0.041-0.31-0.236-0.626-0.368-0.822c-1.584-2.36-4.294-6.184-4.372-7.121  c-0.065-0.8,0.555-0.776,1.092-0.776c0,0,0.008-0.003,0.014-0.003c0.076-0.007,0.104-0.294,0.015-0.294l-11.629,0.001  c-0.068,0-0.061,0.267,0.008,0.293c0.006,0.002,0.014,0.003,0.014,0.003c0.497,0.05,0.768,0.016,1.35,0.299  c0.068,0.033,0.23,0.142,0.294,0.194c0.368,0.311,0.594,0.598,1.045,1.267l8.199,12.14l0.001,7.603c0,0.646,0.038,0.876-0.419,1.159  c-0.448,0.277-0.906,0.323-1.643,0.449c0,0-0.008,0.001-0.014,0.002c-0.074,0.019-0.061,0.297,0.014,0.297H89.119z"/>
</svg>