<?xml version="1.0" encoding="UTF-8"?>
<!-- Generator: Adobe Illustrator 19.1.0, SVG Export Plug-In . SVG Version: 6.00 Build 0)  -->
<!DOCTYPE svg PUBLIC "-//W3C//DTD SVG 1.1//EN" "http://www.w3.org/Graphics/SVG/1.1/DTD/svg11.dtd">
<svg version="1.1" id="Layer_1" xmlns="http://www.w3.org/2000/svg" xmlns:xlink="http://www.w3.org/1999/xlink" x="0px" y="0px" viewBox="0 0 720.8 81.8" enable-background="new 0 0 720.8 81.8" xml:space="preserve">
<g>
	<g>
		<g>
			<g>
				<path fill="#A7A9AC" d="M0,81.1V0.7h15.7v80.5H0z"/>
				<path fill="#A7A9AC" d="M80.9,81.1L49,31.8v49.4H33.3V0.7h14l31.9,49.3V0.7h15.7v80.5H80.9z"/>
				<path fill="#A7A9AC" d="M135.8,81.8c-12.2,0-21.5-2.6-29.4-10.6L116.6,61c5.1,5.1,12,6.8,19.4,6.8c9.3,0,14.2-3.5,14.2-9.9      c0-2.8-0.8-5.2-2.5-6.8c-1.6-1.5-3.4-2.3-7.1-2.8l-9.7-1.4c-6.9-1-12-3.2-15.6-6.7c-3.8-3.8-5.8-9-5.8-15.8      c0-14.4,10.6-24.4,28-24.4c11.1,0,19.1,2.7,26,9.4l-9.9,9.8c-5.1-4.9-11.2-5.5-16.5-5.5c-8.4,0-12.4,4.6-12.4,10.2      c0,2,0.7,4.2,2.4,5.8c1.6,1.5,4.2,2.7,7.5,3.2l9.5,1.4c7.3,1,12,3.1,15.4,6.2c4.3,4.1,6.2,9.9,6.2,17.1      C165.7,73,152.7,81.8,135.8,81.8z"/>
				<path fill="#A7A9AC" d="M208.9,14.7v66.4h-15.7V14.7h-21v-14H230v14H208.9z"/>
				<path fill="#A7A9AC" d="M284.3,81.1L268.6,49h-11.3v32.1h-15.7V0.7h31.5c16.4,0,26.1,11.2,26.1,24.6c0,11.3-6.9,18.3-14.7,21.1      l18,34.7H284.3z M272.1,14.7h-14.8v21.2h14.8c6.9,0,11.4-4.4,11.4-10.6S279,14.7,272.1,14.7z"/>
				<path fill="#A7A9AC" d="M342.7,81.8c-16.5,0-29.6-11.2-29.6-28.3V0.7h15.7V53c0,9.3,5.4,14.8,13.9,14.8c8.5,0,14-5.5,14-14.8      V0.7h15.6v52.9C372.3,70.6,359.2,81.8,342.7,81.8z"/>
				<path fill="#A7A9AC" d="M416.7,81.8c-8.8,0-16-3.2-21.7-8.8c-8.1-8.1-7.9-18.2-7.9-32.1s-0.2-24,7.9-32.1      c5.7-5.7,12.9-8.8,21.7-8.8c15,0,26.8,8.6,29.6,25.4h-15.9C428.8,19,424.8,14,416.9,14c-4.3,0-7.8,1.6-10.1,4.2      c-3.1,3.4-4,7.2-4,22.7c0,15.5,0.9,19.3,4,22.7c2.3,2.6,5.8,4.2,10.1,4.2c7.9,0,12-5,13.6-11.4h15.9      C443.5,73.2,431.7,81.8,416.7,81.8z"/>
				<path fill="#A7A9AC" d="M488,14.7v66.4h-15.7V14.7h-21v-14h57.7v14H488z"/>
				<path fill="#A7A9AC" d="M549.1,81.8c-16.5,0-29.6-11.2-29.6-28.3V0.7h15.7V53c0,9.3,5.4,14.8,13.9,14.8s14-5.5,14-14.8V0.7h15.6      v52.9C578.7,70.6,565.6,81.8,549.1,81.8z"/>
				<path fill="#A7A9AC" d="M637.8,81.1L622.1,49h-11.3v32.1h-15.7V0.7h31.5c16.4,0,26.1,11.2,26.1,24.6c0,11.3-6.9,18.3-14.7,21.1      l18,34.7H637.8z M625.6,14.7h-14.8v21.2h14.8c6.9,0,11.4-4.4,11.4-10.6S632.5,14.7,625.6,14.7z"/>
				<path fill="#A7A9AC" d="M667.8,81.1V0.7h53v14h-37.3v18.9h31.8v14h-31.8v19.6h37.3v14H667.8z"/>
			</g>
		</g>
	</g>
</g>
</svg>