<svg width="3em" height="1em" viewBox="0 0 122 24" xmlns="http://www.w3.org/2000/svg" fill="#0079E1" role="img" aria-label="logo and neighbor icon" title="logo and neighbor icon" icon="logo-and-neighbor" color="blue-60"><g clip-path="url(#logo-and-neighbor_svg__clip0)"><path fill-rule="evenodd" clip-rule="evenodd" d="M12.74.157l12.267 8.778a.299.299 0 01.072.422l-.784 1.058a.3.3 0 01-.415.067L12.566 2.408 1.258 10.482a.3.3 0 01-.415-.067L.059 9.357a.3.3 0 01.066-.422l3.313-2.373V1.164a.3.3 0 01.3-.301h5.194a.301.301 0 01.301.3v1.255l3.159-2.26a.301.301 0 01.348 0zM7.464 2.636H5.207v2.667l2.257-1.616V2.636zm7.682 6.972h6.08a.298.298 0 01.3.299v11.47a.299.299 0 01-.3.3H3.804a.3.3 0 01-.3-.3V9.91a.298.298 0 01.3-.3h4.373V6.667a.3.3 0 01.313-.3h6.356a.3.3 0 01.3.3v2.942zm-1.626-1.62H9.81v6.034h3.711V7.988zm-5.343 6.045v-2.508H5.423v2.508h2.754zm5.345 1.614h-8.1v4.113h8.1v-4.113zm1.625 4.113h4.472v-8.235h-4.472v8.235zm27.77-14.943v14.556a.314.314 0 01-.328.326h-3.116a.42.42 0 01-.395-.218l-5.399-9.58v9.472a.315.315 0 01-.329.326h-2.743a.315.315 0 01-.329-.326V4.817a.314.314 0 01.33-.326H33.7a.42.42 0 01.395.218l5.42 9.601V4.817a.314.314 0 01.33-.326h2.743a.314.314 0 01.329.326zm5.092 10.667h6.517c.674 0 .79-.456.79-1.343 0-2.869-1.974-5.301-5.113-5.301-3.138 0-5.464 2.43-5.464 5.495 0 3.064 2.326 5.52 5.706 5.52a5.63 5.63 0 003.994-1.631c.175-.174.175-.321.044-.478l-1.141-1.086a.328.328 0 00-.483-.043 3.682 3.682 0 01-2.085.627c-1.47 0-2.436-.61-2.765-1.76zm4.389-2.064h-4.433c.241-1.239 1.163-1.825 2.26-1.825 1.054 0 1.953.586 2.173 1.825zm4.527-7.972a1.756 1.756 0 111.755 1.738 1.743 1.743 0 01-1.755-1.738zm3.072 3.605a.314.314 0 01.33.326v9.994a.314.314 0 01-.33.326h-2.633a.315.315 0 01-.33-.326V9.379a.314.314 0 01.323-.326h2.64zM73.399 19.61V9.38a.313.313 0 00-.33-.328h-2.391a.323.323 0 00-.33.326l-.065.848a4.065 4.065 0 00-3.073-1.41c-2.978 0-5.172 2.478-5.172 5.475 0 2.997 2.194 5.473 5.172 5.473a4.101 4.101 0 003.16-1.433v.999c0 1.629-1.821 2.02-2.962 2.02-1.276 0-2.304-.238-3.314-.826-.197-.108-.307-.042-.439.132l-.855 1.52a.313.313 0 00.087.435c1.141.826 2.903 1.39 4.784 1.39 2.458 0 5.728-.978 5.728-4.389zm-5.772-7.842c1.383 0 2.414 1.194 2.414 2.499 0 1.302-1.01 2.519-2.414 2.519-1.404 0-2.435-1.151-2.435-2.52 0-1.368 1.053-2.498 2.435-2.498zm18.434 1.637v5.975a.314.314 0 01-.33.326h-2.63a.311.311 0 01-.308-.199.314.314 0 01-.02-.127v-5.33c0-1.716-.966-2.215-1.844-2.215-1.47 0-2.085 1.433-2.085 1.955v5.583a.314.314 0 01-.33.327h-2.632a.313.313 0 01-.33-.327V4.17a.314.314 0 01.33-.326h2.633a.314.314 0 01.33.326v6.562c.68-1.109 1.776-1.913 3.313-1.913 2.169-.005 3.903 1.734 3.903 4.587zm8.141 6.445c3.006 0 5.2-2.412 5.2-5.453 0-3.107-2.194-5.562-5.2-5.557a3.779 3.779 0 00-2.809 1.195V4.17a.313.313 0 00-.33-.326h-2.632a.313.313 0 00-.33.325v15.204a.313.313 0 00.33.326h2.238a.325.325 0 00.305-.2.322.322 0 00.024-.126l.132-.912c.68.824 1.661 1.39 3.072 1.39zm-.395-8.038c1.404 0 2.436 1.042 2.436 2.563h-.002c0 1.478-1.031 2.498-2.434 2.498-1.448 0-2.414-1.064-2.414-2.498 0-1.434.966-2.563 2.414-2.563zm6.759 2.563a5.605 5.605 0 019.551-4.052 5.607 5.607 0 01-3.957 9.591 5.55 5.55 0 01-5.163-3.409 5.547 5.547 0 01-.431-2.13zm8.03 0c0-1.477-1.074-2.541-2.436-2.541-1.337 0-2.434 1.064-2.434 2.54 0 1.477 1.097 2.521 2.434 2.521 1.362 0 2.436-1.064 2.436-2.52zm11.696-2.673l.724-1.868a.379.379 0 00-.109-.477 2.268 2.268 0 00-1.492-.544c-1.317 0-2.215.76-2.764 1.803l-.089-1.238a.308.308 0 00-.022-.127.31.31 0 00-.306-.2h-2.523a.316.316 0 00-.31.199.31.31 0 00-.021.128v9.994a.31.31 0 00.331.326h2.633a.312.312 0 00.327-.326v-5.301c0-1.304.812-2.303 2.175-2.303.307.006.61.065.898.174.265.064.461.022.548-.24z"></path></g><defs><clipPath id="logo-and-neighbor_svg__clip0"><path d="M0 0h122v24H0z"></path></clipPath></defs></svg>