<?xml version="1.0" encoding="UTF-8" standalone="no"?>
<!-- Created with Sodipodi ("http://www.sodipodi.com/") -->
<svg xmlns:osb="http://www.openswatchbook.org/uri/2009/osb" xmlns:dc="http://purl.org/dc/elements/1.1/" xmlns:cc="http://creativecommons.org/ns#" xmlns:rdf="http://www.w3.org/1999/02/22-rdf-syntax-ns#" xmlns:svg="http://www.w3.org/2000/svg" xmlns="http://www.w3.org/2000/svg" xmlns:xlink="http://www.w3.org/1999/xlink" xmlns:sodipodi="http://sodipodi.sourceforge.net/DTD/sodipodi-0.dtd" xmlns:inkscape="http://www.inkscape.org/namespaces/inkscape" height="863.96875" id="svg548" sodipodi:docname="Flag-map_of_Paraguay.svg" sodipodi:version="0.32" width="794.78198" inkscape:version="0.48.5 r10040" version="1.0">
  <metadata id="metadata5348">
    <rdf:RDF>
      <cc:Work rdf:about="">
        <dc:title>Paraguay</dc:title>
        <dc:description/>
        <dc:subject>
          <rdf:Bag>
            <rdf:li/>
            <rdf:li>united_nations_member</rdf:li>
            <rdf:li>latin_america</rdf:li>
            <rdf:li>america</rdf:li>
            <rdf:li>south_america</rdf:li>
            <rdf:li>flag</rdf:li>
            <rdf:li>sign</rdf:li>
          </rdf:Bag>
        </dc:subject>
        <dc:publisher>
          <cc:Agent rdf:about="http://www.openclipart.org">
            <dc:title>Caleb Moore</dc:title>
          </cc:Agent>
        </dc:publisher>
        <dc:creator>
          <cc:Agent>
            <dc:title>Caleb Moore</dc:title>
          </cc:Agent>
        </dc:creator>
        <dc:rights>
          <cc:Agent>
            <dc:title>Caleb Moore</dc:title>
          </cc:Agent>
        </dc:rights>
        <dc:date/>
        <dc:format>image/svg+xml</dc:format>
        <dc:type rdf:resource="http://purl.org/dc/dcmitype/StillImage"/>
        <cc:license rdf:resource="http://web.resource.org/cc/PublicDomain"/>
        <dc:language>en</dc:language>
      </cc:Work>
      <cc:License rdf:about="http://web.resource.org/cc/PublicDomain">
        <cc:permits rdf:resource="http://web.resource.org/cc/Reproduction"/>
        <cc:permits rdf:resource="http://web.resource.org/cc/Distribution"/>
        <cc:permits rdf:resource="http://web.resource.org/cc/DerivativeWorks"/>
      </cc:License>
    </rdf:RDF>
  </metadata>
  <defs id="defs550">
    <linearGradient id="linearGradient3947" osb:paint="solid">
      <stop style="stop-color:#bd0000;stop-opacity:0;" offset="0" id="stop3949"/>
    </linearGradient>
    <inkscape:perspective sodipodi:type="inkscape:persp3d" inkscape:vp_x="0 : 300 : 1" inkscape:vp_y="0 : 1000 : 0" inkscape:vp_z="1000 : 300 : 1" inkscape:persp3d-origin="500 : 200 : 1" id="perspective195"/>
    <linearGradient id="linearGradient1354">
      <stop id="stop1355" offset="0" style="stop-color:#000;stop-opacity:1;"/>
      <stop id="stop1356" offset="1" style="stop-color:#fff;stop-opacity:1;"/>
    </linearGradient>
    <linearGradient id="linearGradient1357" xlink:href="#linearGradient1354"/>
    <inkscape:perspective id="perspective4379" inkscape:persp3d-origin="0.5 : 0.33333333 : 1" inkscape:vp_z="1 : 0.5 : 1" inkscape:vp_y="0 : 1000 : 0" inkscape:vp_x="0 : 0.5 : 1" sodipodi:type="inkscape:persp3d"/>
    <inkscape:perspective id="perspective3010" inkscape:persp3d-origin="0.5 : 0.33333333 : 1" inkscape:vp_z="1 : 0.5 : 1" inkscape:vp_y="0 : 1000 : 0" inkscape:vp_x="0 : 0.5 : 1" sodipodi:type="inkscape:persp3d"/>
    <inkscape:perspective id="perspective3204" inkscape:persp3d-origin="0.5 : 0.33333333 : 1" inkscape:vp_z="1 : 0.5 : 1" inkscape:vp_y="0 : 1000 : 0" inkscape:vp_x="0 : 0.5 : 1" sodipodi:type="inkscape:persp3d"/>
    <inkscape:perspective id="perspective4145" inkscape:persp3d-origin="0.5 : 0.33333333 : 1" inkscape:vp_z="1 : 0.5 : 1" inkscape:vp_y="0 : 1000 : 0" inkscape:vp_x="0 : 0.5 : 1" sodipodi:type="inkscape:persp3d"/>
    <inkscape:perspective id="perspective4158" inkscape:persp3d-origin="0.5 : 0.33333333 : 1" inkscape:vp_z="1 : 0.5 : 1" inkscape:vp_y="0 : 1000 : 0" inkscape:vp_x="0 : 0.5 : 1" sodipodi:type="inkscape:persp3d"/>
  </defs>
  <sodipodi:namedview id="base" showgrid="true" snaptogrid="true" inkscape:zoom="1" inkscape:cx="496.70889" inkscape:cy="394.08359" inkscape:window-width="1920" inkscape:window-height="1017" inkscape:window-x="-8" inkscape:window-y="-8" inkscape:current-layer="g7850" inkscape:window-maximized="1" showguides="true" inkscape:guide-bbox="true" fit-margin-top="0" fit-margin-left="0" fit-margin-right="0" fit-margin-bottom="0"/>
  <g id="g7850" transform="matrix(1.0027112,0,0,1.7259399,-99.931249,0.50880001)">
    <path style="font-size:12px;fill:#ffffff;stroke:#0038a8;stroke-width:1;stroke-miterlimit:4;stroke-opacity:1;stroke-dasharray:none;fill-opacity:1" d="m 1492.125,136.9375 c -0.8698,2.92719 -1.7222,5.86734 -2.5938,8.78125 l -1.5624,5.25 c -0.3405,1.14013 -0.5218,2.43312 -0.9688,3.53125 -0.2386,0.58644 -0.6107,1.18506 -0.9062,1.75 2.6927,0.71045 1.6594,1.71729 2.4687,3.8125 -0.08,0.95557 -1.1563,1.52734 -1.1563,2.375 0.2544,2.23681 4.4445,1.53663 5.7188,2.1875 0.5012,0.25586 0.9275,1.12988 1.1875,1.625 0.8528,0.75146 2.8026,-0.47167 2.6563,2.96875 1.5907,1.7495 3.7118,2.52735 6,1.40625 l 0.4687,0.25 c 0.1084,0.87842 -0.8623,1.81982 0.2187,2.625 0.3664,0.11964 0.9063,0.15226 1.2813,0.0625 l 0.375,0.3125 -0.031,0.71875 c 0.1661,0.55176 0.742,0.70411 1.125,1.0625 0.4758,0.44483 0.8679,1.01953 1.3438,1.46875 2.0827,1.9668 3.843,3.27049 6.875,3.15625 0.897,0.27686 1.6073,1.02 2.4688,1.125 0.7413,0.0903 1.4803,-0.32031 2.1874,-0.0937 0.232,0.0743 0.1314,-0.005 0.2813,0.15625 l 0.2187,0.25 c 0.1607,0.55664 0.2297,1.22755 0.2813,1.8125 0.033,0.3711 0.05,0.76221 0.3125,1.0625 0.6445,0.73925 1.8432,0.36865 2.5625,1.0625 0.3043,0.29394 0.7234,0.76318 0.9063,1.15625 0.4435,0.96386 0.9026,3.85839 0.4687,4.8125 -0.3222,0.70897 -1.1926,1.42285 -1.875,1.78125 l -0.125,0.40625 c 0.039,0.19043 0.2274,0.77246 0.3437,0.90625 0.4743,0.54346 3.5308,2.23687 4.2188,2.21875 0.5626,-0.0146 1.0907,-0.34135 1.6875,-0.34375 l 0.4063,0.3125 c 0.3124,1.40917 -0.9845,2.59669 -0.6563,4.03125 0.2976,1.30079 1.69,1.05811 2.0313,2.09375 -0.1785,0.67384 -0.9395,0.93653 -1.25,1.5625 -0.059,0.2998 0.044,0.87695 0.2812,1.09375 0.6559,0.44092 1.5063,0.43213 2,1.09375 0.706,0.94679 0.4581,2.24902 0.9375,3.21875 0.3158,0.63866 1.6356,0.8335 2.1563,1.40625 0.6001,0.65968 0.391,1.30761 0.75,2 0.4324,0.83398 1.4099,1.25781 1.6874,2.5625 0.5021,0.53712 1.3774,0.43213 1.9376,0.9375 0.7047,0.63624 0.5938,1.63184 1.125,2.34375 0.3128,0.41942 0.7149,0.69532 1.0937,1.03125 0.3238,0.28711 2.8202,3.41455 3.0937,3.84375 0.4275,0.66992 0.9134,1.88818 0.8438,2.6875 -0.031,0.41896 -0.2511,0.61817 -0.031,1.125 0.3806,0.53027 1.0953,0.84717 1.4374,1.40625 0.5268,0.86182 -0.2236,1.99512 -0.2812,2.875 -0.024,0.36816 0.9225,2.69385 1.2188,3.125 0.4813,1.11426 4.1001,3.43165 5.1562,4.59375 0.7344,0.80762 1.1758,2.22119 2.2812,2.65625 1.3571,0.53467 1.8867,-0.25586 3.3126,1.03125 0.2607,0.23536 0.5634,0.35499 0.7812,0.65625 0.436,0.0901 0.8992,0.10215 1.3438,0.0937 0.7437,0.53467 0.9018,1.17822 1.375,1.875 0.3608,0.53125 1.0697,0.78711 1.5312,1.21875 0.2561,0.23976 0.3883,0.4834 0.7188,0.65625 0.4846,1.34814 0.6898,2.31348 2.2812,2.65625 0.345,-0.10547 0.6995,-0.23389 1.0312,-0.375 l 0.4063,0.28125 c -0.1778,0.5337 -0.3586,1.23437 -0.1563,1.78125 l 0.4063,0.3125 c 1.6204,-0.15674 1.8376,0.0132 2.625,1.3125 0.2758,0.45557 0.4797,0.4673 0.5313,1.09375 0.1235,1.51123 -0.8524,4.89697 0.9687,5.8125 1.9345,0.97266 3.2324,1.39452 4.5937,3.21875 0.346,0.46338 0.5331,0.81885 1.1563,1 1.4606,0.42431 2.7145,-0.69629 4.125,-0.5625 0.2398,0.0225 2.7158,1.10352 3.0313,1.28125 2.5653,1.44239 2.8596,4.54883 4.0624,5.125 1.2053,0.57814 2.9448,-0.20117 3.625,0.15625 l 0.2813,0.4375 c -0.3612,0.90186 -1.1251,1.38868 -1.1563,2.4375 l 0.2188,0.53125 c 0.3586,0.27978 0.8916,0.54199 1.125,0.9375 0.382,0.64648 0.8568,2.49561 1.4688,2.78125 0.9959,0.46436 2.1923,0.0747 3.2187,0.125 1.2299,0.061 5.1003,3.31738 5.9687,4.34375 1.1937,0.26368 1.9401,-1.04296 3.75,0.25 0.4336,0.31007 0.7956,0.59717 1.0313,1.09375 0.3628,0.23191 0.7076,0.22167 1.0937,0.34375 0.8861,0.28027 4.4387,1.6748 4.7188,2.4375 l -0.031,0.40625 c -0.011,0.46534 0,1.05908 0.25,1.46875 0.5758,0.95018 1.9435,0.9668 2.7812,1.5 0.2791,0.17773 0.5461,0.42627 0.8125,0.625 0.6887,0.51368 1.8802,2.24511 2.5937,2.375 0.9749,0.17773 2.1652,-0.95264 3.5,-0.3125 1.3264,0.63575 0.996,1.34229 1.5938,2 0.2732,0.30029 0.6589,0.28906 0.9688,0.46875 0.4419,0.25636 0.5414,0.89794 0.875,1.25 0.6586,0.69532 2.1894,0.39112 3.25,1.75 0.051,0.0654 0.2548,0.37114 0.2812,0.4375 0.4087,1.04101 -0.3016,1.46191 -0.25,2.25 0.038,0.57666 0.652,0.86475 0.5312,1.59375 -0.1167,0.70313 -0.928,1.11035 -1,1.90625 l 0.2813,0.4375 c 0.3298,0.14551 0.6481,0.27294 0.9687,0.4375 0.3203,0.71143 0.4201,2.25099 0.7188,2.71875 0.4536,0.71143 1.5625,0.79151 2.1562,1.3125 0.7457,0.65479 1.1005,1.77588 1.6876,2.5625 0.4562,0.61133 1.9418,1.48535 2.1874,2.0625 0.041,0.58106 -0.3039,1.13038 -0.062,1.6875 0.704,0.50782 1.3296,3.07813 1.9062,3.71875 0.2237,0.24853 0.8299,0.51808 1.1562,0.625 0.4592,0.13282 0.8521,0.40625 1.2813,0.53125 0.3968,0.11524 0.8142,0.12011 1.2187,0.28125 0.6257,-0.0107 1.1593,-0.7915 2,-0.8125 0.4388,-0.0112 0.7471,0.27247 1.125,0.34375 0.2169,0.0415 0.4974,-0.0308 0.7188,0 1.5026,0.20899 4.2755,2.10498 5.4375,3.125 0.8696,0.76367 1.1754,2.32715 2.4687,2.5 0.6684,0.0894 1.3471,-0.12394 2,-0.0625 0.8688,0.082 1.6848,0.34089 2.5938,0.28125 1.9979,-0.13037 6.3897,-1.01562 7.9688,0.21875 0.3143,1.38624 1.866,1.04689 2.5624,2.4375 l 0.4063,0.15625 c 0.3592,-0.78418 2.3703,-1.44337 3.1563,-1.25 0.689,0.16944 0.7878,0.55964 1.6874,0.5 0.6422,-0.043 1.2201,-0.41991 1.875,-0.15625 0.5306,0.59083 1.1971,1.07665 1.8438,1.53125 0.2678,0.4209 0.1203,0.80762 0.1562,1.25 0.096,1.17187 0.7738,1.38917 1.2813,2.21875 0.2014,0.32959 0.1809,0.6333 0.5313,0.90625 l 0.5624,0 c 0.6936,-0.47363 1.7301,-0.89307 2.5626,-0.625 1.1581,0.37303 1.8939,1.50244 2.9062,2.09375 0.5704,0.33349 1.4484,0.89551 2.0312,1.125 0.5309,0.20899 1.1302,0.22753 1.625,0.53125 0.4274,0.26221 0.8729,0.67041 1.375,0.8125 0.9977,0.28279 2.2171,0.20557 3.25,0.34375 0.5896,0.0791 1.2641,0.35839 1.8438,0.34375 0.5622,-0.0147 1.3973,-0.54102 2.0625,-0.6875 0.7558,0.16846 1.3518,0.46777 1.75,1.125 0.8662,2.02885 2.8689,1.76953 4.5937,2.03125 0.2183,0.28466 0.3714,0.68262 0.5938,0.9375 0.9131,1.04736 4.0382,1.30615 5.3125,1.125 0.5886,-0.0835 1.1508,-0.29882 1.75,-0.3125 2.1863,-0.0498 4.4591,0.75146 6.5937,0.5625 3.3161,-0.29443 8.2696,-2.44873 11.7813,-3.3125 1.2154,0.77344 2.3826,1.59766 3.5937,2.375 7.5752,4.85742 14.9612,10.06593 22.4688,15.03125 3.7402,2.47314 7.6132,5.62061 11.7188,7.375 0.2303,0.65575 0.5502,1.19092 0.875,1.78125 0.1781,0.32324 0.1793,0.67529 0.3124,1 0.6095,1.48585 2.2021,1.80371 3.5626,2.28125 0.6274,0.2202 2.2108,0.87646 2.6874,1 0.8511,0.22118 1.9278,0.55761 2.6563,1.09375 0.985,0.72559 1.8748,2.05713 2.8437,2.875 0.961,0.55664 1.8946,0.24072 2.6876,0.875 1.0213,0.81689 1.4394,2.26465 2.3437,3.15625 0.8965,0.8833 1.0688,0.90186 2.0625,1.53125 1.0272,0.65088 3.7701,3.55323 4.6875,4.5625 1.2515,1.37696 1.7037,3.58202 3.5625,4.84375 1.0174,0.69043 2.25,0.58155 3.3125,1.15625 0.4658,0.52783 0.6855,1.29541 1.3125,1.59375 1.469,0.69872 2.9775,-0.79882 3.625,1.8125 1.9027,1.52881 2.3653,0.92334 4.1562,1.8125 1.3056,0.64844 2.1884,1.59326 3.3438,2.40625 1.0063,0.70897 2.0698,1.36133 3.0938,2.03125 0.7919,0.51856 1.2601,1.2041 2.2812,1.40625 0.3062,0.0605 0.9547,0.21875 1.25,0.21875 0.9097,0 1.5304,-0.82567 2.75,-0.40625 0.7756,0.26612 2.0343,2.48243 3.125,3.25 1.1382,0.80128 2.5346,0.73779 3.75,1.40625 1.0873,0.6665 1.9626,1.44776 2.9688,2.15625 0.8795,0.61915 1.9688,1.00879 2.8437,1.625 1.6594,1.16846 2.8652,2.86523 4.5625,4 1.0421,0.69678 2.1826,1.17628 3.2188,1.875 2.4265,1.63477 3.3049,4.08447 6.5624,5.03125 2.0259,0.58936 3.9156,-0.66113 5.9063,-0.25 2.005,0.41407 2.0757,2.89795 5.1563,3.53125 1.0874,0.22316 2.374,0.1084 3.5,0.28125 0.8613,0.13184 1.7844,0.375 2.6562,0.375 0.775,0 1.5683,-0.25 2.3438,-0.25 0.8212,0 5.5483,0.9165 6.25,1.28125 0.4516,0.23437 0.8492,0.73828 1.2812,0.96875 0.8146,0.78955 3.6855,0.22413 4.6875,0.96875 0.4316,0.32032 2.4689,3.06641 2.6875,3.59375 0.078,0.18777 0.1182,0.41631 0.1875,0.625 l 378.0937,0 c 0.01,-0.13476 0.019,-0.27499 0.031,-0.40625 0.1876,-1.93409 0.6504,-3.80176 0.9687,-5.6875 0.066,-0.38964 0.3248,-0.70996 0.4376,-1.0625 0.2597,-0.81884 0.3593,-1.73145 0.6562,-2.53125 0.9961,-2.68408 2.4836,-3.14942 3.3438,-4.9375 0.485,-1.00781 0.5053,-2.12939 0.7812,-3.1875 0.3394,-1.30421 1.1063,-2.53271 1.6562,-3.75 0.4648,-1.03126 1.0816,-3.10204 1.2813,-4.21875 0.08,-0.44726 0.059,-0.90966 0.2187,-1.34375 0.191,-0.51905 0.3861,-0.99171 0.5,-1.5625 0.1516,-0.7588 0.322,-1.85938 0.2188,-2.625 -0.022,-0.16602 -0.1515,-0.36426 -0.1875,-0.53125 -0.2407,-1.1128 -0.2159,-2.35011 -0.5313,-3.4375 -0.6957,-2.39844 -1.9131,-3.19775 -1.2187,-6.09375 0.1938,-1.69044 0.9682,-3.93018 2,-5.3125 0.3145,-0.42187 0.7645,-0.72706 1.0625,-1.15625 0.2104,-0.30323 0.3169,-0.60742 0.5938,-0.875 0.4853,-0.46924 1.1234,-0.78663 1.5312,-1.34375 0.7061,-0.96388 0.7817,-2.33886 1.2812,-3.4375 0.4697,-1.03319 1.3331,-1.84473 1.4063,-3.03125 0.092,-1.5 -0.6441,-2.46632 -0.9063,-3.84375 -0.1787,-0.93994 -0.1464,-1.94386 -0.5,-2.84375 -0.6577,-1.67628 -3.5152,-2.91504 -4.75,-4.5 -0.9077,-1.16455 -0.2851,-3.71631 -0.625,-5.34375 -0.3632,-1.73828 -1.6621,-3.53175 -1.625,-5.28125 0.045,-2.12207 2.5835,-4.44775 4,-5.84375 1.0121,-0.99756 1.8482,-1.97949 3.0938,-2.75 0.5753,-0.35596 1.2696,-0.62695 1.875,-0.9375 -0.3398,-0.38526 -0.7388,-0.94482 -1.1562,-1.25 -0.4385,-0.31981 -0.9943,-0.49805 -1.4376,-0.8125 -0.6987,-0.49414 -1.4247,-1.146 -2.1874,-1.53125 -0.7862,-0.39746 -2.7915,-1.33691 -3.4688,-1.875 -0.8359,-0.43408 -1.6728,-0.75977 -2.4062,-1.375 -1.7252,-1.44776 -3.7305,-6.04395 -5.5626,-8 -0.8842,-0.94434 -5.1934,-2.66113 -6.5624,-3.3125 -0.478,-0.22753 -0.9693,-0.58153 -1.5,-0.90625 -1.1831,-0.73094 -2.4678,-1.63038 -3.7188,-2.21875 -0.8892,-0.41846 -1.8892,-0.66943 -2.7812,-1.09375 -0.8229,-0.39161 -1.44,-1.00146 -2.1563,-1.53125 -0.2964,-0.21876 -0.7032,-0.31982 -1,-0.53125 -0.6582,-0.46876 -1.5771,-1.375 -2.4375,-1.375 -1.4022,0 -2.0336,1.65624 -2.4688,2.6875 -2.353,1.62109 -2.9768,1.2832 -5.3437,2.1875 -0.8275,0.31642 -1.6455,0.78174 -2.5313,0.9375 -0.9394,0.16456 -2.0455,0.0772 -2.9374,0.34375 -0.8291,0.24756 -2.7028,2.17725 -3.6563,2.78125 -0.9414,0.59668 -2.2012,1.23291 -3.25,1.625 -1.2301,0.46045 -2.9151,0.74609 -3.9063,1.6875 -1.2619,1.19824 -1.5356,3.13526 -3.25,4.1875 -3.0736,1.88672 -3.8981,0.0415 -6.1874,0.96875 -1.5035,0.60889 -3.6184,2.39399 -5.1563,2.46875 -0.8281,0.04 -1.9815,-0.0156 -2.7813,-0.21875 -1.0053,-0.25536 -2.0356,-0.82226 -3.125,-0.5625 -0.4941,0.4585 -1.3086,0.83351 -1.9062,1.3125 -4.1197,3.4445 -8.9098,1.98047 -13.3125,0 -1.8516,-0.833 -3.5478,-0.4375 -5.4687,-0.4375 -3.1494,0 -7.9463,-1.92773 -9.2188,-5.03125 -0.669,-1.63086 -0.3211,-5.29199 -0.4062,-7.1875 -0.099,-2.20068 -0.6216,-4.36621 -0.7188,-6.5625 -0.019,-0.42676 0.043,-0.88428 0.031,-1.3125 -0.016,-0.76954 -0.2777,-1.49757 -0.3124,-2.28125 -0.083,-1.85449 -0.2544,-3.54688 -0.5938,-5.375 -0.1768,-0.95214 -0.1216,-2.00145 -0.375,-2.9375 -0.5137,-1.896 -2.2306,-4.86229 -3.6875,-6.1875 -0.5132,-0.4668 -1.1948,-0.83202 -1.8437,-1.28125 -0.6656,-0.85106 -1.8208,-1.5752 -2.0313,-2.71875 -0.437,-2.37012 0.6107,-4.94679 0.3437,-7.34375 -0.2465,-2.21729 -2.1607,-5.18212 -1.6562,-7.78125 0.5303,-2.73192 3.5557,-3.95117 3.125,-8.125 -0.3179,-0.61621 -0.5873,-1.25878 -1.0625,-1.78125 -1.2886,-1.4165 -3.0747,-2.36816 -3.4687,-4.4375 -0.6732,-3.53466 2.3042,-5.1792 2.5624,-8 0.2384,-2.60254 -1.8952,-4.31395 -1.8124,-6.3125 0.041,-0.97412 0.7426,-3.08643 0.1562,-3.875 -1.0638,-1.43066 -3.1958,-0.90771 -4.5625,-2.3125 -0.5083,-1.19042 0.2686,-2.66162 0.4687,-3.8125 0.1682,-0.96924 0.1227,-2.21729 -0.062,-3.1875 -0.5903,-3.10058 -3.0396,-3.71045 -3.9376,-5.6875 -0.6118,-1.40039 -0.044,-2.63965 0.2188,-4.03125 0.1694,-0.89696 0.197,-1.8125 0.1562,-2.71875 -0.086,-1.92676 -0.811,-3.55272 -1.4687,-5.3125 -0.5839,-1.56395 -1.2544,-5.91894 -1.0313,-7.53125 0.1992,-1.44091 0.9,-2.42187 1.625,-3.59375 0.5034,-0.81396 0.8364,-1.73485 1.25,-2.59375 0.3302,-0.68603 0.7784,-1.30273 0.9688,-2.0625 0.519,-2.07276 -1.0591,-3.13868 -0.8125,-5.15625 0.227,-1.86035 1.2383,-2.96191 0.6875,-5.03125 -0.4213,-1.58252 -3.1728,-1.76415 -4.4375,-2.375 -1.0283,-0.49658 -1.791,-1.10498 -2.6875,-1.78125 -3.4224,-2.58203 -4.7334,-5.44288 -4.9375,-9.78125 -0.3061,-2.42334 -0.3427,-4.84766 -0.4375,-7.28125 -0.026,-0.65675 0.1225,-1.3418 0.094,-2 -0.023,-0.52246 -0.1544,-1.14941 -0.4376,-1.59375 -0.5024,-0.78712 -2.0585,-1.71972 -2.8437,-2.3125 -0.5362,-0.40429 -0.9336,-0.938 -1.4687,-1.4375 -1.2062,-1.07081 -3.0259,-3.31738 -3.875,-4.71875 -0.5254,-0.86573 -1.022,-1.79883 -1.6563,-2.59375 l -1.2813,2.90625 c -0.5062,-0.54199 -1.6845,-1.17285 -2.375,-1.40625 -1.3906,0.15772 -1.7314,-0.21676 -2.6874,-0.25 -2.0697,-0.0723 -2.5362,0.41357 -4.3438,-0.90625 -0.294,-0.21484 -0.6201,-0.35009 -0.875,-0.625 -0.4336,-0.4663 -1.002,-1.05762 -1.5938,-1.34375 l -0.5312,0.15625 c -0.1422,0.30469 -0.3046,0.62793 -0.5625,0.96875 l -0.3437,0.375 c -1.562,0.67088 -2.7755,-1.38818 -4.3126,-0.9375 -1.0322,0.77486 -0.7529,0.52491 -1.9062,0.84375 -1.1866,0.3285 -2.5161,1.52686 -3.7812,0.40625 -0.3722,-0.32959 -0.4068,-1.01466 -0.5626,-1.46875 l -0.4374,-0.3125 c -0.2926,0.36133 -0.6895,0.90185 -1.1563,1.03125 -0.6205,0.1719 -1.3002,-0.14266 -1.9375,-0.0625 -0.3593,0.0454 -0.7131,0.22266 -1.0938,0.1875 -0.057,-0.005 -0.6082,-0.13189 -0.6562,-0.15625 -0.4746,-0.24169 -1.2159,-0.89746 -1.75,-1.21875 l -0.9375,0.46875 c -0.167,-0.0723 -0.3785,-0.15628 -0.5313,-0.25 -0.3199,-0.19679 -0.4369,-0.52198 -0.6874,-0.75 -0.3803,-0.34668 -0.9942,-0.49756 -1.375,-0.84375 -0.4302,-0.3916 -0.5757,-1.27197 -1.0626,-1.78125 -1.5028,-1.57277 -2.4148,-0.36425 -4.3124,-3.09375 -0.6304,-0.27442 -1.9356,-0.57666 -2.3126,-0.8125 -0.4327,-0.27002 -0.7089,-0.77148 -1.0624,-1.09375 -0.2597,-0.23633 -0.6222,-0.37792 -0.875,-0.65625 -0.4293,-0.47216 -0.563,-1.29979 -1.0938,-1.6875 -1.2784,-0.9336 -1.6767,-0.11915 -2.5312,-2.59375 -0.1972,-0.56983 -0.1672,-1.13086 -0.2188,-1.71875 -0.169,-1.92187 -0.7436,-2.26953 -1.875,-3.6875 -0.069,-0.76416 -0.063,-2.17676 -0.5938,-2.75 -0.2816,-0.13672 -0.8474,-0.17627 -1.125,0 -0.09,0.14258 -0.4713,0.68609 -0.5937,0.78125 -0.8062,0.62598 -3.0728,0.4248 -4,0.125 l -0.5937,0.1875 c -0.4048,0.65674 -2.3877,0.89842 -2.5626,0.8125 -0.3349,0.12451 -0.6211,0.32765 -0.9374,0.5625 -1.083,0.79248 -2.0005,1.91261 -2.7813,3 -0.5214,0.72706 -0.7548,1.69141 -1.5,2.28125 l -0.125,0.625 0.3125,0.40625 0.031,0.59375 -0.2187,0.40625 c -0.2885,-0.1089 -0.7885,-0.0801 -1.0625,0.0625 -0.7592,0.86083 0.023,2.06152 -0.5625,3 l -0.5,0.125 -0.5625,-0.21875 c -0.3316,0.009 -0.7431,0.11133 -1.0312,0.28125 -0.7788,1.38036 -1.0401,1.42626 -1.9688,2.5 -0.4068,0.47021 -0.2906,0.8833 -1,1.15625 -0.707,0.27246 -1.5278,0.15382 -2.25,0.40625 l -0.3438,0.375 0,0.53125 0.7813,0.6875 c 0.125,0.3457 0.1658,0.82275 0.125,1.1875 -0.1109,0.27392 -0.4405,0.66113 -0.7187,0.78125 l -0.4063,-0.34375 c -0.021,-0.28906 -0.1953,-0.73388 -0.4063,-0.9375 -0.5614,-0.33252 -1.227,-0.2246 -1.7812,-0.5625 -0.2456,-0.44725 -0.4033,-0.99414 -0.75,-1.375 l -0.5312,-0.21875 c -0.292,-1.06543 -0.9654,-2.26563 -2.3126,-1.84375 l -0.3437,0.40625 -0.062,1.3125 -0.3125,0.46875 -0.5,0.125 c -0.2485,0.61621 -0.1404,1.34668 -0.5,1.90625 l -0.4687,0.25 -0.5313,-0.25 c -0.439,-0.7749 -0.1699,-1.07519 -1.0313,-1.75 -0.731,-0.0435 -2.3676,1.1499 -3.1874,1.5 -0.5597,-0.10303 -0.7812,-0.63232 -1.1876,-0.96875 -0.2963,-0.0381 -0.8003,0.11035 -1,0.34375 -0.6845,1.61279 -0.094,1.8994 -0.3437,2.9375 -0.562,0.41845 -1.2017,0.17236 -1.9375,0.8125 -0.202,0.29687 -0.2968,0.8672 -0.25,1.21875 l -0.3438,0.375 -0.6562,0 c -0.1944,-0.1294 -0.7173,-0.52883 -0.9062,-0.59375 -0.6051,-0.20752 -1.9766,-0.20996 -2.3438,-0.8125 -0.6035,-1.78271 1.119,-3.26074 -0.3438,-4.53125 -0.2446,-0.21192 -0.539,-0.37697 -0.875,-0.40625 -0.307,0.0854 -0.6468,0.30957 -0.875,0.53125 -0.086,0.63721 -0.049,1.31688 -0.2187,1.9375 -0.4008,0.38279 -1.2569,0.2085 -1.7187,0.0312 -0.1187,-0.47705 -0.5111,-0.93848 -0.9063,-1.21875 -0.504,0.65528 -1.4649,1.41454 -2.2813,0.8125 l -0.2187,-0.46875 c 0.077,-0.53662 0.3413,-1.47901 0.094,-1.96875 l -0.5,0 c -0.2504,0.20117 -0.5048,0.54541 -0.625,0.84375 l -0.5,0.25 -0.5312,-0.25 c -0.29,-1.19971 -1.492,-0.89999 -2.375,-0.96875 l -0.2812,0.375 -0.4063,0.0937 c -0.1889,-0.20996 -0.6557,-0.37795 -0.9375,-0.34375 -0.5298,0.28514 -1.1538,0.41558 -1.75,0.3125 -0.4151,-0.24023 -0.8394,-0.61669 -1.0312,-1.0625 l -0.4063,-0.125 c -0.7085,0.9043 -0.772,1.22851 -2.0313,1.46875 -0.3212,-0.10841 -0.6772,-0.3125 -0.9374,-0.53125 l -0.5626,0 -0.25,0.40625 -0.5937,0.15625 c -0.4326,-0.25049 -0.7759,-0.65186 -1.0937,-1.03125 l 0.1562,-0.5625 c 0.2658,-0.0874 0.6011,-0.42384 0.6875,-0.6875 l -0.1875,-0.5 c -1.5334,-0.18652 -3.4828,0.0161 -4.75,-1 -0.7403,0.0796 -1.207,0.62353 -1.6875,1.125 -0.7012,0.35449 -1.9365,-0.29785 -2.5,-0.75 -0.1056,-0.33155 -0.096,-0.90625 0.062,-1.21875 -0.079,-0.45508 -0.4721,-0.94533 -0.9375,-1.03125 l -0.6563,0.0937 c -0.9077,0.78418 -0.6303,1.62109 -1.25,2.25 -0.6464,0.65528 -3.2489,0.78516 -3.9687,0.25 -0.312,0.16847 -0.683,0.27979 -1.0313,0.34375 -0.8931,-0.30956 -1.8267,-1.74657 -2.375,-1.78125 l -0.2812,0.4375 c -0.3864,0.0649 -0.7971,0.0801 -1.1875,0.0625 l -0.1875,0.28125 c 0.1586,0.27098 0.2391,0.75586 0.1875,1.0625 -2.0371,1.11329 -2.3496,-0.75982 -3.9687,-0.8125 l -0.4688,0.25 0,0.71875 -0.3125,0.21875 -0.6563,-0.0625 c -1.3843,-1.25438 -0.7407,-2.45655 -3.5312,-3.0625 -0.6299,-0.13673 -1.3267,0.30909 -1.9375,0.125 -0.9234,-0.27784 -1.4321,-1.06296 -2.1563,-1.125 -0.9379,0.36582 -0.7687,0.25243 -1.6874,0.40625 -0.738,0.12305 -1.2779,0.70415 -2.2188,0.59375 l -0.2812,-0.21875 -0.1563,-0.53125 -0.2813,-0.1875 c -0.1592,0.25488 -0.5884,0.52691 -0.875,0.59375 -0.7324,-0.19873 -0.6416,-0.59912 -0.9687,-1.09375 -0.5298,-0.80126 -1.5649,-0.75537 -2.2813,-1.1875 -0.4399,0.29198 -0.4545,0.95899 -0.6874,1.40625 -0.5844,0.249 -1.2436,0.0127 -1.8126,0.25 -0.3563,0.14844 -0.5542,0.41746 -1,0.4375 -0.7881,0.0347 -0.891,-0.44481 -1.4687,-0.65625 -0.5126,-0.18798 -1.0967,-0.11475 -1.3125,-0.8125 -0.113,-0.38184 0,-0.89696 -0.125,-1.28125 -0.3002,-0.94384 -1.5849,-2.25879 -2,-3.6875 -0.2046,-0.70459 -0.149,-1.64892 -0.5,-2.28125 l -0.4701,-0.2186 c -0.8879,0.0859 -1.1103,0.75195 -1.7812,1.03125 -1.5698,0.65381 -3.3643,-0.49756 -4.7188,-1.21875 -1.9585,0.0376 -1.4062,1.12403 -2.4374,1.53125 -0.5513,-0.0449 -1.503,-0.43018 -2,-0.25 -0.4576,0.81202 0.4243,1.47852 0.125,2.28125 -0.7798,0.36865 -2.7461,-0.007 -3.4376,-0.5625 l -0.4062,0 c -0.4541,1.14014 -0.8336,1.79102 -2.0625,2.1875 -0.8717,-0.14599 -1.1534,-1.39355 -1.4687,-2.09375 -0.566,-0.35561 -1.6319,-0.54981 -2.2813,-0.40625 l -0.1563,0.59375 c -1.1345,1.01514 -2.6113,0.0312 -3.6874,-0.4375 -1.0821,-0.47119 -2.167,-0.12304 -2.9063,-1.34375 -0.6029,-0.99511 -0.2581,-2.57373 -1.8437,-3.03125 -0.4772,-0.0195 -1.8595,0.67042 -2.25,0.96875 -0.2134,-0.4746 -0.5433,-1.22412 -0.5313,-1.75 0.01,-0.49315 0.01,-1.24714 0.031,-2.0625 l -433.9688,0 z" id="rect2259" transform="matrix(0.99729613,0,0,0.57939445,-1381.9159,87.320509)" inkscape:connector-curvature="0"/>
    <path style="font-size:12px;fill:#0038a8;fill-opacity:1;fill-rule:evenodd;stroke:#0038a8;stroke-width:0.7601499;stroke-miterlimit:4;stroke-opacity:1;stroke-dasharray:none" d="m 474.02103,333.32784 c 0.1966,0.038 0.3957,0.0634 0.6233,0.0905 1.0845,0.1293 2.3676,0.0628 3.4905,0.16296 0.859,0.0764 1.7796,0.21727 2.6491,0.21727 0.7729,0 1.564,-0.14485 2.3374,-0.14485 0.819,0 5.5333,0.53102 6.2331,0.74235 0.4504,0.13579 0.8469,0.42776 1.2778,0.56129 0.8124,0.45746 3.6755,0.12986 4.6748,0.56129 0.4304,0.18559 2.4622,1.77666 2.6802,2.0822 0.1953,0.27356 0.2898,0.6272 0.6544,0.85098 0.4491,0.27527 1.2632,0.38024 1.7453,0.65182 0.2274,0.88805 0.8956,1.4847 2.1505,1.99167 0.2781,0.11231 0.6817,0.18304 0.9349,0.3078 0.2766,0.13609 0.2952,0.28659 0.7169,0.38023 0.2089,0.25009 0.5975,0.56695 0.748,0.81477 0.2649,0.43738 0.2439,1.05779 0.9348,1.39417 1.6635,0.31913 4.1549,-0.46623 5.3294,-1.15879 0.2338,-0.13778 0.4036,-0.3293 0.6233,-0.47075 0.2278,-0.1474 0.5381,-0.24359 0.7791,-0.38023 0.4738,-0.26877 0.8123,-0.62212 1.2778,-0.8872 0.4095,-0.2334 1.7726,-0.64705 2.3374,-0.66992 1.6173,-0.0654 2.1681,1.00714 3.1477,1.52091 0.3867,0.20256 0.6832,0.40003 1.0597,0.6156 1.239,0.7101 3.1614,0.83939 4.5501,1.55712 0.2528,0.13043 0.7158,0.61561 0.7792,0.81478 1.0129,0.57686 3.2699,0.19153 4.6436,0.56128 1.4614,0.39324 2.2478,1.31637 3.2724,1.4847 1.2391,0.20368 2.6447,-0.45547 3.8023,-0.0362 l 0.2804,0.10864 c 0.5834,0.47274 0.6414,1.29713 1.3402,1.62954 0.3788,0.17994 1.2343,0.32588 1.714,0.30781 0.3741,-0.0141 0.7597,-0.097 1.1532,-0.10864 2.5577,-0.0752 5.6083,-0.26056 7.9471,0.52508 1.9387,0.65096 1.9884,1.76675 3.3036,2.60727 1.4845,0.94887 5.1228,1.22753 6.576,2.11841 0.2312,0.14202 0.7989,0.48774 0.9348,0.65182 0.8615,1.04081 0.5037,2.40528 1.6831,3.36773 0.6017,0.49141 2.3649,1.94838 3.023,2.31758 0.3305,0.1853 0.8039,0.432 1.1843,0.57939 0.6296,0.24415 1.3898,0.21784 1.8699,0.63372 0.49,0.42379 0.4836,0.95538 0.9349,1.41227 0.4865,0.49197 1.4478,0.89399 1.683,1.46659 0.2168,0.52791 -0.1281,1.04959 -0.031,1.55712 0.033,0.17314 0.2243,0.389 0.2805,0.5794 l 0.3428,0.18106 c 0.339,0.17087 0.581,0.44897 0.8415,0.61561 0.5542,0.35391 2.1286,0.96274 2.8672,1.28553 0.7392,0.32308 1.6196,0.41785 2.3686,0.72424 0.4046,0.1655 1.3483,0.53074 1.6206,0.74235 0.3267,0.25489 0.4675,0.70585 0.4675,1.01394 0,1.52119 -0.5376,1.65162 -1.3401,2.95129 -0.6399,1.07844 -0.9875,2.62227 -0.8727,3.72985 0.036,0.3491 0.2889,0.72566 -0.062,1.05015 -1.1063,0.32422 -2.0716,-0.29959 -2.9607,-0.0543 l -0.6233,0.47075 c -0.1427,0.763 0.9504,2.08248 -1.309,2.20894 -1.0553,-0.19577 -1.8257,-0.94915 -2.649,-0.97772 -1.9386,0.62776 -0.8663,2.28646 -2.2128,2.87886 -2.5989,1.14351 -4.5993,-1.3025 -8.1031,2.26326 -1.6181,1.64624 1.067,1.24423 2.431,1.82872 0.078,0.79072 -1.6327,1.01167 -2.431,1.43038 -1.6993,0.89144 -1.6695,1.21734 -4.1138,1.64765 -0.6962,0.30101 -0.9759,0.62778 -1.0596,1.12258 0.5752,0.87419 2.1563,1.59023 1.7141,2.58916 -0.025,0.0555 -0.3933,0.36579 -0.4674,0.43455 -0.7174,0.66625 -1.6864,1.02583 -3.0231,1.21311 -0.1856,0.026 -0.4116,0.005 -0.5921,0.0362 -0.3517,0.0605 -2.3935,0.79751 -2.5868,0.95962 -0.1358,0.11373 -0.2997,0.47161 -0.3117,0.61561 l 0.2181,0.2897 c 0.6118,0.2317 1.5015,0.38475 2.0258,0.65181 0.2455,0.12477 0.4615,0.41673 0.4364,0.59751 -0.2269,1.63718 -5.1418,1.18566 -5.1423,2.75212 0,0.27781 0.2357,0.55845 0.6233,0.74235 0.5794,0.27526 2.3769,0.33496 3.7399,0.83288 0.3431,0.25122 0.3831,0.55138 0.2181,0.83288 -0.3561,0.6074 -2.128,0.8524 -2.9607,1.2131 -0.6666,0.28886 -1.2043,0.75565 -1.8699,1.03205 -0.1277,0.0529 -0.3312,0.0781 -0.4676,0.12674 -0.2843,0.10157 -0.4899,0.27301 -0.7479,0.38023 -0.2787,0.11572 -0.6527,0.16408 -0.935,0.27159 -0.4188,0.15928 -0.7996,0.34459 -1.2466,0.48887 -0.7753,0.24952 -1.6619,0.3392 -2.4309,0.6156 -1.4481,0.52055 -1.3211,1.55401 -2.9919,1.97356 -0.3389,0.14966 -0.6214,0.33242 -0.935,0.41644 -0.1476,0.0396 -3.5134,0.64445 -3.6152,0.65182 -0.6486,0.0472 -1.2836,-0.0642 -1.9322,0.0543 -0.7309,0.13325 -2.8526,1.34438 -3.3659,1.73819 -1.5612,1.19698 0.4826,1.97922 -0.5298,2.95129 -0.3672,0.23368 -1.1769,0.23679 -1.6206,0.0905 -0.1953,-0.2266 -0.9525,-0.70218 -1.309,-0.85099 l -0.6545,0 -0.4051,0.19917 -0.1558,0.32591 c 0.3822,1.16332 4.2209,1.54921 4.7371,2.15462 0.3624,1.80382 -5.7763,1.83975 -6.4512,2.60728 -0.6626,0.75367 1.5349,1.16105 0.9349,2.80644 -0.3598,0.98679 -1.1295,1.93933 -1.8075,2.86076 -0.7977,1.08326 -2.805,2.32861 -2.805,3.56689 0,1.46292 1.9688,0.98339 2.7114,1.72008 l -0.031,0.38023 c -1.8617,1.27478 -2.1154,0.0164 -2.3998,2.31758 -2.1763,3.5154 -0.4157,2.37529 1.9012,3.78417 0.8541,0.51913 1.2135,1.45584 1.8699,2.0822 l -0.031,0.34401 -0.3428,0.21727 c -0.5034,10e-4 -0.8494,0.19012 -1.2155,0.36213 -1.9416,0.91436 0.8632,1.50902 0.3429,2.62538 -1.7745,0.86342 -4.2498,-0.36469 -5.4851,-0.39834 l -0.063,0.12675 c -0.2514,0.42889 0.043,0.78535 0.1247,1.2131 0.2255,1.17407 -0.5768,2.25109 -0.6856,3.40395 -0.068,0.72085 0.3833,1.51186 0,2.20894 -0.8746,0.52139 -1.8657,0.11742 -2.8672,0.12674 -0.7471,0.20709 -1.2836,0.45153 -1.1844,0.99583 0.374,0.45746 1.412,0.74151 1.3402,1.28553 -0.2707,0.23454 -0.6891,0.34685 -1.122,0.45266 -2.1591,0.52763 -2.5959,-0.37511 -4.2385,-0.30781 -1.2432,0.44898 -1.1843,0.36014 -1.6517,1.23122 0.2103,0.44501 0.1816,0.82326 0.5609,1.24932 1.0932,0.38872 3.0572,0.8241 2.431,1.7925 -0.7168,0.61984 -2.2075,0.604 -3.3037,0.41644 -2.5243,0.38163 -4.0985,1.78062 -5.5785,2.1003 -1.3913,0.30045 -5.329,0.62297 -6.2331,1.14069 -0.5011,0.28686 -0.7251,0.91039 -0.6546,1.30363 0.584,0.36071 1.0344,0.78818 1.4649,1.21311 -0.1115,0.67021 -0.2602,0.68605 -0.9662,1.17689 -1.4963,1.04139 -1.89,0.87617 -2.3997,2.29948 -0.1437,0.40229 -0.1354,0.81901 -0.4675,1.195 l -0.374,0.18106 -0.6856,0 -0.3428,-0.19917 c -0.027,-0.21869 -0.067,-0.45349 -0.1247,-0.66992 l -0.3116,-0.21728 c -0.5318,-0.0554 -1.1151,-0.0433 -1.5583,0.16296 -0.7416,0.34485 -1.5728,1.58909 -1.6206,2.0822 -0.077,0.79553 0.9095,1.30476 0.2804,1.97356 -0.9207,0.97773 -4.6435,0.42577 -6.3577,1.05015 -0.7685,0.28008 -1.5725,0.90106 -2.0569,1.33985 -3.3134,3.00137 3.841,3.81189 4.7994,5.52235 0.3355,0.59864 -0.4687,3.66733 -0.5297,4.34546 1.1978,-0.15135 2.1933,-0.57175 3.3035,-0.83288 1.0932,-0.25715 5.3056,-0.81789 6.5448,-0.92341 2.859,-0.009 5.6196,-0.36127 8.4146,-0.21727 1.3685,0.0707 3.6177,0.69227 5.1424,0.56129 1.8908,-0.16267 3.4745,-0.5859 5.2046,-0.99583 1.5599,-0.36948 5.2405,-0.61448 6.9811,-0.68804 1.14,-0.0478 2.3252,0.0835 3.4593,0.10864 2.1113,0.047 3.774,0.1672 5.8591,0.34402 2.0421,0.17313 3.945,0.52817 6.0462,0.50697 1.1852,-0.0119 2.4296,-0.0911 3.584,-0.25349 1.098,-0.15447 0.8771,-0.48544 2.4309,-0.52507 1.6965,-0.005 3.0937,0.19803 4.6125,0.3259 2.8818,0.24303 5.6907,0.62607 8.5706,0.8691 0.962,0.0812 1.7372,0.0322 2.6801,0.0181 0.97,-0.0147 2.8294,0.088 3.8023,0.19917 0.9625,0.11006 1.6191,0.49961 2.4932,0.63371 1.3065,0.20058 2.5745,0.047 3.8957,0.38023 0.3457,0.0871 0.5385,0.21445 0.8415,0.32591 0.3106,0.1143 0.6875,0.18728 0.9973,0.3078 2.4055,0.93472 4.5112,2.44687 7.3238,2.98751 1.8573,0.35702 3.829,0.52536 5.7657,0.66992 1.4067,0.10499 2.6533,0.0753 4.0514,0.2897 1.5944,0.24473 3.1739,0.53243 4.7684,0.77856 0.9519,0.14681 1.8806,0.43512 2.836,0.57939 0.5454,0.0823 1.2748,0.11377 1.7765,0.27159 1.0016,0.31543 1.6307,0.80009 2.836,0.94152 2.7908,0.32788 5.0635,-0.40795 8.4148,0.10864 2.3759,0.36664 4.2968,1.22415 6.42,1.88303 2.0019,0.62157 4.441,1.083 6.6383,1.41227 1.6236,0.24306 7.2552,0.63595 8.7575,0.47076 1.2144,-0.13356 2.3734,-0.85098 3.3659,-1.24932 0.8404,-0.33749 1.79,-0.60796 2.6801,-0.9053 3.1389,-1.04847 6.8888,-2.38345 10.6275,-2.33569 2.2531,0.0286 3.2402,0.71769 4.7059,1.55713 0.2446,0.14027 0.5908,0.22463 0.8416,0.36212 1.8266,1.00206 3.4598,2.54678 5.9214,3.04182 1.6439,0.33072 2.7514,0.55332 4.4566,0.21727 0.5347,-0.39352 1.0967,-0.76016 1.6206,-1.15879 l 0.2182,-0.0543 c 2.0774,-1.59675 8.0982,-2.19083 11.3443,-2.11841 1.7066,0.0379 3.2884,0.24018 4.8929,0.56129 0.5625,0.11257 1.3315,0.18674 1.8077,0.39833 1.3225,0.58618 1.1598,1.37636 1.87,2.13652 0.1246,0.21073 0.2326,0.40905 0.4362,0.5794 0.5795,0.4846 1.4673,0.80938 2.057,1.28553 0.5269,0.42603 0.7728,0.84363 1.4647,1.2131 0.6871,0.36636 1.5037,0.68293 2.2439,1.01395 1.1018,0.49282 2.9366,1.13452 4.5191,1.24931 l 0.9349,0 c 1.1916,-0.1055 2.0886,-0.84337 2.6803,-1.37606 0.1908,-0.17202 0.4115,-0.29766 0.5609,-0.48886 1.0518,-1.34466 0.5269,-2.29411 2.9607,-3.44016 0.6715,-0.46055 1.4512,-0.85124 2.1504,-1.26742 1.7518,-1.04251 1.273,-2.63216 0.8726,-3.92902 -0.1078,-0.34937 -0.3368,-0.71575 -0.1246,-1.06826 0.9062,-1.50394 4.3384,-0.83627 6.1396,-1.39417 2.2795,-0.70581 2.6776,-2.19508 4.4255,-3.18667 0.5835,-0.33129 1.5593,-0.5511 2.3375,-0.66992 1.4979,-0.22887 8.2548,-0.46567 9.6612,-0.25349 1.2466,0.18786 2.164,0.75027 3.3036,1.05016 3.6508,1.60268 6.8307,-0.62579 10.5651,0.70613 3.043,1.08527 1.8095,2.78608 2.836,3.58501 0.2216,0.17231 1.1658,0.78421 1.4648,0.86909 0.4923,0.13975 1.1064,0.22321 1.6206,0.34401 1.3738,0.32278 2.5576,0.71573 3.7399,1.23122 l 0.062,0.0905 c 2.2966,0.65123 4.4149,0.68664 6.1397,-0.54318 0.3238,-0.23055 0.5117,-0.53302 0.8414,-0.77857 0.5576,-0.41478 1.2159,-0.63936 1.6518,-1.12257 0.4646,-0.51543 0.7923,-1.24139 1.6518,-1.57523 2.0149,-0.78282 5.5557,-0.36238 7.1368,-1.57523 2.9915,-2.29436 1.0145,-3.5106 1.3402,-4.07387 0.1485,-0.18049 1.1799,-0.58562 1.527,-0.76045 0.6385,-1.33986 -0.4152,-2.29693 -1.6828,-3.33152 -0.394,-0.32138 -0.9365,-0.57289 -1.1844,-0.95962 -0.1547,-0.24275 -0.1512,-0.52649 -0.2493,-0.77856 -0.1075,-0.27386 -0.057,-0.64419 0.374,-0.83288 0.7057,-0.27951 2.1433,0.21557 3.0231,0.12674 1.9308,-0.19464 1.4584,-2.39905 1.7765,-3.25909 0.5258,-0.40965 0.7942,-0.46029 1.5893,-0.61561 3.0379,-0.59383 5.2024,0.7712 7.137,-0.41644 1.1803,-0.72481 0.2887,-2.93007 0.7168,-3.96523 0.2069,-0.50074 0.7719,-0.96783 1.2466,-1.39417 0.132,-0.11826 0.2341,-0.25942 0.4052,-0.36212 2.3403,-1.72913 3.6434,-2.08899 7.4485,-2.19084 0.9647,-0.0257 1.9423,-0.003 2.8672,-0.19916 0.7757,-0.16409 1.4872,-0.51433 2.1505,-0.77856 0.9423,-0.37514 3.2611,-0.76527 4.3943,-0.68804 0.7489,0.0512 1.31,0.39918 1.9634,0.56129 0.5718,0.14174 1.2258,0.0453 1.7764,0.2897 0.5084,0.22576 0.9813,0.62834 1.6517,0.72424 1.0969,0.15645 2.3507,-0.20878 3.3659,-0.38022 0.5439,-0.0919 1.2101,-0.0617 1.7453,-0.16296 0.3399,-0.0642 0.6258,-0.20057 0.9973,-0.25348 2.053,-1.65558 -1.0898,-3.09954 -0.2493,-4.59895 0.4037,-0.72028 2.058,-1.12937 3.0543,-1.52091 0.3062,-0.12052 0.4713,-0.28829 0.7167,-0.43454 0.3575,-0.21276 0.8026,-0.35619 1.0908,-0.61561 0.9447,-0.85099 1.4799,-1.49517 3.179,-1.93735 0.9631,-0.25034 3.2631,-0.22156 4.3631,-0.19917 0.293,-0.013 0.4704,-0.0436 0.6545,-0.0543 3.6281,-0.21359 4.7578,-1.82786 5.1422,-3.72985 0.1374,-0.67897 0.046,-1.72998 0.4987,-2.33568 0.3541,-0.47359 1.6625,-1.22754 2.3998,-1.52091 0.6203,-0.24699 1.5864,-0.576 2.3062,-0.68803 1.1711,-0.18248 4.6378,-0.21049 5.08,0.65181 0.3145,0.099 0.6549,0.0993 0.9973,0.0905 1.7387,-0.0455 1.6658,-1.06826 2.2127,-1.81061 0.4738,-0.64333 1.4152,-0.90191 1.5583,-1.66576 0.2327,-1.24621 -0.3103,-2.4927 -0.9973,-3.65743 -0.1661,-0.29875 -0.4772,-0.6504 -0.561,-0.92341 -0.2756,-0.89256 1.6947,-1.55259 2.7426,-2.04599 0.8146,-0.41105 1.3499,-0.94151 2.0258,-1.33985 0.3725,-0.21953 0.7902,-0.35448 1.2154,-0.52507 1.4959,-0.60033 2.5667,-1.23404 3.3971,-2.19084 0.9617,-1.10786 0.1065,-1.50111 0.3428,-2.53485 0.1197,-0.52423 1.3956,-3.28738 1.7452,-3.76606 0.6181,-0.84504 1.2745,-1.6567 1.4336,-2.58917 0.224,-1.30901 -1.4599,-0.95622 -1.0596,-2.39 0.01,-0.0204 0.1691,-0.4212 0.187,-0.43455 0.8462,-0.60966 3.14788,-1.51186 3.24123,-2.31758 0,-0.0263 -0.19547,-0.59042 -0.21821,-0.66992 -0.50194,-0.30752 -1.85132,-0.93728 -2.15042,-1.23121 -1.0494,-1.0329 0.7207,-2.93008 1.1531,-4.00145 0.2339,-0.57826 0.4832,-1.27364 0.49867,-1.86492 0.0169,-0.6422 -0.22287,-1.37493 -0.71677,-1.95546 -0.3238,-0.38022 -0.8258,-0.61589 -0.9661,-1.06826 -0.1272,-0.40823 0.1136,-0.84221 0,-1.26742 -0.1,-0.37231 -0.393,-0.70982 -0.5922,-1.06826 0.166,-1.15228 4.6601,-0.56949 5.98381,-1.7925 l -0.0309,-0.38023 c -0.32153,-0.14428 -0.71596,-0.90671 -0.87264,-1.15879 -0.27625,-0.44473 -0.65682,-1.44283 -0.59219,-1.90114 0.0758,-0.53696 1.08456,-2.016 1.58949,-2.49864 0.57594,-0.54941 1.30785,-1.02554 1.4024,-1.70197 0.12326,-0.87814 -1.12505,-1.4847 -1.90105,-2.13651 -0.53475,-0.44814 -1.11567,-1.10108 -1.43371,-1.61145 -0.41537,-0.66568 -0.48987,-1.60691 -0.71676,-2.31757 -0.40809,-1.27732 -1.84275,-2.41094 -1.58935,-3.76607 0.049,-0.26339 0.2848,-0.46651 0.62327,-0.63371 1.6594,-0.82043 3.87519,1.18256 5.07993,-0.63371 0.72224,-1.08863 -3.22655,-3.24891 -1.34007,-4.11008 0.72314,-0.36976 0.37987,-1.35853 0.34277,-1.82872 -0.0399,-0.50045 0.0947,-1.02977 0,-1.52091 -0.0509,-0.26367 -0.53525,-0.78083 -0.71675,-1.06825 -0.26977,-0.44898 -0.29231,-0.96415 -0.49865,-1.43038 -0.30148,-0.68096 -1.24034,-1.93085 -0.56108,-2.57107 0.63328,-0.59665 1.60904,-1.02893 2.11925,-1.70197 0.20505,-0.27018 0.46315,-0.63994 0.5922,-0.92341 0.19866,-0.43822 0.26817,-1.42896 0.59219,-1.77439 0.7401,-0.78789 2.22008,-1.22895 3.14767,-1.91925 0.63747,-0.47444 1.23395,-0.94151 1.77638,-1.44848 0.19138,-0.17879 0.5157,-0.27781 0.71686,-0.43455 0.18599,-0.14485 0.23376,-0.32789 0.46753,-0.47076 0.47771,-0.29195 1.13612,-0.62296 1.37128,-1.03204 0.27177,-0.47473 0.61893,-0.94321 0.87264,-1.43038 0.68654,-1.31609 0.9204,-2.94112 2.6179,-3.98334 1.40399,-0.86231 2.63246,-0.85127 3.49054,-2.0822 0.16684,-0.24018 0.34526,-0.37513 0.37398,-0.65182 0.11679,-1.13021 -2.85994,-2.06325 -3.24121,-2.9875 -0.35653,-0.86258 -0.17931,-1.77242 0,-2.64349 0.18988,-0.92454 0.20295,-1.69715 0.71676,-2.62538 0.21561,-0.95283 1.00008,-1.94074 1.6206,-2.82454 0.27845,-0.39691 0.75625,-0.73811 0.93497,-1.15879 0.31165,-0.7483 0.1831,-1.63663 0.31165,-2.40811 0.1871,-1.1206 0.64864,-2.20272 0.96608,-3.29531 0.0658,-0.22575 0.32393,-0.41134 0.43642,-0.6156 0.0878,-0.16047 0.15318,-0.3206 0.21811,-0.48887 l -402.87642,0 z" id="rect2260" inkscape:connector-curvature="0"/>
    <path style="font-size:12px;fill:#d52b1e;fill-opacity:1;fill-rule:evenodd;stroke:#d52b1e;stroke-width:0.7601499;stroke-miterlimit:4;stroke-opacity:1;stroke-dasharray:none" d="m 436.96484,-0.00498367 c -13.5127,0.245709 -27.0308,0.340052 -40.5463,0.525076 -1.1407,0.01559 -2.3192,0.06294 -3.4593,0.05429 -4.6687,-0.03534 -9.3253,-0.108636 -13.9934,-0.108636 -7.7654,0 -15.5464,0.107124 -23.3118,0.162954 l -5.4851,0.03621 c -1.0752,0.007 -5.0831,0.87857097 -6.2954,1.08636497 -13.8062,2.365528 -27.6735,4.635156 -41.5124,6.934627 l -0.1871,0.01808 c -1.668,0.29154 -3.3475,0.544886 -5.0176,0.83288 -1.8488,0.318841 -3.7807,0.7095317 -5.6721,0.9234097 -7.4632,0.844195 -14.9482,1.549764 -22.408,2.408104 -4.5814,0.52705 -9.2304,1.00107 -13.8375,1.44849 l -0.187,0.0181 c -1.4205,0.20341 -2.8661,0.31119 -4.3008,0.47075 -3.4519,0.38363 -6.8887,0.73966 -10.3469,1.10447 -8.0618,0.85028 -16.1283,1.66987 -24.1845,2.53485 -2.8701,0.30823 -5.7734,0.55097 -8.6329,0.8872 -7.4438,0.87532 -15.0104,1.58994 -22.5015,2.31758 -0.9508,1.61215 -2.0231,3.19091 -2.9918,4.79811 -3.3362,5.53409 -6.7297,11.04612 -10.1288,16.56706 -0.8296,1.34763 -2.2325,4.18505 -3.4594,5.25076 -8.8441,7.68349 -17.6988,15.38111 -26.3972,23.12146 -0.567,0.50485 -1.2273,0.99725 -1.8387,1.4847 l -0.3428,0.27159 c -1.5227,1.23362 -3.0303,2.47022 -4.4879,3.72985 0.1643,2.92259 0.1,5.85888 0.2182,8.78145 0.2358,5.8583 0.5609,11.72313 0.5609,17.617214 0.084,0.91946 0.3974,2.56003 0.2182,3.40395 -0.1206,0.56779 -0.6917,1.2663 -0.9661,1.82871 -0.9977,2.04599 -2.0176,4.08603 -3.0855,6.11985 -1.5981,3.04437 -3.0567,6.13598 -4.55,9.19789 -1.5534,3.18498 -3.3011,6.33062 -4.7996,9.5238 -1.7582,3.74654 -3.8178,7.46903 -5.6409,11.20766 -3.0819,6.31874 -6.481,12.57863 -9.5367,18.90274 l -0.062,0.12674 c -0.5724,1.01776 -1.0933,2.04716 -1.6206,3.07804 l 432.79539,0 c 0.0439,-0.81155 0.16156,-1.72708 0.49865,-2.15463 0.2219,-0.2812 1.04058,-0.76327 1.46473,-1.08636 0.43362,-0.3211 0.14072,-1.21961 0.28054,-1.62955 0.12656,-0.37088 1.624,-1.72008 2.05682,-2.1003 0.22788,-0.20002 0.72085,-0.30469 0.87264,-0.56129 0.13643,-0.23058 0.0419,-0.53752 0.0937,-0.77856 0.0808,-0.37231 0.54931,-0.84533 0.81031,-1.195 -0.31605,-1.34778 -3.30604,-1.91019 -3.36588,-2.55296 0.13633,-0.55563 2.10759,-1.59956 2.46203,-2.6978 0.21092,-0.65267 0.23376,-1.43802 -0.21811,-2.0641 -0.13045,-0.1805 -0.40461,-0.31997 -0.52987,-0.48886 -0.80332,-1.08608 1.57095,-2.49808 2.805,-3.16857 0.59309,-0.32223 1.09373,-0.75932 1.68284,-1.05015 l 0.0937,-0.36212 c -1.42633,-1.36843 -4.78722,-1.86464 -4.45671,-4.05576 0.0758,-0.50188 0.31604,-1.02553 0.87263,-1.43038 0.56786,-0.41304 1.5857,-0.58788 1.96348,-0.8872 -0.0299,-0.15927 -0.0977,-0.56977 -0.187,-0.70614 -0.19387,-0.29451 -1.05524,-0.60768 -1.46473,-0.81477 -0.40859,-0.20652 -0.67796,-0.39437 -0.99729,-0.63371 -1.43431,-1.07533 -2.31303,-1.37012 -1.12196,-2.89697 1.03749,-1.41256 1.79533,-2.91083 3.11655,-4.25493 0.74638,-0.7596 1.78406,-1.47706 2.6179,-2.20894 0.68744,-0.60344 1.22029,-1.24169 1.86993,-1.84682 0.66849,-0.62296 1.01226,-0.72453 1.68284,-1.50281 -0.0638,-0.45689 -0.12596,-0.9005 -0.90375,-1.14068 -0.75475,-0.0373 -1.59687,-0.0744 -2.27503,-0.2897 -1.12296,-0.3559 -2.54839,-1.12484 -2.15047,-1.93735 0.8478,-1.73139 6.06216,-1.35201 6.66942,-5.9569 0.12127,-0.91973 -0.25541,-1.74866 -0.31166,-2.64348 -0.0409,-0.64446 0.38496,-1.18708 0.46743,-1.81061 0.0678,-0.51376 -0.14879,-1.00432 -0.24932,-1.50281 -0.0409,-0.20256 0.0509,-0.41785 -0.0937,-0.6156 -0.49726,-0.67983 -1.46912,-0.67361 -1.77649,-1.01394 0.011,-0.67699 0.74309,-0.86656 1.12196,-1.39417 0.21681,-0.30214 0.30437,-0.61023 0.59219,-0.9053 0.21422,-0.21982 0.41687,-0.24048 0.68565,-0.39834 0.29609,-0.17371 0.53375,-0.45972 0.87263,-0.72424 1.07947,-1.03487 0.95671,-1.81259 -0.0618,-2.82455 -0.2577,-0.25519 -0.31315,-0.545124 -0.96618,-0.579394 -0.2611,0.235664 -0.79525,0.838254 -1.12196,0.977724 l -0.56088,0.0724 c -0.32482,-0.20991 -0.7743,-0.41192 -1.05973,-0.63371 -0.59309,-0.461984 -0.71426,-1.157384 -1.49594,-1.539024 -1.05065,-0.51291 -3.00655,-0.22858 -3.92676,-0.97773 l -0.12466,-0.34401 c 0.18839,-0.26537 0.45188,-0.55902 0.84142,-0.74235 0.69542,-0.32761 1.86943,-0.60033 2.64912,-0.8872 1.3628,-0.50188 3.37275,-1.70084 2.24391,-2.6797 -0.48069,-0.41672 -1.65391,-0.98423 -2.46212,-1.15879 -0.82297,-0.17766 -1.88758,-0.4221 -2.77368,-0.43454 -0.6263,-0.009 -1.34406,0.1423 -1.96348,0.0724 -0.2215,-0.025 -0.64764,-0.23708 -0.77908,-0.34402 0.15577,-0.77996 1.04446,-0.93005 1.93216,-1.35795 0.48109,-0.23199 0.93496,-0.54177 1.49594,-0.70614 1.22179,-0.35828 3.80748,-0.83458 4.76837,-1.28553 0.53136,-0.82297 -2.31023,-1.68048 -3.05422,-2.13652 -0.97435,-0.5975 -0.01,-1.28539 -2.30624,-2.19083 -0.34866,-0.13749 -0.63937,-0.30071 -1.09075,-0.30781 -2.41425,-0.0379 -2.10808,2.707 -4.0204,2.95129 l -0.56097,-0.0724 c -0.80981,-0.3102 -0.85509,-1.85941 -0.62332,-2.33568 0.18311,-0.37613 0.85947,-0.72339 0.87264,-1.14069 0.018,-0.55266 -1.73171,-1.15921 -2.15037,-1.99166 -0.64435,-1.28129 0.15378,-2.93008 -0.46753,-4.34546 -0.46933,-1.06883 -0.9983,-2.00369 -0.87264,-3.13235 0.0588,-0.52508 0.53086,-0.9875 0.87264,-1.4666 0.57015,-0.7988 2.03109,-2.02364 0,-2.66159 -1.25729,-0.4941 -2.53333,-0.75225 -3.83341,-1.17689 -1.69949,-0.55535 -3.33805,-1.42035 -4.23851,-2.44432 -0.26967,-0.30668 -0.77929,-1.30067 -1.02841,-1.70198 -0.1831,-0.29535 0.17872,-0.84702 0.24932,-1.15878 0.0818,-0.35463 -0.0668,-0.75649 -0.0309,-1.12258 0.0249,-0.25942 0.18948,-0.44983 0.24932,-0.68803 0.2605,-1.02385 -0.7001,-1.79067 -2.46212,-1.86493 -0.25122,0.1109 -0.58641,0.22109 -0.81031,0.34402 -0.46603,0.2556 -0.8117,0.69835 -1.55827,0.70613 -0.97436,-0.51262 -1.9567,-1.85388 -1.77639,-2.60727 1.25869,-1.07745 1.99699,-0.69227 3.83331,-1.41228 0.45337,-0.55817 0.11539,-1.11861 -0.77919,-1.41227 -0.8482,-0.0823 -1.60644,0.18064 -2.49324,0.0543 -0.61882,-0.50089 -0.20863,-0.83684 -0.28044,-1.37606 0.0399,-0.24995 0.29012,-1.15749 0.43632,-1.35796 0.48399,-0.66483 1.45366,-1.16783 1.68294,-1.91924 0.24932,-0.82623 0.36301,-1.84725 0.24932,-2.6797 -0.0648,-0.47161 -0.48668,-0.85325 -0.49865,-1.32175 -0.0249,-0.93259 0.49087,-1.89732 0.77909,-2.87886 0,-2.6722 -2.5425,-4.04233 -2.6179,-4.99728 -0.019,-0.24202 0.15478,-0.49975 0.18709,-0.74235 0.15957,-1.21353 0.90076,-3.45882 0.46744,-4.58084 -0.26878,-0.0999 -0.54832,-0.18402 -0.81031,-0.28969 -6.55203,-2.64703 -13.05939,-5.37581 -19.6966,-7.94857 -4.01342,-1.55585 -8.24135,-2.99005 -12.34154,-4.4722 -14.94274,-5.40254 -29.80424,-10.8888307 -44.72254,-16.3135737 -3.0683,-1.115786 -5.9716,-2.433851 -8.9445,-3.63932097 z" id="rect2261" inkscape:connector-curvature="0"/>
    <g transform="matrix(1.4286587,0,0,0.83000115,408.24242,185.2596)" id="g3661">
      <path inkscape:connector-curvature="0" style="fill:#ffffff;fill-opacity:1;stroke:#000000;stroke-width:3.36343074;stroke-linecap:butt;stroke-linejoin:miter;stroke-miterlimit:10;stroke-opacity:1;stroke-dasharray:none" id="path2542" d="m 154.31828,77.980273 c 0,42.163427 -34.15821,76.338017 -76.320525,76.338017 -42.139922,0 -76.3160396,-34.17459 -76.3160396,-76.338017 0,-42.145711 34.1761176,-76.2980851 76.3160396,-76.2980851 42.162315,0 76.320525,34.1523741 76.320525,76.2980851 z"/>
      <path inkscape:connector-curvature="0" style="fill:#009b3a;fill-opacity:1;fill-rule:nonzero;stroke:#000000;stroke-width:0.89898503;stroke-miterlimit:4;stroke-opacity:1;stroke-dasharray:none" id="path2618" d="m 114.93278,66.134874 c -1.85396,-0.07537 -1.86561,1.967864 -1.86561,1.967864 0,0 0.0642,-0.603697 0.0109,0.08122 -0.035,0.679182 0.30415,2.333681 1.67266,2.467167 1.44456,0.127755 1.92412,-1.56153 1.93587,-2.380038 0,-0.325027 -0.10531,-2.095637 -1.75457,-2.136281"/>
      <g id="g4938" transform="matrix(1.8252209,0,0,1.840601,-292.38258,-224.81187)">
        <path inkscape:connector-curvature="0" style="fill:#000000;fill-opacity:1;fill-rule:nonzero;stroke:none" id="path2462" d="m 176.69647,181.09894 -0.35768,-0.58836 c -0.0367,-0.0651 -0.12984,-0.17361 -0.27929,-0.33517 -0.0735,-0.0844 -0.16904,-0.12298 -0.27683,-0.13503 -0.11025,-0.0145 -0.21559,0.002 -0.32583,0.0651 -0.13965,0.0844 -0.23029,0.19773 -0.24499,0.33517 -0.0269,0.13986 0.0392,0.33276 0.19599,0.59318 l 0.36258,0.61248 0.92605,-0.54737 z m 3.54006,-0.20255 -4.54941,2.68379 -1.38907,-2.31486 c -0.25724,-0.43404 -0.41403,-0.77885 -0.47528,-1.05133 -0.071,-0.2773 -0.0367,-0.53772 0.0784,-0.79573 0.11514,-0.26042 0.32338,-0.47744 0.61491,-0.65106 0.24254,-0.14467 0.49488,-0.2146 0.73987,-0.22666 0.25478,0 0.48752,0.0627 0.71291,0.18085 0.13964,0.0796 0.30133,0.20255 0.47772,0.38099 -0.0416,-0.19291 -0.0661,-0.34482 -0.0563,-0.46297 0.0147,-0.0699 0.0465,-0.18568 0.11024,-0.3617 0.0613,-0.16879 0.12004,-0.28695 0.15679,-0.3617 l 0.9187,-1.45161 0.9383,1.577 -0.9383,1.56494 c -0.11759,0.19773 -0.18864,0.34964 -0.19844,0.45574 -0.005,0.14709 0.0269,0.27489 0.098,0.40027 l 0.0784,0.1278 1.84231,-1.0875 0.8403,1.39374 z"/>
        <path inkscape:connector-curvature="0" style="fill:#000000;fill-opacity:1;fill-rule:nonzero;stroke:none" id="path2466" d="m 172.22742,177.223 -1.38908,-4.1161 1.0706,-0.35688 0.8697,2.5801 0.80356,-0.26765 -0.81826,-2.39443 1.02895,-0.33276 0.80845,2.38237 0.98485,-0.31588 -0.8893,-2.65485 1.13674,-0.3834 1.41113,4.19327 -5.01734,1.66621 z"/>
        <path inkscape:connector-curvature="0" style="fill:#000000;fill-opacity:1;fill-rule:nonzero;stroke:none" id="path2470" d="m 172.37588,168.84467 -0.0564,-0.38581 c -0.0367,-0.3207 -0.11514,-0.52808 -0.23518,-0.63658 -0.12985,-0.10851 -0.27439,-0.15915 -0.44833,-0.13986 -0.16169,0.0265 -0.29399,0.094 -0.39443,0.20737 -0.10534,0.12539 -0.13964,0.33276 -0.0956,0.63418 l 0.0441,0.46297 1.18574,-0.14227 z m -2.05789,1.87841 -0.31603,-2.67414 c -0.0637,-0.57389 0.0196,-1.03204 0.26213,-1.35516 0.24989,-0.3207 0.63207,-0.51361 1.14654,-0.57148 0.52917,-0.0651 0.9677,0.0482 1.30088,0.32553 0.32829,0.28212 0.53897,0.75233 0.61737,1.39856 l 0.10044,0.88013 1.94765,-0.22426 0.19109,1.61799 -5.25007,0.60283 z"/>
        <path inkscape:connector-curvature="0" style="fill:#000000;fill-opacity:1;fill-rule:nonzero;stroke:none" id="path2474" d="m 170.13401,160.48997 0.16904,-1.61075 3.14074,0.33517 c 0.30868,0.0362 0.59776,0.11815 0.855,0.23872 0.27684,0.12297 0.49732,0.30141 0.68106,0.5329 0.1813,0.23148 0.30869,0.45332 0.36749,0.69204 0.0808,0.31588 0.10289,0.70169 0.0514,1.14537 -0.022,0.24355 -0.0759,0.52567 -0.14699,0.81985 -0.0661,0.29659 -0.16904,0.54013 -0.29643,0.72821 -0.12985,0.19291 -0.29644,0.36411 -0.50958,0.5112 -0.21314,0.14468 -0.42872,0.2339 -0.64431,0.27248 -0.34788,0.0699 -0.64677,0.0844 -0.90646,0.0555 l -3.12603,-0.32794 0.16904,-1.61316 3.20688,0.34481 c 0.28909,0.0289 0.51937,-0.0241 0.69821,-0.16879 0.17885,-0.14227 0.27929,-0.34964 0.31359,-0.62212 0.0294,-0.28694 -0.0294,-0.50878 -0.16904,-0.67999 -0.13965,-0.17602 -0.35523,-0.27488 -0.64677,-0.30864 l -3.20688,-0.34482 z"/>
        <path inkscape:connector-curvature="0" style="fill:#000000;fill-opacity:1;fill-rule:nonzero;stroke:none" id="path2478" d="m 175.3951,156.08161 0.28174,-0.77644 c 0.0857,-0.26283 0.11024,-0.46538 0.0514,-0.61247 -0.0514,-0.13263 -0.16169,-0.23631 -0.32093,-0.28695 -0.15679,-0.0531 -0.28664,-0.0434 -0.41403,0.0338 -0.13229,0.0796 -0.24499,0.24836 -0.33563,0.5112 l -0.27929,0.78126 1.0167,0.34964 z m -1.96235,-0.6824 0.23764,-0.65829 c 0.0808,-0.24113 0.1029,-0.42439 0.0441,-0.54736 -0.0441,-0.11816 -0.14699,-0.2122 -0.30624,-0.25801 -0.13964,-0.0531 -0.27193,-0.0434 -0.38707,0.0169 -0.11515,0.0675 -0.21069,0.2122 -0.28909,0.44369 l -0.24744,0.67757 0.9481,0.32553 z m -2.49642,0.87048 1.00445,-2.87187 c 0.17394,-0.47744 0.42138,-0.79573 0.75456,-0.97658 0.32094,-0.16397 0.65902,-0.19531 1.01915,-0.0748 0.28908,0.11333 0.50957,0.28695 0.66146,0.54255 0.0907,0.16879 0.147,0.39063 0.147,0.64864 0.20823,-0.32794 0.44832,-0.53531 0.71536,-0.62453 0.27193,-0.0965 0.56837,-0.0916 0.8893,0.0193 0.25234,0.0868 0.46303,0.22908 0.62962,0.41716 0.15924,0.19772 0.26458,0.41474 0.31603,0.6607 0.0245,0.15914 0.0122,0.37134 -0.0441,0.63417 -0.0833,0.36893 -0.13229,0.60283 -0.17394,0.71134 l -0.93095,2.64279 -4.98794,-1.72891 z"/>
        <path inkscape:connector-curvature="0" style="fill:#000000;fill-opacity:1;fill-rule:nonzero;stroke:none" id="path2482" d="m 173.63169,149.54962 0.855,-1.38409 3.40533,2.0472 1.32538,-2.16053 1.10979,0.67275 -2.16079,3.54221 -4.53471,-2.71754 z"/>
        <path inkscape:connector-curvature="0" style="fill:#000000;fill-opacity:1;fill-rule:nonzero;stroke:none" id="path2486" d="m 177.12471,144.39014 1.05099,-1.24182 4.03494,3.38306 -1.05344,1.24183 -4.03249,-3.38307 z"/>
        <path inkscape:connector-curvature="0" style="fill:#000000;fill-opacity:1;fill-rule:nonzero;stroke:none" id="path2490" d="m 184.45277,141.57156 1.37438,-0.58354 c 0.17639,0.36652 0.27683,0.71616 0.29153,1.05857 0.0122,0.33758 -0.0539,0.65587 -0.19599,0.95246 -0.15679,0.30142 -0.41403,0.59319 -0.76681,0.89942 -0.44832,0.3617 -0.8599,0.59801 -1.24943,0.70169 -0.38463,0.0989 -0.81581,0.0748 -1.29598,-0.0747 -0.46303,-0.15191 -0.90401,-0.48226 -1.33028,-0.97658 -0.55367,-0.67275 -0.80846,-1.33104 -0.75211,-1.97727 0.0539,-0.65829 0.41157,-1.24906 1.06324,-1.79401 0.51692,-0.42439 0.9971,-0.64623 1.46992,-0.6824 0.46058,-0.0434 0.95055,0.094 1.44298,0.40027 l -0.90401,1.16225 c -0.13719,-0.0892 -0.25233,-0.1495 -0.35033,-0.16879 -0.14944,-0.0434 -0.29398,-0.0434 -0.43852,-0.005 -0.14455,0.0314 -0.28419,0.0989 -0.40178,0.19773 -0.28664,0.23872 -0.41158,0.5329 -0.36993,0.88495 0.0245,0.26283 0.19354,0.56907 0.48752,0.93317 0.37973,0.4461 0.70801,0.69687 0.9775,0.74751 0.28418,0.0579 0.54632,-0.0217 0.79131,-0.22425 0.23764,-0.20255 0.36748,-0.41475 0.37238,-0.64623 0.007,-0.24596 -0.0588,-0.51361 -0.21559,-0.80538"/>
        <path inkscape:connector-curvature="0" style="fill:#000000;fill-opacity:1;fill-rule:nonzero;stroke:none" id="path2494" d="m 189.8023,138.4207 -1.38173,-1.41785 0.34788,1.94593 1.03385,-0.52808 z m 0.82316,0.86084 -1.65612,0.83431 0.16904,0.88977 -1.48707,0.74992 -0.62961,-5.56771 1.58996,-0.80538 4.17213,3.77852 -1.52137,0.77162 -0.63696,-0.65105 z"/>
        <path inkscape:connector-curvature="0" style="fill:#000000;fill-opacity:1;fill-rule:nonzero;stroke:none" id="path2498" d="m 197.05637,133.81486 0.40668,2.83088 0.39688,-0.0579 c 0.34053,-0.041 0.57817,-0.11574 0.71291,-0.20978 0.12984,-0.10369 0.21804,-0.23631 0.27194,-0.44368 0.0588,-0.1929 0.0588,-0.49432 -0.002,-0.91389 -0.0784,-0.54736 -0.22539,-0.91388 -0.43118,-1.0875 -0.21069,-0.17361 -0.52672,-0.2363 -0.9481,-0.17361 l -0.40668,0.0555 z m -1.77861,-0.94764 2.40088,-0.34241 c 0.47282,-0.0627 0.85745,-0.0579 1.16614,0.0289 0.31848,0.0892 0.58062,0.23389 0.8109,0.44609 0.22294,0.21219 0.40178,0.4702 0.52918,0.77162 0.13474,0.30141 0.22538,0.63658 0.27438,0.99104 0.0858,0.54978 0.0858,0.99346 -0.005,1.30934 -0.0808,0.32312 -0.22294,0.61007 -0.41648,0.8512 -0.20089,0.23389 -0.42382,0.40992 -0.67126,0.50878 -0.33808,0.15192 -0.65412,0.24113 -0.9481,0.28695 l -2.40578,0.33517 -0.73496,-5.18672 z"/>
      </g>
      <path inkscape:connector-curvature="0" style="fill:#000000;fill-opacity:1;fill-rule:nonzero;stroke:none" id="path2502" d="m 77.174995,17.872933 7.96384,0.590283 -0.147649,2.054919 -4.985763,-0.372807 -0.116257,1.531197 4.623597,0.341745 -0.165534,1.957278 -4.601221,-0.32844 -0.134143,1.88183 5.128867,0.381677 -0.160971,2.174754 -8.115868,-0.599171 0.710974,-9.613265 z"/>
      <path inkscape:connector-curvature="0" style="fill:#000000;fill-opacity:1;fill-rule:nonzero;stroke:none" id="path2506" d="m 89.44538,18.999804 2.866273,0.798907 -1.980913,7.01243 4.476057,1.264902 -0.652864,2.272395 -7.346765,-2.081548 2.638212,-9.267086 z"/>
      <path inkscape:connector-curvature="0" style="fill:#000000;fill-opacity:1;fill-rule:nonzero;stroke:none" id="path2510" d="m 105.72499,29.705338 0.61707,0.399435 c 0.47399,0.315116 0.87644,0.448273 1.16708,0.417192 0.313,-0.03559 0.54551,-0.173016 0.71097,-0.44382 0.16098,-0.244103 0.2191,-0.519269 0.18333,-0.816646 -0.058,-0.284036 -0.32194,-0.572525 -0.78699,-0.878771 l -0.71097,-0.479319 -1.18049,1.801929 z m -0.23699,-5.081817 4.14514,2.733973 c 0.89877,0.590283 1.42642,1.256032 1.58739,1.975018 0.17448,0.727875 0,1.491265 -0.53212,2.281265 -0.5187,0.803323 -1.18943,1.27379 -1.98538,1.411382 -0.80486,0.128667 -1.68576,-0.119907 -2.69187,-0.781149 l -1.36382,-0.905399 -1.95854,2.986947 -2.4996,-1.655485 5.2988,-8.046552 z"/>
      <path inkscape:connector-curvature="0" style="fill:#000000;fill-opacity:1;fill-rule:nonzero;stroke:none" id="path2514" d="m 115.95635,39.335905 1.68131,-3.217727 -3.19271,1.72648 z m -1.0195,1.917345 -2.41912,-2.378924 -1.45773,0.798888 -2.16872,-2.130368 4.45763,-2.059099 4.91029,-2.268179 2.30733,2.281247 -4.19432,9.431305 -2.2179,-2.201381 z"/>
      <path inkscape:connector-curvature="0" style="fill:#000000;fill-opacity:1;fill-rule:nonzero;stroke:none" id="path2518" d="m 123.89916,45.43852 0.67968,1.074053 c 0.0805,0.106584 0.22804,0.315117 0.53213,0.599153 0.15203,0.13323 0.30406,0.217493 0.51869,0.226363 0.21016,0.02665 0.38903,-0.02665 0.57236,-0.14199 0.25489,-0.164257 0.39796,-0.368373 0.44269,-0.630234 0.0358,-0.248538 -0.0984,-0.621345 -0.39798,-1.074053 l -0.68861,-1.1007 -1.65896,1.047444 z m -6.45244,0.572524 8.13375,-5.192744 2.66952,4.185269 c 0.49634,0.77226 0.80936,1.406928 0.96139,1.899569 0.11169,0.49266 0.0761,0.989718 -0.1252,1.464619 -0.19674,0.488225 -0.55895,0.892095 -1.06871,1.224951 -0.46057,0.292942 -0.90324,0.457162 -1.35935,0.457162 -0.43374,0.02665 -0.87641,-0.08432 -1.31016,-0.266296 -0.25487,-0.150934 -0.55002,-0.372826 -0.88091,-0.687942 0.085,0.355067 0.13853,0.643556 0.12977,0.843273 -0.0182,0.137611 -0.0805,0.363938 -0.16992,0.665731 -0.10731,0.31957 -0.20568,0.545915 -0.29066,0.683489 l -1.57398,2.725107 -1.82439,-2.844923 1.63658,-2.920368 c 0.21911,-0.390583 0.32643,-0.670184 0.32643,-0.865484 0.009,-0.261843 -0.0312,-0.5104 -0.20569,-0.732292 l -0.12976,-0.221928 -3.30894,2.108175 -1.60975,-2.525368 z"/>
      <path inkscape:connector-curvature="0" style="fill:#000000;fill-opacity:1;fill-rule:nonzero;stroke:none" id="path2522" d="m 128.85098,59.004945 2.8931,-2.183623 -3.61751,0.199735 0.72441,1.983888 z m -1.75732,1.291529 -1.15816,-3.191098 -1.64552,0.115344 -1.05082,-2.862677 10.31141,0.119907 1.11342,3.044618 -7.82969,6.710656 -1.07316,-2.946996 1.33252,-0.989735 z"/>
      <path inkscape:connector-curvature="0" style="fill:#000000;fill-opacity:1;fill-rule:nonzero;stroke:none" id="path2526" d="m 131.71143,70.559939 1.98537,-0.261861 0.57683,4.598045 -4.08254,0.492642 c -0.68861,-0.798888 -1.21626,-1.51344 -1.49796,-2.165866 -0.31302,-0.647991 -0.51423,-1.433574 -0.63049,-2.352278 -0.14765,-1.136198 -0.0715,-2.085982 0.24593,-2.849373 0.28617,-0.763372 0.79595,-1.39804 1.51138,-1.899569 0.71991,-0.474884 1.56952,-0.79 2.55774,-0.909834 1.04186,-0.137611 1.98537,-0.03103 2.80813,0.310663 0.82278,0.32844 1.48457,0.883225 1.99878,1.664373 0.39797,0.61691 0.66179,1.464619 0.78701,2.5653 0.14764,1.051861 0.14764,1.855184 0.009,2.401099 -0.11188,0.554767 -0.35773,1.025233 -0.72886,1.424668 -0.34879,0.390583 -0.81831,0.727875 -1.41749,0.967561 l -0.86748,-2.782812 c 0.34432,-0.173017 0.59919,-0.394982 0.75122,-0.710098 0.15659,-0.301812 0.19676,-0.683507 0.15659,-1.1007 -0.10731,-0.656861 -0.3756,-1.145068 -0.86749,-1.473489 -0.50527,-0.32844 -1.24755,-0.430516 -2.22235,-0.3107 -1.03739,0.128668 -1.73942,0.426081 -2.14634,0.856597 -0.38456,0.45269 -0.52765,1.034103 -0.45611,1.72648 0.0358,0.328421 0.13415,0.634668 0.25937,0.918722 0.13852,0.301812 0.33982,0.60804 0.61707,0.989735 l 0.90772,-0.124287 -0.25487,-1.975018 z"/>
      <path inkscape:connector-curvature="0" style="fill:#000000;fill-opacity:1;fill-rule:nonzero;stroke:none" id="path2530" d="m 137.82047,85.027763 -0.33983,2.955884 -5.70571,-0.643556 c -0.56789,-0.06661 -1.09105,-0.213022 -1.57398,-0.448256 -0.48293,-0.235233 -0.89877,-0.554785 -1.23415,-0.980865 -0.32643,-0.417175 -0.55,-0.838821 -0.65734,-1.264884 -0.13852,-0.616928 -0.17447,-1.309305 -0.0805,-2.121498 0.0626,-0.461578 0.15203,-0.971977 0.26381,-1.517892 0.12977,-0.545897 0.32195,-0.989736 0.56342,-1.335915 0.23253,-0.34618 0.54553,-0.652408 0.92115,-0.927592 0.42031,-0.261861 0.80486,-0.426063 1.18942,-0.492641 0.62601,-0.119907 1.18496,-0.159694 1.65448,-0.0887 l 5.71464,0.652408 -0.33983,2.947014 -5.84433,-0.670184 c -0.53212,-0.05767 -0.95243,0.03559 -1.28333,0.297359 -0.32197,0.266314 -0.51424,0.639121 -0.56789,1.14952 -0.058,0.523704 0.0403,0.936462 0.29958,1.251578 0.25044,0.319552 0.6439,0.510418 1.1671,0.590283 l 5.85325,0.647991 z"/>
      <path inkscape:connector-curvature="0" style="fill:#000000;fill-opacity:1;fill-rule:nonzero;stroke:none" id="path2534" d="m 128.93862,96.010689 3.63538,0.128667 -2.93335,-2.139237 -0.70203,2.010533 z m -2.1553,-0.110964 1.10001,-3.200005 -1.34594,-0.96309 1.00164,-2.880435 7.93254,6.590803 -1.09106,3.084587 -10.28011,0.252992 1.01057,-2.955866 1.67235,0.07099 z"/>
      <path inkscape:connector-curvature="0" style="fill:#000000;fill-opacity:1;fill-rule:nonzero;stroke:none" id="path2538" d="m 132.10895,104.78289 -1.67682,2.85381 -3.80082,0.0128 1.81993,3.33756 -1.66792,2.81829 -2.93332,-6.07596 -3.47888,-2.05049 1.52926,-2.57862 3.47441,2.06379 6.73416,-0.3817 z"/>
      <path inkscape:connector-curvature="0" style="fill:none;stroke:#000000;stroke-width:1.34537232;stroke-linecap:butt;stroke-linejoin:miter;stroke-miterlimit:10;stroke-opacity:1;stroke-dasharray:none" id="path2546" d="m 141.90792,77.980273 c 0,35.306327 -28.60902,63.919777 -63.89854,63.919777 -35.298463,0 -63.907478,-28.61345 -63.907478,-63.919777 0,-35.279705 28.609015,-63.888721 63.907478,-63.888721 35.28952,0 63.89854,28.609016 63.89854,63.888721 z"/>
      <path inkscape:connector-curvature="0" style="fill:none;stroke:#000000;stroke-width:1.34537232;stroke-linecap:butt;stroke-linejoin:miter;stroke-miterlimit:10;stroke-opacity:1;stroke-dasharray:none" id="path2550" d="m 125.55857,77.763217 c 0,26.274493 -21.28462,47.555923 -47.55054,47.555923 -26.265899,0 -47.559468,-21.28143 -47.559468,-47.555923 0,-26.247852 21.293569,-47.533737 47.559468,-47.533737 26.26592,0 47.55054,21.285885 47.55054,47.533737 z"/>
      <path inkscape:connector-curvature="0" style="fill:#fedf00;fill-opacity:1;fill-rule:nonzero;stroke:#000000;stroke-width:0.54986846;stroke-miterlimit:4;stroke-opacity:1;stroke-dasharray:none" id="path2554" d="m 78.013414,60.651962 3.993089,11.432951 12.086619,0.270731 -9.631735,7.323131 3.501233,11.588301 -9.949206,-6.88818 -9.953696,6.88818 3.483347,-11.588301 -9.645149,-7.323131 12.108976,-0.270731 4.006522,-11.432951 z"/>
      <path inkscape:connector-curvature="0" style="fill:#009b3a;fill-opacity:1;fill-rule:nonzero;stroke:#000000;stroke-width:0.68733555;stroke-miterlimit:4;stroke-opacity:1;stroke-dasharray:none" id="path2562" d="m 99.969647,110.58236 c -0.402446,0.33731 -2.025609,0.51927 -2.454884,0.59028 -0.433746,0.0577 -2.137412,0.0754 -2.85733,0.10202 -0.397974,0.0267 -1.162587,0.13761 -1.560562,0.13761 -3.493349,-0.39843 5.67449,-0.34253 6.872776,-0.82993 m -9.153293,-2.70291 c 0.228061,-0.40832 1.372782,-2.95586 1.784171,-3.6793 0.420313,-0.71012 1.368291,-2.60526 1.93618,-3.39527 0.290661,-0.42608 1.43091,-1.66434 1.703667,-1.109573 -1.985604,1.716293 -3.550893,4.710433 -4.384403,6.725543 -0.107314,0.21748 -0.760178,1.33846 -1.001635,1.63138 -0.232532,0.28849 -0.13761,0.83187 -0.50423,0.87623 -0.384561,0.0489 -0.11498,0.11827 -0.11498,0.11827 0,0 0.330885,-0.73676 0.581285,-1.16728 z m 13.168736,1.94841 c 0,0 -1.57844,-0.23523 -2.55772,-0.58141 -0.97479,-0.32844 -2.611386,-0.58143 -4.006525,-0.5459 -1.381706,0.0182 -2.647155,0.43493 -3.773989,0.86545 -1.122364,0.41719 -2.575594,0.45269 -2.575594,0.45269 0,0 -0.822778,0.12867 -0.438218,-0.062 0.366657,-0.18196 1.641049,-1.17613 1.641049,-1.17613 l 0.822778,-1.12733 c 0.237076,-0.0659 4.413038,-5.54602 3.959088,-7.01625 0.639432,-1.082938 1.388878,-3.01421 1.107179,-3.351519 -0.134143,-0.13761 -3.250815,0.989736 -3.934961,1.611081 -0.791478,0.683507 -1.350424,2.108198 -1.58741,2.929258 -0.232514,0.81664 -1.430909,1.49126 -1.430909,1.49126 -0.974789,0.70123 -1.681292,2.92037 -2.012195,4.7356 -0.335357,1.79306 -4.751844,2.78588 -4.751844,2.78588 0,0 -1.225206,0.45716 -0.138523,0.80334 0.187782,0.0533 0.672447,0.87292 1.061479,0.88622 0.541042,0.0622 3.283466,-1.11121 3.708251,-1.01802 0.500817,0.10202 1.712591,0.41721 2.763412,0.7545 1.046349,0.35507 1.90937,0.53703 2.642701,0.26629 0.742275,-0.26629 1.802038,-0.16425 2.597969,-0.009 0.782518,0.16864 1.658953,0.0976 2.164242,-0.0577 0.54106,-0.16426 1.96299,-0.95422 1.96299,-0.95422 0,0 1.53822,-0.66573 2.42806,-1.08294 0.88986,-0.4172 0.34878,-0.59916 0.34878,-0.59916"/>
      <path inkscape:connector-curvature="0" style="fill:#009b3a;fill-opacity:1;fill-rule:nonzero;stroke:#000000;stroke-width:0.54986846;stroke-miterlimit:4;stroke-opacity:1;stroke-dasharray:none" id="path2558" d="m 91.982556,115.15911 c 0,0 -6.081317,-3.18223 -6.407749,-3.25768 -0.192271,-0.0267 -2.758958,-1.44245 -3.93496,-1.80638 -0.849607,-0.27517 -2.021138,-0.3462 -2.44147,-0.31955 -1.001635,0.071 -2.635766,0.51246 -2.635766,0.51246 l 1.511395,0.61691 c 0,0 1.417477,0.69679 2.110566,1.06962 0.992692,0.52372 1.037406,1.16282 1.037406,1.16282 l 5.506493,2.42123 1.117892,0.80332 c 0,0 1.015049,-1.40249 4.136193,-1.20275"/>
      <path inkscape:connector-curvature="0" style="fill:#009b3a;fill-opacity:1;fill-rule:nonzero;stroke:#000000;stroke-width:0.72460687;stroke-miterlimit:4;stroke-opacity:1;stroke-dasharray:none" id="path2566" d="m 98.099826,102.52785 c 1.912494,-1.70538 2.848044,-4.131612 4.421764,-5.474352 0.25456,0.182507 0.25456,0.486636 -0.0566,1.024704 -0.29697,0.528686 -0.69296,0.711156 -0.8674,0.987235 -0.32054,0.430461 -1.27837,1.226663 -1.53766,1.703923 -0.230998,0.45384 -0.528557,1.0859 -1.362943,1.56784 -0.829677,0.49595 -0.568911,1.28551 -0.639614,1.61773 -0.06607,0.36494 -1.345186,1.28072 -1.962717,2.41303 -0.117169,1.18038 -0.171009,0.68581 -0.886382,1.10488 1.30259,-1.96456 1.988104,-3.22917 2.891514,-4.94499 m -4.299172,5.39947 c -0.122645,0.25734 -3.89543,2.39973 -2.716927,2.08157 1.173812,-0.30881 4.659075,-1.56688 5.64903,-2.00671 1.211518,-0.52872 1.937476,-1.63761 2.847292,-2.54064 0.928649,-0.92177 3.800579,-3.66489 4.295559,-4.72235 0.48552,-1.090169 0.92757,-2.604868 -1.0193,-6.006452 0,0 -0.30172,0.650382 -1.02768,1.28673 -0.71652,0.650363 -1.7866,1.370919 -1.7866,1.370919 l -1.249241,1.179087 c 0,0 -4.407618,8.099226 -4.992133,9.357846"/>
      <path inkscape:connector-curvature="0" style="fill:#009b3a;fill-opacity:1;fill-rule:nonzero;stroke:#000000;stroke-width:0.68733555;stroke-miterlimit:4;stroke-opacity:1;stroke-dasharray:none" id="path2570" d="m 109.1265,105.0776 c 0,0 -2.41464,-0.21747 -2.6248,-0.21747 -0.22806,0 -1.55164,-0.18196 -3.47439,-0.18196 -1.90489,0 -2.62034,0.66131 -3.121139,1.19388 -0.541078,0.59474 -2.043531,1.97061 -2.043531,1.97061 l 0.809364,-0.071 c 1.931726,-1.50455 3.434326,-0.95296 4.033536,-0.99733 0.62601,-0.0223 1.37993,0.0394 3.31166,-0.64403 1.96301,-0.68792 1.84834,-0.0451 1.63369,0.0214 -0.21463,0.0843 -1.47254,0.52578 -2.91237,0.58792 -1.45774,0.0799 -2.73591,0.36297 -3.30827,0.36297 -0.57683,0 -4.827584,1.16221 -4.827584,1.16221 0,0 4.600234,0.27024 5.096584,0.43446 0.49187,0.19971 1.26545,0.10658 1.90488,-0.19972 1.76179,-0.81221 2.55774,-0.96756 3.28211,-1.13175 0.72886,-0.14199 1.59636,-0.63468 1.59636,-0.63468 0,0 0.46506,-0.29293 0.8943,-1.07406 0.44269,-0.79888 -0.2504,-0.58141 -0.2504,-0.58141"/>
      <path inkscape:connector-curvature="0" style="fill:#009b3a;fill-opacity:1;fill-rule:nonzero;stroke:#000000;stroke-width:0.68733555;stroke-miterlimit:4;stroke-opacity:1;stroke-dasharray:none" id="path2574" d="m 111.38331,92.474287 c 0.29064,-0.719005 1.01503,-2.409969 1.78413,-3.075718 0.46952,-0.408323 1.27886,-0.599152 1.70812,-0.78113 0.18335,-0.06224 1.50295,-0.1252 -0.1471,0.327527 -0.68416,0.18196 -1.60778,0.587636 -2.01917,1.275578 -0.57657,1.601755 -1.08089,2.99589 -2.15183,4.019261 -0.78697,0.825534 -1.28479,1.900482 -1.28479,1.900482 l -0.84428,0.29307 c 1.54635,-0.947686 2.21828,-2.702984 2.95486,-3.95907 z m 7.47642,-0.900982 c -0.88091,0.292942 -1.18944,0.537045 -1.18944,0.537045 -1.97195,0.590282 -2.77825,1.828045 -3.64127,2.835538 -0.4382,0.528139 -1.05546,0.921861 -3.13472,1.813956 -1.90043,0.816627 -3.36976,2.077824 -3.40553,2.077824 0,0 -0.60366,0.124287 -0.4874,0.417211 0.0447,0.13761 0.55894,0.02665 0.55894,0.02665 0,0 3.91359,-0.557632 5.54572,-1.551802 1.04188,-0.652426 1.63094,-1.127821 2.61914,-2.654583 0.44269,-0.674619 0.93901,-1.943956 0.96139,-1.127328 0.0761,2.165866 -3.28659,4.265171 -4.75327,4.913162 -0.78253,0.332856 -1.82886,0.470448 -3.19716,0.696812 -1.35042,0.248538 -2.17318,0.173017 -2.07481,-0.124287 0.13871,-0.430498 0.29513,-0.519269 0.65285,-0.94535 0.6439,-0.767807 2.20001,-1.038538 3.34473,-1.575565 1.35488,-0.60804 2.63821,-1.500135 3.28212,-2.263525 0.65731,-0.77226 0.88537,-1.056296 1.06423,-1.708722 0.50082,-1.704305 0.52765,-2.649637 0.99715,-3.257677 1.65448,-2.037162 1.89595,-2.694023 1.97642,-3.603875 0.0182,-0.208588 -0.85853,0.483789 -1.31464,0.736762 -0.88983,0.528157 -1.22071,0.528157 -3.04511,1.003041 -1.85124,0.461578 -1.811,1.655484 -2.09717,2.219121 -0.0849,0.226363 -0.83617,1.162825 -1.19388,1.335933 -0.35774,0.181959 -1.23864,1.455731 -1.56506,2.201363 -0.24145,0.545915 -0.67073,0.93648 -1.01505,0.892094 -0.3622,-0.06661 0.69309,-4.012197 0.92561,-4.664605 0.25041,-0.647991 0.2996,-1.912893 0.2996,-2.338974 0,-0.408323 0.0146,-1.482961 -0.70152,-1.602813 -0.71098,-0.119907 -0.74304,-1.102762 -0.74304,-1.102762 -1.71261,1.482377 -0.75543,4.094746 -0.57211,5.643719 0.18333,1.535633 -0.35326,4.376117 -0.35326,4.376117 1.65448,0.705682 0.35326,2.716216 -0.16097,3.364188 -0.54106,0.661315 -1.56505,0.781131 -2.02561,1.362543 -0.4874,0.599164 -3.95188,5.423724 -3.95188,5.423724 l 4.30962,-1.2207 c 0,0 0.4024,0.071 -0.24148,-0.41719 -0.65285,-0.46602 0.21016,-2.27682 0.76463,-2.72064 1.05976,-0.829961 2.49066,-0.22636 2.49066,-0.22636 0,0 1.99878,0.30625 4.44919,-0.665744 2.04798,-0.80774 2.92889,-2.117045 3.89921,-3.102328 0.52762,-0.537026 1.49349,-2.316762 2.10164,-3.373094 0.36665,-0.608022 1.02397,-1.766413 0.62153,-1.628839"/>
      <path inkscape:connector-curvature="0" style="fill:#009b3a;fill-opacity:1;fill-rule:nonzero;stroke:#000000;stroke-width:0.76613897;stroke-miterlimit:4;stroke-opacity:1;stroke-dasharray:none" id="path2582" d="m 106.63813,103.16002 c 0.32898,-0.1336 0.37881,-0.19295 0.98188,-0.8509 0.59315,-0.65798 0.0697,-1.76612 -0.84729,-1.72159 -0.4486,0.0297 -0.92708,-0.0743 -1.80928,1.11309 -0.85231,1.18732 0.40869,1.62265 0.88719,1.67213 0.20437,0.009 0.47349,-0.0792 0.7875,-0.21273"/>
      <path inkscape:connector-curvature="0" style="fill:#009b3a;fill-opacity:1;fill-rule:nonzero;stroke:#000000;stroke-width:0.78283989;stroke-miterlimit:4;stroke-opacity:1;stroke-dasharray:none" id="path2586" d="m 104.40995,95.647646 c -0.57039,0.955406 -0.87594,2.05231 -0.42778,2.39097 0.10184,0.05566 0.49914,0.404381 0.83525,0.404381 0.33101,0 1.26811,-0.449844 1.80287,-1.273845 0.53473,-0.798669 0.97275,-1.678206 -0.12228,-2.224158 -0.99313,-0.490323 -1.67556,-0.0303 -2.08811,0.702652"/>
      <path inkscape:connector-curvature="0" style="fill:#009b3a;fill-opacity:1;fill-rule:nonzero;stroke:#000000;stroke-width:0.68733555;stroke-miterlimit:4;stroke-opacity:1;stroke-dasharray:none" id="path2590" d="m 107.67144,83.981962 c 0,0 0.0894,-0.146554 -0.28617,-0.537027 -0.59472,-0.608041 -1.33925,-1.693027 -1.33925,-1.693027 -1.18495,0.647973 -1.57845,1.957242 -1.57845,2.476548 0,0.541461 0.20121,1.717591 0.0183,2.915932 -0.0626,0.408305 -0.12976,0.874319 -0.71545,2.356695 -0.59918,1.464619 0.085,2.809422 0.2191,3.284324 0.10294,0.470448 0.59027,1.935067 0.59027,1.935067 0,0 0.46503,-0.297359 0.62154,-0.332875 0.18331,-0.04873 0.81382,-0.02208 0.81382,-0.02208 0,0 0.71322,-1.289467 0.74005,-2.008472 0.0128,-0.528157 -0.0715,-1.424686 -0.32196,-2.800551 -0.34877,-2.001646 -0.32642,-2.574189 -0.0894,-3.692629 0.23698,-1.136179 1.32805,-1.881811 1.32805,-1.881811"/>
      <path inkscape:connector-curvature="0" style="fill:#009b3a;fill-opacity:1;fill-rule:nonzero;stroke:#000000;stroke-width:0.75525451;stroke-miterlimit:4;stroke-opacity:1;stroke-dasharray:none" id="path2594" d="m 109.43764,85.981764 c 0,0 0.67312,-0.160971 1.01214,-0.770545 0.42747,-0.736379 0.31446,-1.516669 0.31446,-1.516669 -1.04164,-2.019021 -2.44196,-0.390164 -2.44196,-0.390164 -1.25293,2.565227 1.11536,2.677378 1.11536,2.677378"/>
      <path inkscape:connector-curvature="0" style="fill:#009b3a;fill-opacity:1;fill-rule:nonzero;stroke:#000000;stroke-width:0.89795762;stroke-miterlimit:4;stroke-opacity:1;stroke-dasharray:none" id="path2598" d="m 112.98546,82.2797 c -1.5539,0.08122 -2.31924,2.875983 -2.31924,2.875983 0,0 -0.25113,0.689967 -1.08066,1.223399 -0.88217,0.545075 -0.3622,1.327848 -0.3622,2.719427 0,1.391598 -0.96981,3.850077 -0.96981,3.850077 l -0.36213,0.834915 c 0,0 0.035,0.626218 0.60167,-0.51018 0.96393,-1.91344 2.0213,-1.449599 2.41853,-3.507986 0.25118,-1.530796 2.78655,-2.017852 2.78655,-2.017852 l -0.71271,-0.133413 c -2.63465,-1.235025 0.15185,-4.3139 0.60175,-4.858884 0.47901,-0.545094 0.93465,-0.545094 -0.60175,-0.475522"/>
      <path inkscape:connector-curvature="0" style="fill:#009b3a;fill-opacity:1;fill-rule:nonzero;stroke:#000000;stroke-width:0.76484913;stroke-miterlimit:4;stroke-opacity:1;stroke-dasharray:none" id="path2602" d="m 112.54199,85.59463 c -0.71156,1.526069 1.31361,1.600149 1.78132,1.333451 0.1891,-0.108592 0.617,-0.61733 0.617,-0.61733 0.82105,-1.180364 0.0697,-1.980456 -0.35824,-2.094049 -0.41299,-0.13834 -1.29372,-0.242004 -2.04008,1.377928"/>
      <path inkscape:connector-curvature="0" style="fill:#009b3a;fill-opacity:1;fill-rule:nonzero;stroke:#000000;stroke-width:0.68733555;stroke-miterlimit:4;stroke-opacity:1;stroke-dasharray:none" id="path2606" d="m 108.69408,79.670343 c 0.53212,0.989735 2.01667,3.745883 2.36546,3.572794 0.21912,-0.106584 0.0447,-0.670166 0.0447,-0.670166 0,0 -0.0447,-0.745633 -0.28617,-1.646597 -0.23698,-0.909852 -0.17958,-2.072787 -0.65354,-2.818401 -0.46057,-0.745632 -1.5635,-1.628729 -1.99724,-2.804877 -0.42928,-1.180583 -0.0929,-3.412973 -0.0571,-3.688139 0.0447,-0.257407 0.17448,-0.0887 -0.0537,-0.355049 -0.23251,-0.288507 -2.10985,-1.287349 -2.10985,-1.287349 0,0 0.10932,0.728075 0.0646,2.046232 -0.0182,0.319551 -0.10732,0.692377 -0.15641,1.247143 -0.0447,0.528157 0.27276,1.193888 1.04186,2.711781 0.89432,1.757542 1.32358,2.836049 1.79757,3.692628"/>
      <path inkscape:connector-curvature="0" style="fill:#009b3a;fill-opacity:1;fill-rule:nonzero;stroke:#000000;stroke-width:0.68733555;stroke-miterlimit:4;stroke-opacity:1;stroke-dasharray:none" id="path2610" d="m 119.95168,66.563747 c 0,0 -0.54104,0.900964 -0.73333,1.100664 -0.20121,0.199735 -3.25976,2.827198 -3.43416,2.938144 -0.14747,0.115344 -1.74389,0.625798 -3.19716,4.553641 -1.45774,3.914556 -0.82723,7.576122 -0.82723,7.576122 l 0.7065,-0.0887 0.12064,-0.381695 c 0,0 0.237,-1.300399 0.42033,-2.285699 0.20122,-0.971978 1.29089,-2.330597 2.01526,-3.333637 0.68866,-0.980848 1.24596,-2.3917 1.24596,-2.3917 0.81907,-1.650812 1.21318,-3.127185 2.02417,-4.278494 0.0332,1.371468 -5.17917,9.802215 -5.73658,12.671225 l 1.54226,-0.235233 c 1.23413,-1.127309 2.84838,-3.49291 3.93945,-5.019673 1.09999,-1.531197 1.56503,-3.923426 1.76625,-4.984157 0.19228,-1.047426 0.14746,-5.840736 0.14746,-5.840736"/>
      <path inkscape:connector-curvature="0" style="fill:#009b3a;fill-opacity:1;fill-rule:nonzero;stroke:#000000;stroke-width:0.68733555;stroke-miterlimit:4;stroke-opacity:1;stroke-dasharray:none" id="path2614" d="m 109.55889,67.43051 c -0.78698,-0.727857 -1.39959,-0.94535 -1.39959,-0.94535 0,0 0.1878,1.429121 0.1878,2.299022 0,0.874337 0.0761,2.338956 0.0314,3.120104 -0.0314,0.78113 -0.42031,2.072659 0.13415,3.33756 0.56787,1.247144 1.20732,1.88183 1.65893,2.667395 0.41139,0.767826 1.16516,4.760094 1.16516,4.760094 0,0 -0.27531,-5.399215 -0.0383,-6.925959 0.21909,-1.500135 0.29064,-3.83909 -0.0447,-5.010803 -0.34879,-1.17613 -0.9256,-2.556431 -1.69472,-3.302063"/>
      <path inkscape:connector-curvature="0" style="fill:#009b3a;fill-opacity:1;fill-rule:nonzero;stroke:#000000;stroke-width:0.68733555;stroke-miterlimit:4;stroke-opacity:1;stroke-dasharray:none" id="path2626" d="m 113.15717,62.160108 c 0.23698,-0.461596 0.79146,-1.415816 1.02397,-2.86713 0.085,-0.61691 0.14309,-1.615516 0.12082,-2.307893 -0.0182,-0.46156 -0.20123,-1.264901 0,-1.318138 0.17886,-0.04435 0.0288,0.250052 0.13177,0.933541 0.0491,0.244122 -0.11918,0.91969 -0.15057,1.785174 -0.0401,0.692359 -0.0677,1.270304 -0.37622,2.206766 -0.26828,0.825516 -0.0252,1.74077 -0.19074,1.998196 -0.17885,0.261843 -0.65284,1.251579 -0.65284,1.251579 0,0 -0.29064,0.798888 -0.24146,1.526762 0.0268,0.745632 0.0715,1.548937 0.0715,1.548937 0,0 0.34432,-0.639103 1.11342,-0.745614 0,0 0.17448,-1.247144 0.17448,-1.637727 0,-0.390565 0.50082,-2.946995 0.75571,-3.728125 0.34877,-1.145086 0.5947,-3.137844 0.0403,-5.450189 -0.15203,-0.62578 -0.26381,-2.583062 -0.26381,-2.583062 0,0 -0.73782,0.5903 -1.17604,2.82273 -0.13414,0.679054 0.15203,2.49874 0.0403,4.43826 -0.0447,1.069619 -1.0704,5.40438 -1.20901,5.675129"/>
      <path inkscape:connector-curvature="0" style="fill:#009b3a;fill-opacity:1;fill-rule:nonzero;stroke:#000000;stroke-width:0.68733555;stroke-miterlimit:4;stroke-opacity:1;stroke-dasharray:none" id="path2630" d="m 113.15717,62.160108 c -0.0358,0.06661 -0.0493,0.09326 -0.0493,0.09326 0,0 0.0314,-0.02665 0.0493,-0.09326"/>
      <path inkscape:connector-curvature="0" style="fill:#009b3a;fill-opacity:1;fill-rule:nonzero;stroke:#000000;stroke-width:0.68733555;stroke-miterlimit:4;stroke-opacity:1;stroke-dasharray:none" id="path2634" d="m 110.25019,50.907324 c 0.39351,0 0.39351,0.426081 0.31302,0.763372 -0.0626,0.346198 -0.0537,0.989754 -0.0537,1.122893 0,0.150933 0.16535,1.069622 0.29511,1.548941 0.14308,0.492659 0.38903,0.647991 0.2817,1.637726 -0.0715,0.621364 -0.71098,1.353655 -0.48739,2.409987 0.12064,0.554767 0.51869,1.13618 0.71545,1.615516 0.16535,0.332856 0.0752,1.145925 0.11991,1.811674 0.0182,0.647973 0.37645,1.086501 0.37645,1.086501 0,0 -0.44267,0.825516 -0.59022,-0.208587 -0.16098,-1.185018 -0.21463,-1.713175 -0.44269,-2.250202 -0.37115,-0.87879 -0.71103,-2.459647 -0.13415,-3.680163 0.0984,-0.235233 0.17521,-0.673761 0.17521,-1.19303 0,-0.528176 -0.32599,-1.430837 -0.38859,-1.990042 -0.0537,-0.443821 -0.0183,-1.380502 -0.0183,-1.717811 m -2.06713,4.963866 c 0.0938,0.670166 0.30853,1.051879 1.06423,2.50761 0.23253,0.479336 0.76016,1.704305 0.84065,2.094852 0.0938,0.390583 0.17447,0.861032 0.17447,0.980866 0,0.128667 0.0851,1.047426 0.0851,1.047426 l 0,0.381677 c 0,0 -2.0927,-1.220516 -3.00936,-1.872924 -0.9122,-0.656861 -1.94961,-1.557843 -2.6114,-2.10374 -0.75121,-0.61691 -2.53982,-2.738408 -2.56218,-4.43826 l -0.82277,-0.745633 c 0,0 -0.62602,3.776965 2.33413,6.222449 0.85408,0.701229 1.78415,1.473489 3.77399,2.374471 1.99433,0.918722 1.73267,1.741829 2.56437,3.50826 0.81831,1.7753 1.33046,2.796208 1.4333,3.297737 0.0715,0.537027 -0.22638,8.083218 -0.22638,8.083218 l 0.0715,0.683489 c 0,0 1.82265,-6.989125 2.69906,-7.770255 0,0 -1.73942,-0.266296 -1.6008,-3.000269 L 112.2487,66.27701 c 0,0 -0.34877,-2.165865 0.30408,-3.51065 0,0 0.77357,-2.463242 0.50976,-4.59361 -0.16554,-1.273772 -0.22359,-1.655467 -0.38009,-2.876001 -0.23701,-1.899573 -0.99715,-4.615788 -1.0821,-4.944191 -0.25936,-0.954257 -0.34879,-1.1007 -0.65285,-1.855203 -0.0894,-0.266296 -0.25938,-1.145085 -0.54108,-1.15839 -0.16097,-0.0091 -0.40692,1.131763 -0.40692,1.131763 0,0 -0.36663,1.242708 -0.44267,1.580018 -0.237,1.00304 -0.79146,1.846314 -1.04633,4.100954 -0.0447,0.408323 -0.0894,1.509005 -0.1387,1.655448 -0.0268,0.124288 -0.0805,0.772261 -0.0268,1.020817"/>
      <path inkscape:connector-curvature="0" style="fill:#009b3a;fill-opacity:1;fill-rule:nonzero;stroke:#000000;stroke-width:0.68733555;stroke-miterlimit:4;stroke-opacity:1;stroke-dasharray:none" id="path2638" d="m 109.89963,66.36445 c 0,0 -0.30407,-0.674619 -0.6126,-1.020799 -0.62154,-0.732309 -1.45774,-1.353654 -3.83659,-2.51648 -2.36992,-1.180583 -2.99596,-3.120103 -4.20326,-3.918991 -0.55448,-0.381677 -1.627654,-0.563636 -1.627654,-0.563636 0,0 1.055294,1.451295 1.305694,1.952806 0.32196,0.639122 0.39797,1.074072 1.70366,2.290153 1.29675,1.220516 2.87969,1.646579 3.89921,1.94839 1.43984,0.448256 3.37154,1.828557 3.37154,1.828557"/>
      <path inkscape:connector-curvature="0" style="fill:#009b3a;fill-opacity:1;fill-rule:nonzero;stroke:#000000;stroke-width:0.68733555;stroke-miterlimit:4;stroke-opacity:1;stroke-dasharray:none" id="path2642" d="m 102.43083,55.149028 c 0.0626,0.190848 0.67385,2.277414 1.9572,3.897383 1.96301,2.480982 5.74142,4.252888 5.74142,4.252888 -0.35326,-1.544502 -0.96942,-3.329914 -1.45683,-4.11995 -1.71708,-2.773888 -6.25521,-4.132397 -6.25521,-4.132397 0,0 -0.0805,-0.106584 0.0128,0.102021"/>
      <path inkscape:connector-curvature="0" style="fill:#009b3a;fill-opacity:1;fill-rule:nonzero;stroke:#000000;stroke-width:0.68733555;stroke-miterlimit:4;stroke-opacity:1;stroke-dasharray:none" id="path2646" d="m 107.8472,56.317566 c 1.01651,-2.22529 -2.01941,-4.351938 -2.87522,-5.902883 0.31747,-0.252991 0.69309,0.408323 1.04186,0.847709 0.49635,0.661295 1.89596,2.574192 1.89596,2.574192 l 0.43374,-2.037147 -3.6148,-3.28916 c -0.0447,0.479318 -1.16035,0.871799 -1.16035,0.871799 -0.54104,3.044637 4.27881,6.93549 4.27881,6.93549"/>
      <path inkscape:connector-curvature="0" style="fill:#009b3a;fill-opacity:1;fill-rule:nonzero;stroke:#000000;stroke-width:0.68733555;stroke-miterlimit:4;stroke-opacity:1;stroke-dasharray:none" id="path2650" d="m 101.55306,51.159147 c -0.87195,0.390584 -1.18049,0.390584 -1.18049,0.390584 l 0.48691,1.290014 0.28172,0.350632 c 0,0 1.13576,1.642166 1.79754,1.846318 0.27727,0.102022 1.31019,0.284054 2.34759,0.727875 1.30569,0.554784 3.43588,2.418601 3.43588,2.418601 0,0 -3.54418,-3.997342 -4.90347,-6.993801 l -0.45789,-1.72752 -1.28463,0.08614 c 0,0 0.35326,1.211664 -0.52316,1.611099"/>
      <path inkscape:connector-curvature="0" style="fill:#009b3a;fill-opacity:1;fill-rule:nonzero;stroke:#000000;stroke-width:0.68733555;stroke-miterlimit:4;stroke-opacity:1;stroke-dasharray:none" id="path2654" d="m 88.288596,48.602534 c 0.406917,0.363956 1.073177,0.918722 1.927237,1.429121 0.782517,0.470467 3.036187,1.797494 4.721968,2.117064 0.393503,0.06205 2.512026,0.328622 2.512026,0.328622 0.08505,-0.92761 1.091064,-1.007494 1.091064,-1.007494 l -2.99943,-0.328622 c -2.418747,-0.180134 -4.259787,-1.190347 -5.692303,-2.809422 1.922547,1.165052 4.684682,3.000616 6.924116,2.90303 9.194026,-0.904961 -2.770019,-1.132164 -3.807425,-1.797895 -1.100006,-0.679054 -2.039041,-1.806381 -2.039041,-1.806381 L 88.230467,47.51065 c 0,0 -1.323577,-0.08432 0.05804,1.091793"/>
      <path inkscape:connector-curvature="0" style="fill:#009b3a;fill-opacity:1;fill-rule:nonzero;stroke:#000000;stroke-width:0.68733555;stroke-miterlimit:4;stroke-opacity:1;stroke-dasharray:none" id="path2658" d="m 99.11378,53.838354 c 0.594718,-0.04435 1.01058,-0.155313 1.14472,-0.807761 0.12064,-0.727875 -0.15659,-1.256032 -1.032916,-1.446861 -0.487421,-0.119907 -1.341481,-0.146553 -1.690252,0.718986 -0.380089,0.887659 1.001617,1.455749 1.001617,1.455749 0,0 0.263832,0.115344 0.576831,0.07994"/>
      <path inkscape:connector-curvature="0" style="fill:#009b3a;fill-opacity:1;fill-rule:nonzero;stroke:#000000;stroke-width:0.68733555;stroke-miterlimit:4;stroke-opacity:1;stroke-dasharray:none" id="path2662" d="m 100.14403,48.567913 c -0.778061,0 -1.041875,0.634686 -0.876414,1.872941 0.205685,1.247162 2.115014,0.701265 2.115014,0.701265 l 0.35327,-0.181959 c 0,0 0.25936,-0.199718 0.11625,-1.193888 -0.13414,-1.016363 -0.9256,-1.198341 -1.70812,-1.198341"/>
      <path inkscape:connector-curvature="0" style="fill:#009b3a;fill-opacity:1;fill-rule:nonzero;stroke:#000000;stroke-width:0.68733555;stroke-miterlimit:4;stroke-opacity:1;stroke-dasharray:none" id="path2666" d="m 103.27054,49.443581 -0.0314,0 c -0.0128,0.0091 0.0314,0 0.0314,0"/>
      <path inkscape:connector-curvature="0" style="fill:#009b3a;fill-opacity:1;fill-rule:nonzero;stroke:#000000;stroke-width:0.68733555;stroke-miterlimit:4;stroke-opacity:1;stroke-dasharray:none" id="path2670" d="m 103.24015,49.443581 c 0.0223,-0.0091 0.0759,-0.03541 0.27723,-0.09326 0.39798,-0.150933 0.80042,-1.105116 0.80042,-1.105116 0.2012,-1.291529 -0.7244,-1.611099 -0.7244,-1.611099 -1.55611,-0.310664 -1.59634,1.056314 -1.59634,1.056314 -0.42927,1.779754 1.01505,1.761977 1.24309,1.753108"/>
      <path inkscape:connector-curvature="0" style="fill:#009b3a;fill-opacity:1;fill-rule:nonzero;stroke:#000000;stroke-width:0.68733555;stroke-miterlimit:4;stroke-opacity:1;stroke-dasharray:none" id="path2674" d="m 96.310126,43.332115 c 0.08505,0.590282 0.925621,1.446879 1.055292,1.593323 0.152028,0.13323 1.225206,1.251596 1.587391,1.753126 0.362204,0.501511 1.565931,2.776588 1.565931,2.776588 0,0 0.21015,-0.03559 0.29958,-0.208605 0.21018,-0.355068 -0.80575,-3.109445 -0.908572,-3.300311 -0.372004,-0.836886 -0.980373,-1.460567 -1.591899,-2.112592 -0.143085,-0.09326 -0.643903,-0.736763 -1.193888,-1.429121 1.087851,1.39262 3.878349,5.352547 4.700449,7.112755 0,0 -0.0993,-1.875625 -0.20207,-2.883118 -0.34877,-2.938108 -1.11342,-3.84796 -1.35935,-4.274041 -0.433746,-0.794435 -1.533752,-1.566695 -2.32074,-1.837426 -0.786989,-0.284036 -1.717081,-0.674619 -2.714245,-0.99417 -1.028445,-0.315099 -0.236985,0.612475 0.143086,1.411363 0.47397,0.94535 0.85406,1.793058 0.939017,2.392229"/>
      <path inkscape:connector-curvature="0" style="fill:#009b3a;fill-opacity:1;fill-rule:nonzero;stroke:#000000;stroke-width:0.68733555;stroke-miterlimit:4;stroke-opacity:1;stroke-dasharray:none" id="path2678" d="m 92.471748,48.164937 c 1.015049,0.861014 1.471152,1.460184 3.577247,1.770866 2.123998,0.332874 2.302855,0.190847 2.302855,0.190847 0,0 1.100864,-0.531935 0.541918,-0.997966 -3.120724,-1.37207 -6.075604,-3.006621 -7.575684,-4.842769 0,0 0.259361,-0.252992 1.341463,0.829932 0.626036,0.634687 1.04635,0.954238 1.430892,1.251597 1.135778,0.794435 1.627671,1.020798 2.758959,1.637708 0.60366,0.32844 2.110565,0.683489 2.110565,0.683489 0,0 0.214647,-0.457125 0.406918,-0.510399 0.183347,-0.04435 -0.116804,-0.760616 -1.426895,-1.821365 -1.153681,-0.932027 -1.913841,-2.077095 -1.913841,-2.077095 0,0 -1.551146,-0.340065 -3.232455,-0.619684 -1.252016,-0.199717 -3.608547,-2.028273 -3.568304,-1.531179 0.04471,0.510381 0.35326,2.094852 0.988239,3.102346 0.639431,1.01191 1.247545,2.046031 2.258123,2.933672"/>
      <path inkscape:connector-curvature="0" style="fill:#009b3a;fill-opacity:1;fill-rule:nonzero;stroke:#000000;stroke-width:0.54986846;stroke-miterlimit:4;stroke-opacity:1;stroke-dasharray:none" id="path2686" d="m 74.928863,111.66373 c -0.921131,0.27073 -7.82247,2.86246 -7.82247,2.86246 l -1.927256,0.77226 c 2.660587,-0.59917 4.699629,0.7412 4.699629,0.7412 l 7.688309,-3.55929 c 0,0 -0.02227,-0.11534 -0.214629,-0.25296 -0.201214,-0.13761 -1.493509,-0.84327 -2.423583,-0.56367"/>
      <path inkscape:connector-curvature="0" style="fill:#009b3a;fill-opacity:1;fill-rule:nonzero;stroke:#000000;stroke-width:0.5876891;stroke-miterlimit:4;stroke-opacity:1;stroke-dasharray:none" id="path2690" d="m 64.887619,115.53219 c -0.0511,0.0443 -0.102204,0.22636 0.03066,0.28405 0.383064,0.21304 0.280915,0.29736 2.022688,0.50597 1.757087,0.19084 2.901223,-0.142 3.202597,-0.47491 0.352458,-0.38611 -4.351861,-1.10511 -5.255928,-0.31511"/>
      <path inkscape:connector-curvature="0" style="fill:#009b3a;fill-opacity:1;fill-rule:nonzero;stroke:#000000;stroke-width:0.76290947;stroke-miterlimit:4;stroke-opacity:1;stroke-dasharray:none" id="path2694" d="M 53.844064,90.701761 53.524257,88.54555 c 0,0 -0.402227,-5.833125 -1.063523,-7.002831 -0.127573,-0.259288 -0.07081,-0.864536 -0.4914,-0.874629 -0.803962,-0.06114 -0.803962,1.835839 -0.901549,3.554763 -1.309323,8.670087 5.604645,15.288959 5.604645,15.288959 z"/>
      <path inkscape:connector-curvature="0" style="fill:#009b3a;fill-opacity:1;fill-rule:nonzero;stroke:#000000;stroke-width:0.70265466;stroke-miterlimit:4;stroke-opacity:1;stroke-dasharray:none" id="path2698" d="m 88.05891,116.38886 c 0,0 -0.725209,-0.16225 -0.265511,-0.72749 0.439842,-0.53911 1.74756,-0.82694 2.009111,-0.82694 0.25759,-0.0109 0.990702,0.0524 1.537548,0.20409 0.550843,0.13615 1.311715,0.62285 1.089823,0.97351 -0.233828,0.33496 -0.97884,0.75363 -1.997284,0.75363 -0.871818,0 -1.319581,-0.021 -1.703977,-0.13086 -0.372515,-0.14126 -0.66971,-0.24598 -0.66971,-0.24598"/>
      <path inkscape:connector-curvature="0" style="fill:#009b3a;fill-opacity:1;fill-rule:nonzero;stroke:#000000;stroke-width:0.54986846;stroke-miterlimit:4;stroke-opacity:1;stroke-dasharray:none" id="path2682" d="m 80.56353,112.26402 c 0,0 -2.374398,-1.09182 -4.623597,-2.1925 -2.964625,-1.44686 -6.528458,-3.45741 -9.010189,-7.14559 -3.107729,-4.56696 -5.808541,-7.012444 -6.461387,-7.505104 -0.670731,-0.492641 -0.769103,-0.674619 -1.015031,-0.328421 -0.223571,0.301812 -0.06716,0.563655 0.120637,0.883224 0.639432,1.038538 2.208937,2.991382 2.772373,4.038811 0.970317,1.87294 2.97804,3.91897 2.960154,5.13062 0,0.16863 -0.585774,-0.11991 -0.585774,-0.11991 0,0 -4.699611,-1.6111 -6.604491,-7.305392 -1.386177,-4.127579 -0.795932,-5.339207 -1.117892,-7.403014 -0.549985,-3.666 -0.661789,-3.963359 -2.477241,-8.07318 -0.04909,-0.102021 -1.108949,-1.819686 -1.252016,-1.438009 -0.196761,0.492659 0.178857,2.330085 0.178857,2.330085 l 0.192289,2.117063 c 0,0 -0.152028,4.700104 -0.152028,4.984157 0,0.284054 -1.184964,3.217727 3.845532,8.148647 0,0 0.0761,0.838839 -0.599189,0.102021 -0.47846,-0.528157 -4.078046,-3.293193 -5.173581,-7.842399 -1.126835,-4.549225 -1.292296,-9.102866 -0.438218,-10.993566 0.773575,-1.708722 2.325195,-5.885122 1.663406,-9.533382 -0.07611,-0.381695 -0.18331,-1.500135 -0.424804,-1.207193 -0.102751,0.141991 -0.554456,1.988323 -0.827213,2.627444 -0.380089,0.874337 -0.970335,1.73535 -1.153681,2.338955 -0.353243,1.025234 -2.088209,2.609687 -1.748363,5.525638 0.384543,3.350883 0.603642,3.874587 1.006089,5.068493 0.138705,0.434933 0.473988,1.544503 0.254871,1.655449 -0.201214,0.106584 -0.912189,-1.327027 -0.912189,-1.327027 0,0 -3.183743,-6.257929 -1.220716,-11.33531 1.985366,-5.055171 6.966676,-9.848481 6.966676,-9.848481 0,0 4.046746,-3.355318 4.869506,-4.136467 0.321979,-0.301793 0.245947,-0.528157 0.138706,-0.492641 -1.006107,0.252992 -8.79109,1.864054 -11.527673,11.140028 0,0 -0.143086,0.390565 -0.344318,0.292906 -0.250399,-0.110965 0,-0.545897 0,-0.545897 0,0 1.71261,-6.577498 6.519552,-9.56001 5.245106,-3.270982 4.62805,-2.791664 6.362998,-3.821332 1.091064,-0.679036 2.079284,-1.588888 3.300019,-3.608313 0.1252,-0.226327 0.621546,-1.402476 0.554475,-1.602211 -0.05366,-0.199718 -0.290643,0.07538 -0.402447,0.408323 0,0 -1.484566,2.294591 -3.706918,3.066833 -2.231312,0.77226 -4.042275,-0.328421 -6.28253,2.148126 -2.244709,2.489852 -4.028861,5.938395 -4.028861,5.938395 0,0 -0.585793,0.892076 -0.715464,0.865448 -0.245946,-0.07538 0.12082,-0.949784 0.12082,-0.949784 0,0 2.995944,-6.355588 5.401642,-7.647117 2.410169,-1.300399 4.556525,-2.547565 5.924816,-3.603861 1.663424,-1.304852 4.529697,-4.500404 5.562614,-5.601067 0.219099,-0.235233 1.757323,-1.793059 2.097169,-2.299023 0.205686,-0.275184 0.693089,-0.674619 0.612603,-0.745632 -0.219117,-0.164257 -1.676838,0.537027 -1.676838,0.537027 0,0 -7.934821,2.186507 -12.871417,9.642758 -0.22806,0.346198 -0.771146,1.050441 -1.061789,1.3478 -0.527646,0.545915 -0.790785,1.457063 -0.790785,1.457063 -0.32196,-0.266296 2.789401,-4.156966 2.789401,-4.156966 l 0.545532,-2.51648 c 0,0 0.921149,-3.781399 2.857312,-6.448794 0.192289,-0.244122 1.336991,-1.398059 1.529281,-1.637727 0.38456,-0.417193 -0.72886,0.363937 -0.532118,0.190848 0,0 -7.400422,5.312615 -7.400422,12.005494 0,1.202761 -0.746746,2.299026 -1.779681,3.794708 -1.20732,1.735368 -1.609748,2.800533 -2.132923,5.38361 -0.371146,1.846314 -0.679674,3.253242 -0.679674,3.253242 0,0 0.07154,0.954238 -0.236986,0.883225 -0.32196,-0.071 -0.210175,-0.861032 -0.210175,-0.861032 0,0 0.755689,-4.98861 1.292278,-6.524243 0.523174,-1.491246 0.867474,-2.507609 0.867474,-2.507609 0,0 -0.308528,-3.750341 0.523193,-5.805242 0.706503,-1.793059 2.495108,-4.154225 2.772354,-4.744507 0.120637,-0.257426 0.947978,-1.939502 1.180492,-3.856848 0.03121,-0.257408 -0.169914,-0.04435 -0.505289,0.7057 -0.813817,1.832991 -1.493491,2.312327 -2.830483,4.038807 0,0 -3.42969,2.485417 -4.6728,9.879547 0,0 -0.04015,2.756184 -0.460556,7.074592 -0.304075,3.164471 -0.04471,6.129243 0.313017,7.913413 0.228043,1.091812 0.661789,1.1007 0.393485,1.233839 -0.165351,0.08432 0.106767,0.0146 -0.282301,-0.811225 -0.473989,-0.989736 -0.837197,-2.513031 -0.837197,-4.616753 0,-3.856848 0.335375,-6.954758 0.335375,-6.954758 0,0 0.252006,-6.231319 -2.332549,-9.040726 -0.1252,-0.146553 0.451614,1.260448 0.710974,2.662945 0.31749,1.739803 -0.25936,4.154207 -0.429256,5.095121 -0.165534,0.94535 -1.887013,5.064059 -1.278882,8.929777 0,0 1.457721,6.555305 3.335791,9.733099 0,0 1.167917,1.367945 0.135055,0.08523 -1.023992,-1.282659 -3.126473,-6.383201 -3.309783,-6.818152 -0.160971,-0.417193 -1.667895,-3.590534 -3.085373,-4.882081 -0.733349,-0.683489 -2.750015,-1.895116 -2.750015,-1.895116 0,0 -1.095535,-0.834404 -0.263814,0.275166 0.657317,0.874336 1.538205,2.445484 1.958537,3.128973 1.055292,1.699834 1.851224,3.328691 2.325195,4.402744 0.675203,1.482377 2.244745,5.845189 2.244745,5.845189 l 1.004883,2.767263 c 0,0 1.682514,0.934235 2.599174,1.955033 0.751217,0.825516 2.307327,2.720669 3.599604,6.093727 0.581303,1.491265 1.740862,2.858261 1.740862,2.858261 0,0 -0.245618,0.473314 -1.278535,-1.315292 -1.019521,-1.810816 -2.01756,-5.209042 -4.472444,-7.854244 -1.864638,-2.028292 -6.882595,-4.074232 -6.882595,-4.074232 0,0 3.223986,5.618807 4.024407,6.621866 1.354878,1.606646 3.313415,3.861282 3.818704,4.456 0.523175,0.60804 3.554872,4.353942 4.002032,4.953094 0.706522,0.93648 1.171568,1.349238 1.542696,1.730933 0.800402,0.852144 3.169471,2.405571 3.3528,2.650331 0.03577,0.248538 0.08304,0.04289 -0.118082,-0.103482 -1.050803,-0.625798 -2.305794,-1.6163 -3.602543,-2.459574 -1.292259,-0.856578 -6.282421,-2.985669 -9.643926,-7.618956 -0.795932,-1.371412 -1.176021,-1.917309 -1.444306,-1.775282 -0.411389,0.217475 2.262594,9.06735 7.762607,11.881207 0,0 6.067903,2.698456 7.413837,3.510666 0.737821,0.44382 2.226841,1.10068 2.915458,1.65547 0.393486,0.32399 -0.357713,0.30625 -0.406899,0.29738 -3.224005,-0.25299 -7.852072,-0.67908 -10.691498,-2.32567 0,0 -1.220735,-0.85658 -0.219118,0.34618 0.795949,0.93204 2.307345,3.22661 5.222785,4.51814 2.91993,1.28266 7.163437,2.02829 8.715057,2.10819 1.524809,0.0843 6.962223,0.11097 8.004101,0.44826 1.019502,0.34618 2.75414,1.45752 3.746832,1.77707 0.903264,0.29292 3.626433,1.33593 3.626433,1.33593 0,0 0.818307,0.44826 1.256506,0.60804 0.491875,0.19527 2.531975,0.17795 2.675078,-0.20375 0.138706,-0.34174 -0.582069,-0.86322 -0.582069,-0.86322"/>
      <path inkscape:connector-curvature="0" style="fill:#009b3a;fill-opacity:1;fill-rule:nonzero;stroke:#000000;stroke-width:0.68733555;stroke-miterlimit:4;stroke-opacity:1;stroke-dasharray:none" id="path2622" d="m 115.82131,66.183184 c 0.61708,0.226345 0.88983,2.054919 0.88983,2.054919 0,0 -0.0537,-1.047444 -0.0537,-1.562278 0,-0.519287 -0.25489,-2.467678 -0.25489,-2.467678 l -0.54553,0.390565 c -0.65285,0.519288 -1.01504,1.43801 -1.01504,1.43801 0,0 0.3756,-0.06205 0.97926,0.146553"/>
    </g>
  </g>
</svg>