<?xml version="1.0" encoding="UTF-8" standalone="no"?>
    <!-- Created with Inkscape (http://www.inkscape.org/) -->
    <svg xmlns:svg="http://www.w3.org/2000/svg" xmlns="http://www.w3.org/2000/svg" version="1.0" width="70" height="30" id="svg2">
        <defs id="defs4" />
        <g transform="translate(-377.20407,-492.39628)" id="layer1">
            <g transform="translate(377.89885,493.09129)" id="g2384">
                <polygon points="15.337,25.557 15.786,25.557 17.733,27.921 17.733,25.557 18.047,25.557 18.047,28.432 17.733,28.432 15.636,25.862 15.636,28.432 15.337,28.432 15.337,25.557 " id="polygon2386" style="fill:#7f7e82" />

                <path d="M 19.702,25.557 L 20.091,25.557 L 21.43,28.432 L 21.075,28.432 L 20.555,27.274 L 19.254,27.274 L 18.709,28.432 L 18.357,28.432 L 19.702,25.557 z M 20.422,26.989 L 19.897,25.83 L 19.37,26.991 L 20.422,26.989 z" id="path2388" style="fill:#7f7e82" />

                <polygon points="22.129,25.863 20.993,25.863 20.993,25.557 23.582,25.557 23.582,25.863 22.445,25.863 22.445,28.432 22.129,28.432 22.129,25.863 " id="polygon2390" style="fill:#7f7e82" />

                <rect width="0.317" height="2.875" x="23.896999" y="25.556999" id="rect2392" style="fill:#7f7e82" />

                <path d="M 26.188,25.484 C 27.076,25.484 27.718,26.055 27.718,27.012 C 27.718,28.03 26.94,28.503 26.188,28.503 C 25.431,28.503 24.656,28.03 24.656,27.012 C 24.656,26.055 25.301,25.484 26.188,25.484 M 26.188,28.192 C 26.823,28.192 27.395,27.821 27.395,26.947 C 27.395,26.305 26.946,25.778 26.188,25.778 C 25.428,25.778 24.979,26.305 24.979,26.947 C 24.979,27.821 25.544,28.192 26.188,28.192" id="path2394" style="fill:#7f7e82" />

                <polygon points="28.161,25.557 28.611,25.557 30.558,27.921 30.558,25.557 30.873,25.557 30.873,28.432 30.558,28.432 28.463,25.862 28.463,28.432 28.161,28.432 28.161,25.557 " id="polygon2396" style="fill:#7f7e82" />

                <polygon points="34.565,25.557 34.884,25.557 34.884,28.125 36.944,28.125 36.944,28.432 34.565,28.432 34.565,25.557 " id="polygon2398" style="fill:#7f7e82" />

                <polygon points="38.763,25.557 39.082,25.557 39.082,28.125 41.146,28.125 41.146,28.432 38.763,28.432 38.763,25.557 " id="polygon2400" style="fill:#7f7e82" />

                <path d="M 44.715,25.556 L 46.228,25.556 C 46.527,25.556 47.245,25.556 47.245,26.306 C 47.245,26.703 47.009,26.827 46.844,26.911 C 47.002,26.99 47.333,27.148 47.333,27.624 C 47.333,28.4 46.597,28.432 46.051,28.432 L 44.715,28.432 L 44.715,25.556 z M 45.032,26.783 L 46.143,26.783 C 46.511,26.783 46.926,26.715 46.926,26.313 C 46.926,25.854 46.502,25.848 46.035,25.848 L 45.032,25.848 L 45.032,26.783 z M 45.032,28.124 L 46.258,28.124 C 46.637,28.124 47.009,28.052 47.009,27.614 C 47.009,27.214 46.72,27.074 46.294,27.074 L 45.032,27.074 L 45.032,28.124 L 45.032,28.124 z" id="path2402" style="fill:#7f7e82" />

                <path d="M 49.175,25.484 C 50.061,25.484 50.706,26.055 50.706,27.012 C 50.706,28.03 49.929,28.503 49.175,28.503 C 48.418,28.503 47.644,28.03 47.644,27.012 C 47.645,26.055 48.285,25.484 49.175,25.484 M 49.175,28.192 C 49.81,28.192 50.382,27.821 50.382,26.947 C 50.382,26.305 49.934,25.778 49.175,25.778 C 48.416,25.778 47.965,26.305 47.965,26.947 C 47.965,27.821 48.53,28.192 49.175,28.192" id="path2404" style="fill:#7f7e82" />

                <path d="M 51.146,25.557 L 52.659,25.557 C 53.075,25.557 53.687,25.655 53.687,26.361 C 53.687,26.96 53.179,27.134 52.862,27.149 L 53.726,28.432 L 53.334,28.432 L 52.492,27.161 L 51.465,27.161 L 51.465,28.432 L 51.146,28.432 L 51.146,25.557 L 51.146,25.557 z M 51.466,26.851 L 52.585,26.851 C 53.044,26.851 53.387,26.778 53.387,26.357 C 53.387,25.937 53.044,25.863 52.585,25.863 L 51.466,25.863 L 51.466,26.851 z" id="path2406" style="fill:#7f7e82" />

                <polygon points="57.778,25.863 56.642,25.863 56.642,25.557 59.231,25.557 59.231,25.863 58.097,25.863 58.097,28.432 57.778,28.432 57.778,25.863 " id="polygon2408" style="fill:#7f7e82" />

                <path d="M 60.794,25.484 C 61.682,25.484 62.323,26.055 62.323,27.012 C 62.323,28.03 61.549,28.503 60.794,28.503 C 60.036,28.503 59.261,28.03 59.261,27.012 C 59.261,26.055 59.901,25.484 60.794,25.484 M 60.794,28.192 C 61.43,28.192 62.002,27.821 62.002,26.947 C 62.002,26.305 61.551,25.778 60.794,25.778 C 60.034,25.778 59.584,26.305 59.584,26.947 C 59.584,27.821 60.149,28.192 60.794,28.192" id="path2410" style="fill:#7f7e82" />

                <path d="M 62.768,25.557 L 64.277,25.557 C 64.694,25.557 65.305,25.655 65.305,26.361 C 65.305,26.96 64.798,27.134 64.483,27.149 L 65.346,28.432 L 64.952,28.432 L 64.112,27.161 L 63.085,27.161 L 63.085,28.432 L 62.768,28.432 L 62.768,25.557 L 62.768,25.557 z M 63.085,26.851 L 64.208,26.851 C 64.663,26.851 65.003,26.778 65.003,26.357 C 65.003,25.937 64.663,25.863 64.208,25.863 L 63.085,25.863 L 63.085,26.851 z" id="path2412" style="fill:#7f7e82" />

                <polygon points="66.785,27.271 65.437,25.557 65.851,25.557 66.944,26.959 68.035,25.557 68.449,25.557 67.103,27.271 67.103,28.432 66.785,28.432 66.785,27.271 " id="polygon2414" style="fill:#7f7e82" />

                <path d="M 42.677,25.557 L 43.064,25.557 L 44.406,28.432 L 44.051,28.432 L 43.529,27.274 L 42.224,27.274 L 41.684,28.432 L 41.332,28.432 L 42.677,25.557 z M 43.398,26.989 L 42.87,25.83 L 42.351,26.989 L 43.398,26.989 z" id="path2416" style="fill:#7f7e82" />

                <path d="M 55.354,25.557 L 55.741,25.557 L 57.081,28.432 L 56.727,28.432 L 56.204,27.274 L 54.909,27.274 L 54.361,28.432 L 54.01,28.432 L 55.354,25.557 z M 56.073,26.989 L 55.549,25.83 L 55.022,26.989 L 56.073,26.989 z" id="path2418" style="fill:#7f7e82" />

                <path d="M 32.527,25.557 L 32.914,25.557 L 34.255,28.432 L 33.899,28.432 L 33.378,27.274 L 32.081,27.274 L 31.533,28.432 L 31.181,28.432 L 32.527,25.557 z M 33.248,26.989 L 32.721,25.83 L 32.197,26.989 L 33.248,26.989 z" id="path2420" style="fill:#7f7e82" />

                <path d="M 30.691,21.641 C 30.691,22.728 31.57,23.617 32.649,23.617 C 33.729,23.617 34.606,22.728 34.606,21.641 C 34.606,20.55 33.729,19.662 32.649,19.662 C 31.57,19.662 30.691,20.55 30.691,21.641 M 31.677,21.641 C 31.677,20.996 32.076,20.55 32.649,20.55 C 33.221,20.55 33.621,20.996 33.621,21.641 C 33.621,22.282 33.221,22.729 32.649,22.729 C 32.076,22.729 31.677,22.282 31.677,21.641" id="path2422" style="fill:#7f7e82" />

                <path d="M 0,18.54 L 0,23.491 L 1.067,23.491 L 1.067,21.641 L 1.928,21.641 C 2.673,21.641 4.058,21.641 4.058,20.096 C 4.058,18.54 2.673,18.54 1.928,18.54 L 0,18.54 L 0,18.54 z M 2.123,19.52 C 2.712,19.52 2.994,19.606 2.994,20.089 C 2.994,20.574 2.712,20.661 2.123,20.661 L 1.067,20.661 L 1.067,19.52 L 2.123,19.52 z" id="path2424" style="fill:#7f7e82" />

                <path d="M 7.847,23.358 C 7.827,23.319 7.794,23.201 7.794,22.829 L 7.794,21.072 C 7.794,20.617 7.794,19.669 6.065,19.669 C 5.194,19.669 4.619,19.972 4.375,20.55 L 5.299,20.775 C 5.372,20.654 5.558,20.506 6.07,20.506 C 6.589,20.506 6.852,20.631 6.852,20.875 L 6.852,20.946 C 5.964,21.003 4.09,21.153 4.09,22.455 C 4.09,23.365 4.958,23.609 5.47,23.609 C 6.092,23.609 6.565,23.366 6.862,23.195 C 6.871,23.276 6.885,23.357 6.896,23.419 L 6.911,23.491 L 7.913,23.491 L 7.847,23.358 z M 6.852,22.378 C 6.528,22.579 6.1,22.799 5.585,22.799 C 5.409,22.799 5.273,22.755 5.198,22.669 C 5.139,22.607 5.106,22.52 5.106,22.41 L 5.106,22.398 C 5.113,22.214 5.193,22.024 5.753,21.887 C 6.117,21.793 6.478,21.742 6.852,21.722 L 6.852,22.378 L 6.852,22.378 z" id="path2426" style="fill:#7f7e82" />

                <path d="M 11.107,22.229 C 10.991,22.491 10.673,22.734 10.152,22.734 C 9.416,22.734 9.153,22.14 9.153,21.583 C 9.153,21.079 9.525,20.545 10.214,20.545 C 10.684,20.545 10.961,20.791 11.072,21.006 L 11.986,20.766 C 11.79,20.179 11.196,19.666 10.162,19.669 C 8.872,19.677 8.196,20.62 8.196,21.549 C 8.196,22.859 8.939,23.609 10.231,23.609 C 11.218,23.609 11.783,23.046 12.02,22.467 L 11.107,22.229 z" id="path2428" style="fill:#7f7e82" />

                <path d="M 12.542,19.325 L 13.486,19.325 L 13.486,18.425 L 12.542,18.425 L 12.542,19.325 z M 12.542,23.49 L 13.486,23.49 L 13.486,19.785 L 12.542,19.785 L 12.542,23.49 z" id="path2430" style="fill:#7f7e82" />

                <path d="M 15.5,19.754 C 15.5,19.606 15.534,19.527 15.607,19.431 C 15.745,19.25 16.256,19.216 16.604,19.251 L 16.874,18.41 L 16.808,18.398 C 16.437,18.343 15.986,18.358 15.957,18.358 L 15.949,18.358 C 15.76,18.358 15.188,18.423 14.839,18.791 C 14.65,18.985 14.556,19.257 14.556,19.587 L 14.556,19.905 L 13.933,19.905 L 13.933,20.78 L 14.556,20.78 L 14.556,23.491 L 15.5,23.491 L 15.5,20.78 L 16.418,20.78 L 16.703,19.905 L 15.5,19.905 L 15.5,19.754 z" id="path2432" style="fill:#7f7e82" />

                <rect width="0.94400001" height="3.7049999" x="17.216999" y="19.785999" id="rect2434" style="fill:#7f7e82" />

                <rect width="0.94400001" height="0.89999998" x="17.216999" y="18.424" id="rect2436" style="fill:#7f7e82" />

                <path d="M 21.55,22.224 C 21.436,22.491 21.119,22.734 20.595,22.734 C 19.857,22.734 19.597,22.14 19.597,21.583 C 19.597,21.079 19.968,20.545 20.658,20.545 C 21.128,20.545 21.406,20.791 21.516,21.006 L 22.431,20.767 C 22.235,20.18 21.64,19.665 20.608,19.669 C 19.316,19.677 18.64,20.619 18.64,21.549 C 18.64,22.859 19.382,23.609 20.677,23.609 C 21.663,23.609 22.23,23.046 22.464,22.467 L 21.55,22.224 z" id="path2438" style="fill:#7f7e82" />

                <polygon points="29.265,18.54 29.265,21.845 26.717,18.54 25.658,18.54 25.658,23.49 26.678,23.49 26.678,20.06 29.35,23.49 30.283,23.49 30.283,18.54 29.265,18.54 " id="polygon2440" style="fill:#7f7e82" />

                <path d="M 36.038,20.157 L 36.038,19.786 L 35.094,19.786 L 35.094,23.49 L 36.038,23.49 L 36.038,21.88 L 36.038,21.871 C 36.045,21.597 36.017,20.707 36.594,20.634 C 36.935,20.589 37.153,20.7 37.153,20.7 L 37.153,19.763 C 37.153,19.763 36.897,19.694 36.78,19.694 C 36.351,19.694 36.165,19.958 36.038,20.157" id="path2442" style="fill:#7f7e82" />

                <path d="M 38.114,18.911 L 38.114,19.772 L 37.515,19.772 L 37.515,20.714 L 38.114,20.714 L 38.114,22.496 C 38.114,23.263 38.494,23.609 39.342,23.609 C 39.609,23.609 39.789,23.583 40.146,23.536 L 40.26,23.516 L 40.26,22.607 L 40.152,22.637 C 39.967,22.692 39.663,22.734 39.515,22.734 C 39.199,22.734 39.057,22.601 39.057,22.304 L 39.057,20.714 L 39.935,20.714 L 40.223,19.772 L 39.057,19.772 L 39.057,18.626 L 38.114,18.911 z" id="path2444" style="fill:#7f7e82" />

                <path d="M 40.875,18.254 L 40.875,23.491 L 41.818,23.491 L 41.818,21.005 C 42.003,20.768 42.242,20.544 42.794,20.544 C 43.183,20.544 43.422,20.694 43.422,21.445 L 43.422,23.491 L 44.366,23.491 L 44.366,21.144 C 44.366,20.181 43.886,19.669 42.975,19.669 C 42.403,19.669 42.056,19.876 41.818,20.104 L 41.818,17.965 L 40.875,18.254 z" id="path2446" style="fill:#7f7e82" />

                <path d="M 49.663,19.854 C 49.663,19.854 48.967,21.727 48.834,22.097 C 48.7,21.727 48.007,19.854 48.007,19.854 L 47.202,19.854 C 47.202,19.854 46.522,21.718 46.39,22.095 C 46.257,21.718 45.573,19.854 45.573,19.854 L 44.577,19.854 L 45.966,23.491 L 46.812,23.491 C 46.812,23.491 47.474,21.577 47.603,21.196 C 47.735,21.577 48.398,23.491 48.398,23.491 L 49.257,23.491 L 50.633,19.854 L 49.663,19.854 z" id="path2448" style="fill:#7f7e82" />

                <path d="M 56.522,21.132 C 56.055,21.064 55.811,21.025 55.811,20.835 C 55.811,20.678 55.987,20.497 56.475,20.497 C 56.927,20.497 57.184,20.663 57.341,20.823 L 58.072,20.282 C 57.533,19.728 56.808,19.665 56.492,19.665 C 55.183,19.665 54.832,20.423 54.832,20.875 C 54.832,21.581 55.311,21.948 56.432,22.098 C 57.263,22.216 57.368,22.244 57.368,22.422 C 57.368,22.68 56.989,22.772 56.669,22.772 C 56.155,22.772 55.782,22.602 55.562,22.273 L 54.816,22.829 C 55.096,23.186 55.519,23.608 56.594,23.608 C 57.71,23.608 58.349,23.152 58.349,22.362 C 58.349,21.381 57.378,21.25 56.522,21.132" id="path2450" style="fill:#7f7e82" />

                <path d="M 59.167,18.911 L 59.167,19.772 L 58.571,19.772 L 58.571,20.714 L 59.167,20.714 L 59.167,22.496 C 59.167,23.263 59.546,23.609 60.394,23.609 C 60.665,23.609 60.843,23.583 61.203,23.536 L 61.314,23.516 L 61.314,22.607 L 61.208,22.637 C 61.023,22.692 60.72,22.734 60.57,22.734 C 60.256,22.734 60.111,22.601 60.111,22.304 L 60.111,20.714 L 61.133,20.714 L 61.279,19.772 L 60.11,19.772 L 60.11,18.626 L 59.167,18.911 z" id="path2452" style="fill:#7f7e82" />

                <path d="M 52.466,19.677 C 51.124,19.677 50.526,20.66 50.526,21.636 C 50.526,22.817 51.328,23.613 52.521,23.613 C 53.496,23.613 53.974,23.091 54.174,22.772 L 53.315,22.318 C 53.224,22.52 52.959,22.756 52.496,22.756 C 51.963,22.734 51.644,22.464 51.533,21.971 L 54.414,21.971 L 54.414,21.872 C 54.413,20.49 53.706,19.689 52.466,19.677 M 51.569,21.144 C 51.708,20.743 51.989,20.536 52.446,20.536 C 52.948,20.536 53.233,20.735 53.357,21.144 L 51.569,21.144 z" id="path2454" style="fill:#7f7e82" />

                <path d="M 34.151,7.155 C 34.202,7.166 35.174,7.62 36.527,8.402 C 36.18,8.407 35.977,8.415 35.953,8.42 C 35.712,8.431 35.527,8.639 35.548,8.873 C 35.569,9.108 35.763,9.283 35.994,9.272 C 36.036,9.265 36.763,9.22 37.88,9.224 C 38.456,9.591 39.062,9.998 39.669,10.441 C 39.262,10.612 39.023,10.725 38.999,10.745 C 38.755,10.86 38.635,11.113 38.733,11.3 C 38.83,11.486 39.09,11.544 39.326,11.434 C 39.35,11.411 39.729,11.228 40.358,10.961 C 40.568,11.122 40.776,11.291 40.984,11.46 C 41.444,11.819 41.884,12.194 42.308,12.573 C 41.906,12.877 41.675,13.071 41.654,13.1 C 41.4,13.312 41.334,13.653 41.511,13.843 C 41.684,14.033 42.011,14.026 42.256,13.821 C 42.277,13.794 42.538,13.565 42.996,13.208 C 43.592,13.78 44.135,14.342 44.61,14.856 C 44.349,15.131 44.199,15.304 44.184,15.335 C 43.896,15.654 43.881,16.1 44.14,16.314 C 44.4,16.525 44.816,16.451 45.091,16.144 C 45.101,16.117 45.218,15.981 45.423,15.754 C 46.151,16.578 46.593,17.121 46.644,17.088 C 46.713,17.047 46.362,16.397 45.7,15.454 C 46.459,14.633 47.893,13.172 49.743,11.516 C 50.72,11.939 51.321,12.258 51.331,12.232 C 51.376,12.18 50.856,11.804 49.964,11.319 C 51.196,10.227 52.6,9.063 54.107,7.947 C 55.549,7.909 56.496,7.95 56.496,7.91 C 56.508,7.86 55.715,7.741 54.466,7.684 C 54.886,7.378 55.313,7.078 55.748,6.784 C 56.539,6.215 57.347,5.677 58.15,5.172 C 60.201,4.521 61.627,4.191 61.609,4.136 C 61.605,4.073 60.66,4.194 59.203,4.524 C 63.807,1.77 67.998,0.117 67.947,0.01 C 67.908,-0.159 62.154,1.774 56.605,5.21 C 54.939,5.706 53.037,6.382 51.189,7.259 C 50.803,7.431 50.417,7.611 50.037,7.796 C 49.266,7.869 48.472,7.974 47.677,8.124 C 46.243,8.346 44.839,8.693 43.587,9.061 C 41.795,8.685 40.003,8.518 38.606,8.448 C 36.531,6.981 34.763,6.077 34.679,6.056 C 34.454,5.949 34.152,6.115 34.019,6.424 C 33.888,6.735 33.942,7.056 34.151,7.155 M 44.978,14.477 C 44.563,13.943 44.083,13.365 43.549,12.78 C 44.365,12.16 45.52,11.326 46.886,10.448 C 47.515,10.643 48.101,10.853 48.632,11.059 C 47.016,12.457 45.744,13.696 44.978,14.477 M 54.841,6.345 C 54.189,6.769 53.546,7.208 52.927,7.655 C 52.577,7.656 52.215,7.664 51.835,7.678 C 52.84,7.177 53.858,6.733 54.841,6.345 M 50.87,8.158 C 51.405,8.101 51.927,8.057 52.42,8.024 C 51.159,8.955 49.98,9.904 48.936,10.798 C 48.465,10.578 47.943,10.35 47.381,10.134 C 48.454,9.464 49.635,8.78 50.87,8.158 M 47.778,8.652 C 48.091,8.584 48.405,8.521 48.723,8.464 C 47.908,8.898 47.129,9.347 46.411,9.785 C 45.923,9.625 45.413,9.476 44.891,9.349 C 45.81,9.082 46.784,8.838 47.778,8.652 M 43.702,9.713 C 43.779,9.728 43.858,9.74 43.935,9.756 C 44.584,9.853 45.217,9.989 45.827,10.147 C 44.646,10.888 43.645,11.585 42.923,12.113 C 42.489,11.67 42.025,11.227 41.541,10.805 C 41.46,10.728 41.377,10.653 41.294,10.578 C 41.971,10.309 42.791,10.007 43.702,9.713 M 42.224,9.49 C 41.645,9.683 41.124,9.871 40.674,10.04 C 40.36,9.774 40.041,9.52 39.723,9.273 C 40.5,9.313 41.349,9.38 42.224,9.49" id="path2456" style="fill:#d29431" />

            </g>
        </g>
    </svg>